<svg id="Layer_1" data-name="Layer 1" xmlns="http://www.w3.org/2000/svg" viewBox="0 0 527.15 776.28"><defs><style>.cls-1{fill:#76491f;}.cls-2{fill:#242424;}.cls-3{fill:#101010;}.cls-4{fill:#cbcbcb;}.cls-5{fill:#f2f2f2;}.cls-6{fill:#efefef;}.cls-7{fill:#f0f0f0;}.cls-8{fill:#e9e9e9;}.cls-9{fill:#ebebeb;}.cls-10{fill:#ededed;}.cls-11{fill:#eee;}.cls-12{fill:#f1f1f1;}.cls-13{fill:#e6e6e6;}.cls-14{fill:#e7e7e7;}.cls-15{fill:#010101;}.cls-16{fill:#343434;}.cls-17,.cls-37{fill:#fff;}.cls-18{fill:#e8e8e8;}.cls-19{fill:#bcbcbc;}.cls-20{fill:#bd9146;}.cls-21{fill:#b4ad30;}.cls-22{fill:#040404;}.cls-23{fill:#050505;}.cls-24{fill:#404040;}.cls-25{fill:#464646;}.cls-26{fill:#3f3f3f;}.cls-27{fill:#414141;}.cls-28{fill:#474747;}.cls-29{fill:#4a4a4a;}.cls-30{fill:#020202;}.cls-31{fill:#434343;}.cls-32{fill:#424242;}.cls-33{fill:#484848;}.cls-34{fill:#e2cd3d;}.cls-35{fill:#fafafa;}.cls-36{fill:#333;}.cls-37{stroke:#000;stroke-miterlimit:10;}</style></defs><title>Henkipollo</title><path d="M335.13,14.93a164.62,164.62,0,0,1,71.44,11.23C435,37.39,459.3,54,476.25,79.74c6.11,9.29,9.67,20.14,13.08,30.86,7.12,22.34,9.1,45.51,10.31,68.66.52,9.92-2.07,20-1.63,30.15a2.42,2.42,0,0,1-.26,1.4c-4.2,6.08-.06,9.18,4.09,12.83,26.65,23.45,51.09,49,72.07,77.7a402.7,402.7,0,0,1,45.18,79c11.59,27.06,19.46,55.4,26,84.15,8,35.08,17.46,69.82,25.36,104.92,6.64,29.51,11.53,59.4,17.25,89.11,5.8,30.12,8.62,60.55,12,90.92,1.3,11.66-.47,23.32-3.79,34.67-.72,2.44-2.47,3.2-4.42,3.89-10,3.52-20.19,3.33-30.41,1.79-28.68-4.3-53.75-16.34-76.87-33.87-34.13-25.87-61.5-57.94-87.65-91.3C485.39,650.36,476,634.82,466.1,619.7a13.76,13.76,0,0,0-7.92-6.21C416.52,600.7,379.67,578.87,344,554.26c-42.15-29.08-76.67-66-110.46-103.75-16.64-18.6-26.91-41.18-37.29-63.56-8.23-17.75-14.41-36.29-19.58-55.13a115,115,0,0,1-3.68-30,382.78,382.78,0,0,1,7.94-77.32,29.78,29.78,0,0,0,.49-6.67c-.47-15.06-.83-30.13-1.63-45.18-.65-12,2.62-23.5,4.06-35.23,2.63-21.42,9.93-41.23,20.84-59.83a121.27,121.27,0,0,1,47.74-46C265.21,24.7,278.49,19.12,292.83,17A198.2,198.2,0,0,1,335.13,14.93Z" transform="translate(-173 -14.57)"/><path class="cls-1" d="M329.81,314.91c-.6-8.75,1.78-16,5.12-23,4.56-9.57,9.43-18.83,17.46-26.2,9.81-9,20.81-16.56,33.12-20.8,20.81-7.17,40-17.06,58.43-28.82,7.5-4.79,16.49-4.61,25.1-4.56,13.81.09,23.9,6.88,33.57,16.63,17.48,17.62,35.9,34.37,52,53.28,16.33,19.17,31,39.58,42.09,62.38,3.14,6.48,6.87,12.67,10.4,19,14.43,25.7,22.06,53.85,29.45,82.07,2.81,10.7,5.36,21.46,8.36,32.1a113.72,113.72,0,0,1,2.22,51.85c-1.92,10.45-7.9,17-19.32,15.51-22.75-3-45.27-6.28-67.22-13.33A537.91,537.91,0,0,1,468,491.25c-11-6-20.16-14.71-30.41-21.84-16.77-11.66-31.37-25.87-46.73-39.19-9.08-7.89-14.49-18.69-21.79-28-15.14-19.32-25.13-41.64-36.72-63-3.49-6.45-1.06-13.92-2.46-20.8A14.1,14.1,0,0,1,329.81,314.91Z" transform="translate(-173 -14.57)"/><path class="cls-1" d="M230.79,71.51c-2.51,7.69-9.52,12.24-13.17,19.24-6.56,12.57-10.52,25.69-11.1,39.87-.74,17.92.91,35.7,6.06,52.79,6.7,22.26,17.45,42.21,39.42,53.34,10.31,5.22,21.44,8.5,32.51,11.73,21.08,6.16,42.72,8.26,64.57,8.72,1.38,0,2.87-.45,4.64,1-9.09,7.55-16.51,16.47-23.59,25.72a138.18,138.18,0,0,0-9.76,15.31c-7.07,12.22-8.32,25.73-8.49,39-.12,10.26,3.8,20.41,8.72,29.68,17,32.14,33.69,64.49,51.23,96.36C398,511.78,426.13,558.05,453.19,605c.62,1.08,1.66,2,1.43,3.5-1.31,1-2.42-.07-3.54-.44-39.9-13.11-74.93-35-109.19-58.8-35.12-24.37-63.6-55.58-93.26-85.72-23.87-24.25-39.18-53.62-52.57-84.3a284,284,0,0,1-17.31-51.42c-4.93-22-2.82-44.29-.66-66.49,1.23-12.62,3.73-25,5.91-37.49a29.51,29.51,0,0,0,.35-6.23c-.53-14.72-1-29.45-1.75-44.16-.61-12,2.54-23.53,4-35.27a151.75,151.75,0,0,1,20.75-59.46c11.42-19.14,26.7-34.21,46.6-44.49,10.7-5.52,21.45-10.73,33.38-13.26A142.08,142.08,0,0,1,314,17.82c19.36-.36,38.79-1.24,58.08,1.62,13.72,2,26.76,6.52,39.49,11.85C425.1,37,437.47,44.78,449.2,53.47c8.27,6.14,14.08,14.84,20.77,22.6s9.7,17.24,13.53,26.36c7.55,18,8.6,37.33,11.89,56.24,2.94,16.92-.72,33.53-.4,50.28.07,3.74-1.47,4.86-5.88,3.46-10.14-3.24-20.48-6.75-31.44-3.38a47.58,47.58,0,0,1-6.05.93c2-4.45,3.67-8.3,5.42-12.12a138.34,138.34,0,0,0,12.45-70.6c-.53-6.4-1.63-12.7-2.36-19.06-.82-7.21-5.67-12.42-9.18-18.29-1.23-2-2.82-3.89-4.25-5.82-1.94-1.79-1.94-4.13-1.87-6.51a11.27,11.27,0,0,0-.6-5.08c-1.65-7.46-7.41-11.83-12.88-16.07-5.77-4.47-12-8.4-19.25-10.36-2.6-1.36-5-1.31-7.16.94-3.53,1.91-6.11,5.51-10.49,5.95-13.57-3.31-26.27-.75-38.21,6a82.31,82.31,0,0,0-19.88,15.51c-2.5,2.67-5,3-7.67.25-9.45-9.75-21.16-15.76-34-19.52-5.34-1.56-11-3.16-16.77-1.36-3.34.43-4.9-2.53-7.28-3.91-1.48-.86-2.74-2.13-4.27-3-3.1-3.36-6.5-2.5-10-.7a80.59,80.59,0,0,0-20.49,13A31,31,0,0,0,235,68.73C234.2,70.37,233.38,72.4,230.79,71.51Z" transform="translate(-173 -14.57)"/><path class="cls-1" d="M653,508.07c.72,2.7,1.47,5.4,2.14,8.12q14.37,57.88,25.12,116.56c3.36,18.28,7.09,36.51,9.69,54.9,3,20.92,5.23,42,7,63a84.65,84.65,0,0,1-3.2,30.44c-1,3.41-3.32,4.45-6.19,5.2-10.83,2.82-21.63,1.54-32.4-.4-28-5.07-51.8-18.49-73.95-36-28-22.17-51.79-48.2-73.62-76.22-30.3-38.89-56.46-80.58-81.82-122.74-23.39-38.86-46.64-77.82-67.74-118-11.26-21.42-21.55-43.34-33.64-64.34A79.57,79.57,0,0,1,315,340.47c-1.37-9.36,0-19.38,3.05-28.43,3.59-10.76,8.77-21,16.72-29.48a3.34,3.34,0,0,1,1.76-1c-2.76,6.21-6.14,12.1-7.89,18.73A46.88,46.88,0,0,0,326.85,315c.38,6.71.66,13.44.93,20.16.1,2.52,1.34,4.59,2.48,6.7,7.77,14.38,14.7,29.31,23.55,43,14,21.61,28.4,42.78,48.53,59.82,18.64,15.78,38.25,30.15,57.6,44.92,8.49,6.49,18.64,9.93,27.93,14.95,24.53,13.23,50.81,22.16,77.2,30.67,17.39,5.6,35.23,9.63,53.61,10.62,4,.21,8,.84,11.93,1.4,6.44.92,10.65-1.6,14.62-6.75,6.65-8.62,5.19-18.85,6.7-28.51a35.37,35.37,0,0,0,.21-3.72Z" transform="translate(-173 -14.57)"/><path class="cls-2" d="M447,88.73l2.76-1c2.08.37,3.17,1.91,4.43,3.42,7.39,8.86,10.06,19.29,11.25,30.53a150,150,0,0,1-5.22,57.95c-2.86,9.9-7.55,19-12.3,28.1a10.43,10.43,0,0,1-4.47,4.92c-10.6,5-19.3,13.1-29.79,18.27-8.35,4.12-17.33,6.69-26.05,9.86-7.32,2.66-14.1,7-22.11,7.69a2.2,2.2,0,0,0-1.34.48c-5.11,5.79-11.95,4.41-18.37,4.3-31.08-.54-61.2-6.19-89.67-18.78-14.86-6.57-24.84-18.45-32.28-32.94-7.64-14.89-10.76-30.73-12.56-47-1.94-17.69-1.66-35.13,5-52a63.71,63.71,0,0,1,11.07-18.42c1.84-2.16,3.35-4.23,3.49-7.11.65,6,2.66,10.72,9.68,11.28.61,0,1.14,1,1.71,1.55,1.24,1.91.06,3.24-1,4.71-6.94,9.43-10.07,20.25-11,31.73-1.23,15.35,1.12,30.38,5,45.17,2.11,8,6.64,15,11.49,21.51a91.64,91.64,0,0,0,19.51,19.47,173,173,0,0,0,27.28,16.47c13.72,6.45,28.17,10.63,42.88,14a18.28,18.28,0,0,0,8.06-.27c24.6-5,47.37-14.44,67.54-29.45,13.4-10,25.09-21.91,31.11-37.79a109,109,0,0,0,6.47-31.44c.2-3-.23-6.12.09-9.14,1.25-11.91-2.59-22.78-6.63-33.62a21.09,21.09,0,0,0-4.17-6.41c-1.22-1.41-2.92-2.74-1.66-5C440.28,88.42,443.78,90.22,447,88.73Z" transform="translate(-173 -14.57)"/><path class="cls-3" d="M451.94,85a28.8,28.8,0,0,0,1.77-13.35c1.16,2,1.45,3.85,1,7.34-.23,1.71-.64,3.4-1,5.1Z" transform="translate(-173 -14.57)"/><path class="cls-4" d="M465.14,324.77c-.58-6.31-.3-6.53,4.5-5.06a62.79,62.79,0,0,1,11.76,5.17c4.88,2.67,6.85,7.06,7.51,12.1.85,6.64-5.36,11.27-11.62,8.73-8.35-3.37-10.71-10.77-12-18.74A12.15,12.15,0,0,1,465.14,324.77Z" transform="translate(-173 -14.57)"/><path class="cls-4" d="M625.63,464.32c.09,6.82-5.87,10.88-12,8.3-8.27-3.5-10.75-10.89-11.78-18.89-1.11-8.63-.83-8.9,7.28-6,7.08,2.54,14.2,5.42,16,14.13C625.34,462.8,625.52,463.74,625.63,464.32Z" transform="translate(-173 -14.57)"/><path class="cls-4" d="M402.61,292.07c-.59-6.32-.31-6.54,4.51-5.07a62.74,62.74,0,0,1,11.75,5.18c4.88,2.67,6.85,7.06,7.5,12.1.85,6.63-5.36,11.26-11.63,8.72-8.34-3.38-10.7-10.78-12-18.75A10.59,10.59,0,0,1,402.61,292.07Z" transform="translate(-173 -14.57)"/><path class="cls-4" d="M566.94,494.08c.15,6.81-5.79,10.93-11.88,8.4-8.11-3.36-10.65-10.56-11.8-18.37-1.38-9.42-1.13-9.71,7.62-6.44,6.87,2.56,13.89,5.4,15.57,13.95C566.63,492.56,566.82,493.49,566.94,494.08Z" transform="translate(-173 -14.57)"/><path class="cls-4" d="M469,247.8c-.59-6.31-.3-6.52,4.5-5.06a62.19,62.19,0,0,1,11.76,5.18c4.88,2.66,6.85,7.05,7.5,12.09.86,6.64-5.35,11.27-11.62,8.73-8.34-3.37-10.7-10.77-12-18.74A12.15,12.15,0,0,1,469,247.8Z" transform="translate(-173 -14.57)"/><path class="cls-4" d="M434.07,367.65c-.2-1.41-.07-2.48,1.81-2.57,7.28-.32,19.72,8.55,21.75,15.53,1.19,4.06.64,7.68-2.8,10.34s-6.89,2-10.31.05c-6.78-3.91-8.83-10.55-10-17.64C434.2,371.48,434.21,369.55,434.07,367.65Z" transform="translate(-173 -14.57)"/><path class="cls-4" d="M534.42,328.63c-.59-6.32-.31-6.54,4.52-5.07a62.74,62.74,0,0,1,11.75,5.18c4.87,2.68,6.85,7.07,7.49,12.11.84,6.63-5.37,11.25-11.64,8.71-8.34-3.39-10.69-10.79-12-18.76A10.5,10.5,0,0,1,534.42,328.63Z" transform="translate(-173 -14.57)"/><path class="cls-4" d="M494.79,445.18c-.05,6.7-5.8,10.68-11.69,8.31-8.36-3.37-10.92-10.73-12-18.73-1.24-9-1-9.29,7.44-6.21,6.89,2.53,13.92,5.3,15.71,13.81C494.46,443.44,494.66,444.54,494.79,445.18Z" transform="translate(-173 -14.57)"/><path class="cls-4" d="M380.48,333.39c-.6-6.38-.37-6.51,4.87-4.9a64.14,64.14,0,0,1,11.31,5c4.9,2.64,6.89,7,7.58,12.06.9,6.63-5.28,11.34-11.54,8.84-8.37-3.33-10.76-10.72-12.09-18.69A13,13,0,0,1,380.48,333.39Z" transform="translate(-173 -14.57)"/><path class="cls-4" d="M530.28,390.76c-.19-1.39-.09-2.49,1.79-2.59,7.23-.37,19.72,8.53,21.77,15.51,1.19,4.06.65,7.68-2.78,10.35s-6.88,2-10.31.07c-6.79-3.9-8.84-10.54-10-17.62C530.41,394.6,530.42,392.67,530.28,390.76Z" transform="translate(-173 -14.57)"/><path class="cls-5" d="M470.8,216c2.88.8,5.35,1.42,7.76,2.19,1,.32,2.33.72,1.8,2.25-.38,1.12-1.43,1.12-2.4.86-2.6-.7-5.2-1.41-7.78-2.21-.89-.27-1.94-.77-1.65-1.94C468.89,215.7,470.11,215.89,470.8,216Z" transform="translate(-173 -14.57)"/><path class="cls-6" d="M398.76,414.38c-.34,1.32-1.33,1.94-2.35.91a89,89,0,0,1-6.54-7.46c-.85-1.1-.31-2.15,1.2-2.23C392.12,405.55,398.8,413.21,398.76,414.38Z" transform="translate(-173 -14.57)"/><path class="cls-7" d="M418.93,439.07a1.17,1.17,0,0,1-.8,1.49,2.06,2.06,0,0,1-1.69-.37c-2.15-2.31-4.22-4.7-6.27-7.11a1.36,1.36,0,0,1,0-2.09,1.86,1.86,0,0,1,1.27-.33C412.37,430.73,418.84,438.12,418.93,439.07Z" transform="translate(-173 -14.57)"/><path class="cls-8" d="M352.6,281.64c-.11,1.36-6.68,7.95-7.68,8-1.61,0-2.14-1.1-1.25-2.11a69.37,69.37,0,0,1,6.73-6.66C351.64,279.75,352.27,280.85,352.6,281.64Z" transform="translate(-173 -14.57)"/><path class="cls-9" d="M640.41,525.09c-.17,1.57.65,3.65-1.18,3.9-2.37.33-1.8-2.07-2-3.44-.33-2.19-.43-4.42-.54-6.63a1.53,1.53,0,0,1,1.35-1.69c.91-.09,1.41.66,1.54,1.49C639.9,520.91,640.16,523.12,640.41,525.09Z" transform="translate(-173 -14.57)"/><path class="cls-7" d="M390.93,258.89l-1,.46c-3.13,1.36-5.6,4.27-9.38,4-.22,0-.67-.95-.54-1.14,2.08-3.1,5.77-3.73,8.69-5.57a2,2,0,0,1,1.36-.17C390.72,256.64,391.08,257.17,390.93,258.89Z" transform="translate(-173 -14.57)"/><path class="cls-6" d="M523.53,508.48c2.53,1.49,5.54,3.23,8.5,5a1.07,1.07,0,0,1,.15,1.67,2,2,0,0,1-1.66.48q-4.24-2.16-8.34-4.58a2,2,0,0,1-.67-1.58C521.53,508.8,522.21,508.54,523.53,508.48Z" transform="translate(-173 -14.57)"/><path class="cls-8" d="M576.81,531.22c-2.57-.54-4.92-1-7.27-1.53-.95-.21-2.09-.57-1.92-1.73.23-1.47,1.54-1.41,2.69-1.2,2.36.44,4.71.91,7.05,1.45,1,.24,2.5.42,2.08,2S577.7,531.27,576.81,531.22Z" transform="translate(-173 -14.57)"/><path class="cls-8" d="M601.7,536c-2.47-.53-4.94-1-7.4-1.58-.92-.22-1.92-.63-1.61-1.86s1.37-1.21,2.31-1q3.72.66,7.41,1.5c1,.23,2.43.43,2.06,2S602.79,536.1,601.7,536Z" transform="translate(-173 -14.57)"/><path class="cls-7" d="M370.9,270.36c-.83,2-2.82,2.55-4.49,3.28-2,.87-4.94,4-6.07,1.88-1.61-3.07,3-3,4.68-4.51a13,13,0,0,1,3.81-2C369.89,268.62,370.64,269.17,370.9,270.36Z" transform="translate(-173 -14.57)"/><path class="cls-10" d="M337.29,309.86c-1.69-.1-1.93-1.18-1.61-2.33.81-2.89,1.73-5.75,2.69-8.59.26-.78.92-1.43,1.8-.94.45.25,1,1.06.89,1.45-.86,3.2-1.84,6.37-2.85,9.52C338.09,309.35,337.58,309.6,337.29,309.86Z" transform="translate(-173 -14.57)"/><path class="cls-7" d="M457.52,215.79a5.26,5.26,0,0,1,1.62.88,1.13,1.13,0,0,1-.25,1.69c-2.89,1.68-5.81,3.31-8.79,4.83-.36.19-1.26-.19-1.62-.57a1.12,1.12,0,0,1,.24-1.69C451.57,219.2,454.48,217.55,457.52,215.79Z" transform="translate(-173 -14.57)"/><path class="cls-7" d="M444,226.81a2.05,2.05,0,0,1-1.3,1.85q-3.56,2-7.16,3.88c-.91.49-1.83.68-2.49-.37a1.21,1.21,0,0,1,.37-1.7c2.91-1.65,5.84-3.27,8.82-4.77C443,225.29,443.69,226,444,226.81Z" transform="translate(-173 -14.57)"/><path class="cls-6" d="M482.49,485.65c-.31,1.17-1.14,1.66-2.15,1.14-2.83-1.48-5.59-3.08-8.34-4.7a1.33,1.33,0,0,1,1-2.44,39.64,39.64,0,0,1,9.12,5.15C482.33,485,482.37,485.36,482.49,485.65Z" transform="translate(-173 -14.57)"/><path class="cls-7" d="M419.76,242.43c-1.36.18-1.88-.12-2.18-.75a1.24,1.24,0,0,1,.51-1.67c2.76-1.59,5.55-3.14,8.38-4.62a1.38,1.38,0,0,1,2,.72,1.25,1.25,0,0,1-.51,1.66C425.07,239.47,422.14,241.09,419.76,242.43Z" transform="translate(-173 -14.57)"/><path class="cls-6" d="M493.47,493.27a1.46,1.46,0,0,1,2.26-.91c2.67,1.41,5.31,2.88,7.94,4.37a1.38,1.38,0,0,1,.68,2c-.21.35-.86.79-1.13.69a31,31,0,0,1-9.52-5.25C493.51,494,493.54,493.58,493.47,493.27Z" transform="translate(-173 -14.57)"/><path class="cls-9" d="M640.39,500.83c0,.7,0,1.65,0,2.6a1.6,1.6,0,0,1-1.37,1.69c-.9.07-1.42-.68-1.52-1.51q-.5-4-.84-8c-.08-1,0-2.08,1.18-2.31,1.6-.31,1.69,1.06,1.86,2.12C640,497.1,640.14,498.84,640.39,500.83Z" transform="translate(-173 -14.57)"/><path class="cls-9" d="M638.52,476.81c-.19,1.84.59,3.85-1.3,4.13-2.09.31-1.55-1.87-1.92-3.11a1.52,1.52,0,0,1-.06-.47c.19-2.77-2.25-7.52,1-7.77C639.26,469.35,637.2,474.71,638.52,476.81Z" transform="translate(-173 -14.57)"/><path class="cls-7" d="M401.42,252.15c-1.39,0-1.91-.26-2.16-1a1.29,1.29,0,0,1,.63-1.63c2.77-1.58,5.56-3.13,8.4-4.58a2,2,0,0,1,1.68.45,1,1,0,0,1-.06,1.67C406.94,248.94,403.91,250.68,401.42,252.15Z" transform="translate(-173 -14.57)"/><path class="cls-11" d="M343.82,345.9c1.35,0,7.26,8.15,6.7,9.3a1.28,1.28,0,0,1-2.29.36c-2-2.48-3.87-5-5.62-7.68C342,346.9,342.64,346.1,343.82,345.9Z" transform="translate(-173 -14.57)"/><path class="cls-11" d="M583.49,330.32c-.12,1.42-1,2.21-1.88,1.52-2.7-2.25-4.51-5.26-6.25-8.27-.16-.28.08-.92.33-1.26a1.07,1.07,0,0,1,1.66-.17A43.63,43.63,0,0,1,583.49,330.32Z" transform="translate(-173 -14.57)"/><path class="cls-12" d="M489.47,225.4c2.92,1.74,5.92,3.49,8.88,5.32a1,1,0,0,1,.13,1.65c-.28.31-.91.63-1.22.51a38.77,38.77,0,0,1-9.13-5,1.08,1.08,0,0,1-.13-1.66A5.78,5.78,0,0,1,489.47,225.4Z" transform="translate(-173 -14.57)"/><path class="cls-12" d="M628.65,431.83c.13,1.07,0,1.8-1,2.09a1.41,1.41,0,0,1-1.61-.72,4.88,4.88,0,0,1-.72-1.24c-.79-2.86-3.21-5.23-2.64-8.47a1,1,0,0,1,1.61-.44C626.74,425.55,627.18,429.05,628.65,431.83Z" transform="translate(-173 -14.57)"/><path class="cls-13" d="M623.06,535.25,629,536c1.1.14,2.6.24,2.48,1.6-.15,1.69-1.8,1.47-3,1.37-1.89-.16-3.78-.37-5.65-.69-1.26-.21-3.41.23-3.08-1.87S622.07,535.6,623.06,535.25Z" transform="translate(-173 -14.57)"/><path class="cls-12" d="M542.7,281.41c1.54.23,7.38,8,7.08,9.07s-1.39,1.64-2.13.75a84.64,84.64,0,0,1-6-8C541,282.21,542.06,281.6,542.7,281.41Z" transform="translate(-173 -14.57)"/><path class="cls-12" d="M365.27,373.81c-.32.52-.46,1.06-.8,1.28a1.47,1.47,0,0,1-2.05-.55q-2.61-3.42-5.17-6.88c-.48-.66-.75-1.48,0-2.11.3-.26,1-.45,1.25-.28C361.39,367.62,363.19,370.8,365.27,373.81Z" transform="translate(-173 -14.57)"/><path class="cls-12" d="M517.29,250.56a4.68,4.68,0,0,1-.75,1.33,1.15,1.15,0,0,1-1.69-.17c-2-2.51-4-5-5.77-7.61-.75-1.13.11-2.74,1.34-1.93C513.51,244.2,515.16,247.61,517.29,250.56Z" transform="translate(-173 -14.57)"/><path class="cls-12" d="M566.18,308.8c-.12,1.75-1,2.58-1.86,1.87-2.69-2.25-4.54-5.25-6.3-8.25-.17-.28.06-.92.3-1.26A1,1,0,0,1,560,301C562.17,303.65,564.28,306.4,566.18,308.8Z" transform="translate(-173 -14.57)"/><path class="cls-12" d="M439.15,459.62c-.34,1.46-1.3,1.69-2.43.9-2.34-1.63-4.64-3.32-6.88-5.08-1-.79-1.41-1.87.07-2.61C431,452.26,439.15,458.26,439.15,459.62Z" transform="translate(-173 -14.57)"/><path class="cls-7" d="M618.36,408.24c-.33.54-.51,1.23-1,1.5-.85.5-1.55-.06-1.91-.82-1.22-2.59-2.4-5.21-3.56-7.83a1.51,1.51,0,0,1,.57-2.07,1.14,1.14,0,0,1,1.64.46C615.57,402.32,616.91,405.2,618.36,408.24Z" transform="translate(-173 -14.57)"/><path class="cls-5" d="M525.42,261.26c1.94.62,2.86,2.4,3.81,3.93,1.13,1.83,4.74,3.89,2.57,5.6s-3.2-2.4-4.78-3.88a16.5,16.5,0,0,1-2.53-3.41C523.88,262.51,524.22,261.7,525.42,261.26Z" transform="translate(-173 -14.57)"/><path class="cls-7" d="M594.91,354.64c.23,1.35,0,1.9-.64,2.22a1.15,1.15,0,0,1-1.61-.55c-1.38-2.85-2.69-5.74-3.95-8.64a1.25,1.25,0,0,1,.72-1.57,1.18,1.18,0,0,1,1.62.56C592.48,349.49,593.81,352.36,594.91,354.64Z" transform="translate(-173 -14.57)"/><path class="cls-7" d="M607.57,384.68c0,1.29-.25,1.85-1,2.07a1.27,1.27,0,0,1-1.55-.76c-1.31-2.72-2.6-5.44-3.77-8.21a2,2,0,0,1,.44-1.68,1,1,0,0,1,1.62.18C604.89,379.22,606.34,382.2,607.57,384.68Z" transform="translate(-173 -14.57)"/><path class="cls-5" d="M382.58,393.54c-.42,1.67-1.18,2.51-2.11,1.61a27.71,27.71,0,0,1-6.25-8.22c-.45-1,.86-2.11,1.61-1.33C378.33,388.17,380.51,391.05,382.58,393.54Z" transform="translate(-173 -14.57)"/><path class="cls-14" d="M630.34,444.05c.29.17.91.31,1,.63,1.1,2.94,2.16,5.91,3.11,8.91.11.36-.49,1.08-.92,1.41a1.27,1.27,0,0,1-1.2-.31,30.36,30.36,0,0,1-3.29-9.3C629,444.8,629.47,444.23,630.34,444.05Z" transform="translate(-173 -14.57)"/><path class="cls-13" d="M339.23,331c-.05.91.45,2.42-1,2.67-1.86.33-1.7-1.43-1.87-2.58-.36-2.35-.64-4.7-.88-7.07-.08-.78,0-1.7,1-1.91,1.27-.28,1.61.77,1.75,1.69C338.62,326.13,338.9,328.49,339.23,331Z" transform="translate(-173 -14.57)"/><path class="cls-5" d="M459.29,473c-.07,1.3-1,1.79-1.92,1.24a88,88,0,0,1-7.6-4.92c-.94-.69-.72-1.73.52-2.13C451.36,466.83,459.16,471.93,459.29,473Z" transform="translate(-173 -14.57)"/><path class="cls-9" d="M554.58,523.23a1.49,1.49,0,0,1-2.17,1.17c-2.57-.85-5.11-1.79-7.64-2.75-.75-.29-1.47-.82-1.06-1.79.14-.35.74-.81,1-.76a30.56,30.56,0,0,1,9.35,3.33C554.35,522.56,554.43,523,554.58,523.23Z" transform="translate(-173 -14.57)"/><path class="cls-15" d="M401.76,51.11l-4.83,4c-4.48,2.12-9.3.27-14,1.27-11.34,2.43-21.2,7.75-30.58,14.23-2.52,1.74-3.22,5.06-5.69,6.88-6.57,5.7-12,1.74-17.54-2-4.82-9.3-14.43-11.09-23-14.54-5.17-2.09-10.82-2.59-16-4.74L284.57,52c8.68-1.83,16.77.52,24.69,3.64,10,3.94,19.47,9,26.95,16.94,2.33,2.48,4,2.24,6.28-.09a85.79,85.79,0,0,1,27.89-19C380.66,49.09,391.06,48.78,401.76,51.11Z" transform="translate(-173 -14.57)"/><path class="cls-10" d="M248.79,291.67a2.76,2.76,0,0,1-2.55,2.9,2.56,2.56,0,0,1-3-2.38,2.6,2.6,0,0,1,2.71-3.13C247.61,289,248.5,290.08,248.79,291.67Z" transform="translate(-173 -14.57)"/><path class="cls-10" d="M338.27,483.35A2.75,2.75,0,0,1,341.1,486a2.75,2.75,0,1,1-5.5.17C335.58,484.51,336.66,483.61,338.27,483.35Z" transform="translate(-173 -14.57)"/><path class="cls-10" d="M314.22,502.43a2.76,2.76,0,0,1-2.6,2.84,2.75,2.75,0,1,1-.18-5.5C313.08,499.74,314,500.83,314.22,502.43Z" transform="translate(-173 -14.57)"/><path class="cls-10" d="M278.62,369.91c-.31,1.58-1.2,2.63-2.85,2.59a2.55,2.55,0,0,1-2.7-2.68,2.58,2.58,0,0,1,3-2.82A2.73,2.73,0,0,1,278.62,369.91Z" transform="translate(-173 -14.57)"/><path class="cls-10" d="M298.83,464.92c-1.6-.25-2.7-1.14-2.67-2.77a2.75,2.75,0,1,1,5.49.15A2.75,2.75,0,0,1,298.83,464.92Z" transform="translate(-173 -14.57)"/><path class="cls-10" d="M212.31,291.89c1.61.2,2.71,1.06,2.75,2.69a2.58,2.58,0,0,1-3,2.86,2.54,2.54,0,0,1-2.52-2.85A2.76,2.76,0,0,1,212.31,291.89Z" transform="translate(-173 -14.57)"/><path class="cls-10" d="M212.24,375.09c-.07,1.88-.92,3-2.51,3.17a2.76,2.76,0,1,1-.37-5.5C211.05,372.68,211.82,373.84,212.24,375.09Z" transform="translate(-173 -14.57)"/><path class="cls-10" d="M350.12,536.27c1.55.35,2.64,1.25,2.52,2.9a2.59,2.59,0,0,1-3.19,2.63,2.56,2.56,0,0,1-2.3-3A2.77,2.77,0,0,1,350.12,536.27Z" transform="translate(-173 -14.57)"/><path class="cls-10" d="M235.32,348.49a2.75,2.75,0,0,1-2.6,2.85,2.76,2.76,0,1,1-.17-5.51C234.19,345.8,235.06,346.9,235.32,348.49Z" transform="translate(-173 -14.57)"/><path class="cls-10" d="M266.17,459.15c-1.61-.22-2.72-1.1-2.73-2.72a2.59,2.59,0,0,1,3-2.84,2.56,2.56,0,0,1,2.49,2.89A2.74,2.74,0,0,1,266.17,459.15Z" transform="translate(-173 -14.57)"/><path class="cls-10" d="M194,332.3a2.75,2.75,0,0,1,2.83,2.61,2.56,2.56,0,0,1-2.43,2.94,2.59,2.59,0,0,1-3.07-2.77C191.26,333.45,192.35,332.56,194,332.3Z" transform="translate(-173 -14.57)"/><path class="cls-10" d="M252.68,417c1.61.18,2.73,1,2.78,2.66a2.75,2.75,0,1,1-5.49.08A2.76,2.76,0,0,1,252.68,417Z" transform="translate(-173 -14.57)"/><path class="cls-10" d="M270,328.91c-.06,1.88-.92,3-2.5,3.17a2.76,2.76,0,1,1-.38-5.51C268.78,326.5,269.55,327.66,270,328.91Z" transform="translate(-173 -14.57)"/><path class="cls-10" d="M240.68,393.72c-1.89,0-3-.9-3.2-2.46a2.76,2.76,0,1,1,5.49-.46C243.08,392.5,241.92,393.28,240.68,393.72Z" transform="translate(-173 -14.57)"/><path class="cls-10" d="M294,422.77c-.28,1.6-1.17,2.69-2.81,2.64a2.76,2.76,0,1,1,.24-5.5A2.75,2.75,0,0,1,294,422.77Z" transform="translate(-173 -14.57)"/><path class="cls-16" d="M274.71,44.63l-12.08-.84C266.82,41.73,270.86,41.73,274.71,44.63Z" transform="translate(-173 -14.57)"/><path class="cls-2" d="M419.86,43.76l-9.26.85c2.78-3,6.24-2,9.59-1.61a.85.85,0,0,1,0,.4A1.64,1.64,0,0,1,419.86,43.76Z" transform="translate(-173 -14.57)"/><path class="cls-1" d="M531.67,637.19l4.08,4c.7,3.8,1.75,7.79-2.83,10-3.32,1.59-6.56.11-10.22-4.23-3.17-3.76-3.42-8.5-4.22-13-.34-1.88,1.28-2.24,3-1.73C525.11,633.35,528.79,634.45,531.67,637.19Z" transform="translate(-173 -14.57)"/><path class="cls-17" d="M641.39,618.42c-.58-4,1.23-4.45,4.45-3.2,6,2.32,12.26,4.06,14.19,11.49.87,3.35.32,6.08-2.37,8.15s-5.41,1.62-8.1,0C643.34,631.1,642.12,624.84,641.39,618.42Z" transform="translate(-173 -14.57)"/><path class="cls-17" d="M610.37,692.74c0,5.33-4.94,8.36-9.85,6.27-5.82-2.47-10.76-12.85-9.17-19.13.27-1.08.62-1.6,1.83-1.66,6.17-.35,15.92,7.22,17,13.28C610.27,692,610.33,692.45,610.37,692.74Z" transform="translate(-173 -14.57)"/><path class="cls-17" d="M536.92,644.46c-1.09-6.06-10.84-13.63-17-13.29-1.21.07-1.56.58-1.83,1.67-1.59,6.27,3.35,16.65,9.17,19.13,4.91,2.08,9.82-1,9.85-6.28C537.06,645.4,537,644.93,536.92,644.46Zm-4.2,6.59c-5.44,2-10-3-11.73-7.56a11,11,0,0,1-1.83-5c-.17-1.68-1.25-3.89-.06-5.41s3-1,4.45-.46a1.61,1.61,0,0,1,1.23.06c2.18,1,3.69,2.61,5.61,4a10.11,10.11,0,0,1,2.33,2.24,9.17,9.17,0,0,1,.9,1.69,6.12,6.12,0,0,1,1.85,3.14,1.54,1.54,0,0,1,.21,1.1C536,647.41,535.08,650.19,532.72,651.05Z" transform="translate(-173 -14.57)"/><path class="cls-17" d="M640.41,762.58c-6-3-10.54-11.93-9.44-18.51.22-1.31.69-2,2.11-2,5.47-.29,14.68,6.26,16.14,11.57a2.14,2.14,0,0,1-1.15.71c-3.29-.21-4.11-3.82-6.8-4.92-1.57-.64-3.09-2.47-4.75-1s-.16,3.25.28,4.89c.84,3.11,4.52,4.66,4.48,8.24A2.23,2.23,0,0,1,640.41,762.58Z" transform="translate(-173 -14.57)"/><path class="cls-17" d="M632.55,570.25a2.39,2.39,0,0,1-.18-.44c-.38-2.15-1.57-4.74.33-6.27,1.69-1.37,4,.18,5.84,1,4.92,2.11,10.14,4,11.84,10.07.82,3,1,5.68-1.24,8s-5,2.51-7.86,1.17a2.23,2.23,0,0,1-.37-1.25,2.34,2.34,0,0,1,1.2-1.41c5.27-2.63,5.69-6.31.92-9.8-2.26-1.65-4.71-3.58-7.83-1.6A9.72,9.72,0,0,1,632.55,570.25Z" transform="translate(-173 -14.57)"/><path class="cls-8" d="M613.34,658.91c-.5,1.42-1.47,1.56-2.51.61-2.1-1.91-4.14-3.9-6.13-5.94-.88-.91-1.11-2,.4-2.61C606.31,650.51,613.51,657.48,613.34,658.91Z" transform="translate(-173 -14.57)"/><path class="cls-8" d="M652.37,654.73c1.39,0,8.29,6.82,8.11,7.88s-1.09,1.86-2,1a84.56,84.56,0,0,1-7.06-7C650.68,655.86,651.49,655,652.37,654.73Z" transform="translate(-173 -14.57)"/><path class="cls-8" d="M643.19,646.3c-.27.8-.65,1.4-1.67,1.22s-7.58-6.7-7.61-7.63a1.31,1.31,0,0,1,1.41-1.49C636.5,638.37,643.28,645.22,643.19,646.3Z" transform="translate(-173 -14.57)"/><path class="cls-8" d="M604.67,605.76a3,3,0,0,1-.47,1c-.72.76-1.49.35-2.07-.2q-3.12-2.93-6.13-6a1.46,1.46,0,0,1-.27-2.1,1.75,1.75,0,0,1,1.21-.5C597.92,598,604.53,604.54,604.67,605.76Z" transform="translate(-173 -14.57)"/><path class="cls-8" d="M623.91,625c-.1,1.09-.94,2-1.82,1.22a67.35,67.35,0,0,1-7.14-6.89c-.89-1-.22-2.14,1.36-2C617.38,617.38,623.87,624,623.91,625Z" transform="translate(-173 -14.57)"/><path class="cls-8" d="M597,641.36a3,3,0,0,1-.47,1c-.72.76-1.49.34-2.07-.2q-3.1-2.92-6.13-5.95a1.48,1.48,0,0,1-.27-2.11,1.76,1.76,0,0,1,1.21-.49C590.22,633.62,596.83,640.13,597,641.36Z" transform="translate(-173 -14.57)"/><path class="cls-8" d="M580.17,580.64c1.34,0,8.27,6.72,8.14,7.83s-1,1.91-1.94,1.13a83.06,83.06,0,0,1-7.1-6.94C578.5,581.8,579.33,581,580.17,580.64Z" transform="translate(-173 -14.57)"/><path class="cls-8" d="M632.59,678c-.35,1.42-1.3,1.81-2.38.83-2.24-2-4.41-4.08-6.45-6.29-.93-1-.62-2.14.88-2.41C625.75,669.94,632.62,676.83,632.59,678Z" transform="translate(-173 -14.57)"/><path class="cls-8" d="M672.5,671.08c1.32-.08,8.27,6.67,8.17,7.8s-1,1.94-1.91,1.18a84.55,84.55,0,0,1-7.11-6.93C670.85,672.25,671.7,671.43,672.5,671.08Z" transform="translate(-173 -14.57)"/><path class="cls-8" d="M650.45,700.47c-1.19-.13-7.85-6.62-7.85-7.58,0-1.54,1-2.17,2.13-1.22a69.25,69.25,0,0,1,6.76,6.62C652.4,699.32,651.78,700.35,650.45,700.47Z" transform="translate(-173 -14.57)"/><path class="cls-18" d="M546,708.74c-.16,1.35-1.1,2-2.2,1a67,67,0,0,1-6.7-6.67c-.91-1.05-.28-2.13,1.29-2.08C539.39,701,545.88,707.61,546,708.74Z" transform="translate(-173 -14.57)"/><path class="cls-8" d="M661.26,707.68c1.22.14,7.86,6.61,7.83,7.59,0,1.53-1,2.16-2.13,1.19a68.25,68.25,0,0,1-6.76-6.63C659.28,708.78,660,707.78,661.26,707.68Z" transform="translate(-173 -14.57)"/><path class="cls-8" d="M561.39,722.25c-.33,1.41-1.26,1.84-2.36.86-2.24-2-4.41-4.08-6.45-6.27-.94-1-.65-2.15.84-2.45C554.5,714.17,561.41,721.05,561.39,722.25Z" transform="translate(-173 -14.57)"/><path class="cls-8" d="M689.34,731.87c-.3,1.39-1.22,1.85-2.33.87-2.24-2-4.41-4.08-6.46-6.27-.95-1-.66-2.14.82-2.46C682.43,723.78,689.35,730.65,689.34,731.87Z" transform="translate(-173 -14.57)"/><path class="cls-8" d="M567.67,728.82c1.27,0,8,6.47,8.08,7.49.08,1.48-.83,2.33-2,1.38a69.33,69.33,0,0,1-6.82-6.57C565.93,730,566.69,729.16,567.67,728.82Z" transform="translate(-173 -14.57)"/><path class="cls-6" d="M604.45,756.74c1.07,0,8.66,5.53,8.76,6.44.17,1.53-.75,2.28-2,1.5a64.86,64.86,0,0,1-7.66-5.61C602.5,758.15,603.1,757.06,604.45,756.74Z" transform="translate(-173 -14.57)"/><path class="cls-14" d="M542.32,568.83c-2.23-.29-4.45-.57-6.67-.87-.85-.12-1.64-.52-1.68-1.42a1.38,1.38,0,0,1,1.59-1.4c3,.26,6.05.6,9.05,1,.83.12,1.54.78,1.11,1.71C545,569.39,543.53,568.74,542.32,568.83Z" transform="translate(-173 -14.57)"/><path class="cls-14" d="M567.33,570.76c-2.22-.29-4.45-.57-6.67-.88-.85-.11-1.64-.51-1.68-1.41a1.38,1.38,0,0,1,1.59-1.41q4.54.39,9.06,1c.82.11,1.54.77,1.1,1.7C570,571.32,568.54,570.67,567.33,570.76Z" transform="translate(-173 -14.57)"/><path class="cls-14" d="M545.83,618c2.52.33,4.75.61,7,.91.85.11,1.69.52,1.68,1.41,0,1.21-1,1.52-2.05,1.44-2.23-.19-4.46-.44-6.68-.73-1.21-.15-3.11.07-3-1.56C542.77,617.32,544.86,618.31,545.83,618Z" transform="translate(-173 -14.57)"/><path class="cls-14" d="M570.83,619.94c2.23.28,4.3.52,6.36.82,1.08.16,2.52.22,2.24,1.79s-1.71,1.22-2.79,1.12c-2.07-.17-4.14-.44-6.2-.74-1.18-.18-3,0-2.69-1.82C568,619.42,569.79,620.09,570.83,619.94Z" transform="translate(-173 -14.57)"/><path class="cls-7" d="M400.76,467c2.93,2.14,6.37,3.72,8.37,6.82.78,1.21-.78,2.09-1.93,1.32-2.63-1.75-5.1-3.75-7.6-5.7a1.15,1.15,0,0,1-.15-1.69C399.7,467.38,400.21,467.26,400.76,467Z" transform="translate(-173 -14.57)"/><path class="cls-7" d="M426.09,531.39c2.66,2.14,5.38,4.3,8,6.52a1.33,1.33,0,0,1,0,1.27c-.43.34-1.31.72-1.6.52-2.72-1.92-5.37-3.92-8-6a1.06,1.06,0,0,1,.05-1.67A6.77,6.77,0,0,1,426.09,531.39Z" transform="translate(-173 -14.57)"/><path class="cls-7" d="M425.7,485.4c-.27,1.61-1.26,2-2.36,1.15-2.69-2.11-6.13-3.38-7.78-6.68-.09-.19.54-1.05.76-1,3.69.47,5.75,3.6,8.6,5.46C425.28,484.54,425.46,485.05,425.7,485.4Z" transform="translate(-173 -14.57)"/><path class="cls-7" d="M449.75,551.17c-.29.84-1,1.58-1.73,1.07-2.75-1.86-5.39-3.88-8-5.89a1.19,1.19,0,0,1-.13-1.71,1.21,1.21,0,0,1,1.68-.4c2.68,2,5.3,4,7.91,6.06C449.65,550.45,449.65,550.87,449.75,551.17Z" transform="translate(-173 -14.57)"/><path class="cls-7" d="M520,558.8c-.48,1.46-1.46,1.59-2.56.79-2.32-1.67-4.59-3.4-6.85-5.14a1.46,1.46,0,0,1-.53-2.06,1.18,1.18,0,0,1,1.65-.47c2.68,2,5.31,4,7.94,6C519.86,558.1,519.89,558.5,520,558.8Z" transform="translate(-173 -14.57)"/><path class="cls-7" d="M432.43,491.08a37.75,37.75,0,0,1,8.49,6.55c.19.21,0,.92-.18,1.27a1.14,1.14,0,0,1-1.66.37c-2.58-1.85-5.19-3.67-7.61-5.71C430.36,492.62,430.8,491.58,432.43,491.08Z" transform="translate(-173 -14.57)"/><path class="cls-7" d="M468.05,563.65c-.47,1.24-1.31,1.58-2.27.91-2.46-1.74-4.86-3.56-7.24-5.4a1.36,1.36,0,0,1-.35-2.06,1.21,1.21,0,0,1,1.7-.32q3.86,2.78,7.6,5.71C467.81,562.73,467.89,563.29,468.05,563.65Z" transform="translate(-173 -14.57)"/><path class="cls-7" d="M531.62,695.06c-.31,1.36-1.12,2.16-2,1.29a27.9,27.9,0,0,1-6.23-8.28c-.45-1,.76-2.08,1.63-1.36C527.81,689,529.77,692.12,531.62,695.06Z" transform="translate(-173 -14.57)"/><path class="cls-7" d="M451,503.44c2.67,2.13,5.4,4.27,8.07,6.48a1.4,1.4,0,0,1,.1,1.29c-.28.58-1,1.05-1.56.63-2.71-1.91-5.37-3.9-8-5.92a1.11,1.11,0,0,1-.09-1.68A5.65,5.65,0,0,1,451,503.44Z" transform="translate(-173 -14.57)"/><path class="cls-7" d="M368.93,443.9c3,2,6.11,3.84,8.5,6.64.18.22,0,.92-.23,1.26a1.15,1.15,0,0,1-1.68.3c-2.57-1.86-5.17-3.68-7.58-5.73C366.8,445.39,367.43,444.42,368.93,443.9Z" transform="translate(-173 -14.57)"/><path class="cls-7" d="M594.05,749.18c-.12.91-.74,1.68-1.54,1.3a31,31,0,0,1-8.32-6.21c-.66-.65-.29-1.5.59-1.88C585.9,741.91,594,747.88,594.05,749.18Z" transform="translate(-173 -14.57)"/><path class="cls-7" d="M471.59,519.06c1.15-.12,8.93,5.83,8.9,6.85,0,1.23-1,1.86-1.9,1.25a82.72,82.72,0,0,1-7.91-6C469.77,520.31,470.54,519.4,471.59,519.06Z" transform="translate(-173 -14.57)"/><path class="cls-7" d="M480.62,571.91c2.91,1.92,6,3.79,8.42,6.59.18.22,0,.92-.23,1.26a1.15,1.15,0,0,1-1.68.3c-2.57-1.86-5.18-3.67-7.58-5.73C478.43,573.37,478.94,572.34,480.62,571.91Z" transform="translate(-173 -14.57)"/><path class="cls-7" d="M501.16,588.17c2.66,2.15,5.38,4.31,8,6.54a1.29,1.29,0,0,1-.07,1.26c-.43.33-1.32.7-1.61.49-2.71-1.93-5.36-3.94-8-6a1,1,0,0,1,.09-1.66A6.48,6.48,0,0,1,501.16,588.17Z" transform="translate(-173 -14.57)"/><path class="cls-7" d="M526.78,613.18c-2.67-2.13-5.4-4.27-8.06-6.49-.23-.19-.22-1,0-1.29a1.13,1.13,0,0,1,1.59-.59c2.7,1.93,5.35,3.93,8,6a1.08,1.08,0,0,1,0,1.67A5.6,5.6,0,0,1,526.78,613.18Z" transform="translate(-173 -14.57)"/><path class="cls-7" d="M385.66,455.37c2.66,2.14,5.38,4.29,8,6.52a1.28,1.28,0,0,1,0,1.27c-.43.34-1.31.74-1.6.53-2.72-1.9-5.37-3.91-8-5.95a1.08,1.08,0,0,1,0-1.68A6.89,6.89,0,0,1,385.66,455.37Z" transform="translate(-173 -14.57)"/><path class="cls-7" d="M500.76,542.48c-.47,1.24-1.31,1.59-2.27.91-2.46-1.74-4.86-3.56-7.24-5.4a1.36,1.36,0,0,1-.35-2.06,1.2,1.2,0,0,1,1.7-.31c2.57,1.85,5.1,3.76,7.61,5.7C500.52,541.57,500.6,542.12,500.76,542.48Z" transform="translate(-173 -14.57)"/><path class="cls-19" d="M641.4,582.64l-.12,1.11c-6-2.52-8-7.59-8.73-13.5l1-2.3a2.15,2.15,0,0,1,1.92,1.18c1.58,4,3.25,7.84,5.95,11.2C641.89,581,641.52,581.86,641.4,582.64Z" transform="translate(-173 -14.57)"/><path class="cls-17" d="M648.25,753.62h1a6.24,6.24,0,0,1-1,7.9c-2.22,2.39-5,2.6-7.84,1.07l0-1.12A30.8,30.8,0,0,0,648.25,753.62Z" transform="translate(-173 -14.57)"/><path class="cls-20" d="M437.31,89.86c10.39,10.91,13.85,24.31,14.65,38.93.81,14.92-1.53,29.4-5.27,43.68-2.1,8-6.46,15.17-11.52,21.46-8.26,10.25-18.24,18.78-29.2,26.25-19.72,13.44-41.89,20.46-64.77,25.84a6.65,6.65,0,0,1-2.81,0c-28.6-6.1-55.23-16.63-77.9-35.58-11.29-9.44-21-20.5-26.32-34.36-3.07-8-4.69-16.7-5.77-25.24-2.27-18-1.45-35.85,6.86-52.5,1.6-3.21,4.55-5.74,6.87-8.57l9.69-.89c5.29,1.51,10.84,1.1,16.18,2.27,1.4.31,2.82.25,3.61,1.7.77,2.41-1.31,3.27-2.45,4.73-10.06,12.85-11,37.24,10.48,43.43,9.24,2.67,20.36-1.22,25.77-9.25,1.15-1.71,2-3.64,3.64-5,2.38-.71,3.49,1,4.51,2.56a78.75,78.75,0,0,1,5.68,9.14c3.37,3.81,4.73,8.8,7.66,12.87v0c1.91,3.56,3.61,6.74,2.67,11.44s2.21,9.37,4.11,13.87c2.36,4.24,3,9.37,6.79,12.83a8,8,0,0,0,1,0c1.84-.75,2.46-2.46,3.2-4,3.19-6.68,7.14-13,9.15-20.23a4.62,4.62,0,0,0,.7-2.95c-2-3.88-1-7.35,1.46-10.63,2-2.68,3.57-5.67,5.83-8.17,2.28-8.2,8.44-13.66,13.86-19.64,2.38.27,2.48.23,3.71,3.31,2.65,6.66,7.36,10.95,14.09,13.42,9.34,3.43,17.75,1.16,24.43-5.22s9.18-14.58,6.14-23.74c-1-3.1-1.09-6.43-2.51-9.41a14.85,14.85,0,0,0-5.84-6.17c-1.38-.85-3.05-1.76-2.52-3.63s2.45-.85,3.75-1.09a1.8,1.8,0,0,0,1.23-.59c1.78-1.31,3.9-1.44,6-1.7C428.45,90.07,433,88.37,437.31,89.86Z" transform="translate(-173 -14.57)"/><path class="cls-20" d="M330.64,73.44c1.32.86,2.71,1.64,3.95,2.6,3.7,2.88,7.2,2.78,10.59-.48,10.09-8.12,21.29-14,34.09-16.48a11,11,0,0,1,7.45.78c2.31,1.18,2.49,2.68.65,4.46-2.05,3.64-5.5,6.07-8.07,9.26-1.12,3.34-5.4,4.29-6.05,8l-4,3.39c-1.91,3.77-4.8,6.8-7.54,9.94-5.86,7.42-10.07,16-16.37,23.11-2.93,4.21-3.44,4.31-6.2.2C332.83,108.82,325.9,100,319,91.05c-4.73-5.81-8.37-12.48-14.07-17.51a57.41,57.41,0,0,0-9-10.81c.35-3.83,1.31-4.48,5.57-3.22C312,62.61,322.08,66.39,330.64,73.44Z" transform="translate(-173 -14.57)"/><path d="M386.49,110c1.75-3.53,4.74-5.89,7.76-8.22a2.92,2.92,0,0,0,2.3,0c8.23-2.92,16.18-.22,20.14,6.79,4.63,8.21,3.11,18.06-3.62,23.55a18,18,0,0,1-29-8.81c-1.18-3.81-.31-7.25,1.22-10.68C385.53,111.65,387,111.24,386.49,110Z" transform="translate(-173 -14.57)"/><path d="M289.26,101.34c3.77,3.81,7.57,7.59,11.28,11.46,1,1.08,2.57,2,2.22,3.91,2.13,6-.35,10.74-4.45,14.63A17.1,17.1,0,0,1,281,135.67a18.16,18.16,0,0,1-13.18-16.54c-.43-7.62,4.09-14.34,11.36-17.85C282.75,99.55,285.91,101.29,289.26,101.34Z" transform="translate(-173 -14.57)"/><path class="cls-21" d="M386.65,111.83c-4.72,12.78,5.86,24,17.43,22a15.85,15.85,0,1,0-6.5-31c-2.56.58-2.56.58-3.33-1,.21-.79.59-1,1.27-.42,3.54-3.34,7.23-6.43,12.31-7.15,5.78-.32,10.16,2.8,12.77,7.18,4.2,7.06,7.17,14.78,4.38,23.36-3.64,11.13-12.48,17.93-23.4,18-11.32,0-20-6.54-23.76-18C377.9,119.58,382,113.63,386.65,111.83Z" transform="translate(-173 -14.57)"/><path class="cls-21" d="M289.26,101.34c-1.42.85-3,.85-4.6,1-8.63,1-14.77,7.76-14.59,16.11a16,16,0,0,0,14.27,15.47c8.27.82,15.5-4.77,17.26-13.28.28-1.34-.29-3,1.16-4a30.6,30.6,0,0,1,6.75,6.69c-1.29,12-15.94,21.72-28.12,19-16.05-3.61-24.18-20.2-18-34.39,2.2-5,4.49-9.54,9.52-12.16,2.53-1.32,5.07-1.92,7.71-.3C283.67,97.25,286.81,98.78,289.26,101.34Z" transform="translate(-173 -14.57)"/><path class="cls-2" d="M386.42,64.73c.9-1.21,2.05-2.4-.54-3.06a13.33,13.33,0,0,0-7.09,0C369.37,64.35,360,67,351.64,72.41a56.73,56.73,0,0,1-6.46,3.15c11.62-12.2,25.31-20.48,42.38-22.25a20.16,20.16,0,0,1,9.37,1.76L386.6,66.2A1,1,0,0,1,386.42,64.73Z" transform="translate(-173 -14.57)"/><path class="cls-22" d="M378.7,124.44c4.1,11.72,13.82,18.36,25.11,17.16a23.9,23.9,0,0,0,21-20.54c1.38-11.5-5.19-21.32-17.13-25.59-.48-.76-2.47.1-1.91-1.77,3.68-2.85,8-3.28,12.39-3.07-.4,2.06-2.71.25-3.43,1.69,9.28,5.83,14.56,21.76,11.05,33.28a25.29,25.29,0,0,1-25.08,18c-10.75-.47-18.36-5.89-22.87-15.67-.65-1.42-.63-3.2-2.15-4.17-.14-1,.52-1.63,1.22-2.2C379.43,121.28,377.52,123.84,378.7,124.44Z" transform="translate(-173 -14.57)"/><path class="cls-23" d="M280.64,95.54a22.74,22.74,0,0,0-18.24,21.19,23.53,23.53,0,0,0,44,13c1.15-2.06,2.11-4.22,3.16-6.34l2.47,2.88c-.56.87-1.88.16-2.38,1.16-6.15,13.67-20,19.64-33.24,14.32-12.94-5.19-18.89-19-14.17-33a14.22,14.22,0,0,0,1-4.16c.13-5.45,2.93-8.93,7.73-11.06.45-.87.8-1.85,2-1.87A10.46,10.46,0,0,1,280.64,95.54Z" transform="translate(-173 -14.57)"/><path class="cls-2" d="M330.64,73.44c-9.53-4.92-19.24-9.39-29.8-11.68-1.75-.38-3.74-1.76-4.9,1a29.75,29.75,0,0,1-5.72-6.54c2.46-1.69,5.15-.59,7.43,0C309.89,59.5,321.82,63.53,330.64,73.44Z" transform="translate(-173 -14.57)"/><path class="cls-24" d="M331.52,177.43c-1.63-3.8-3.22-7.61-4.91-11.39-1.21-2.72-2.21-5,1-7.47s-1.5-4.73-.73-7.31c2.55.64,1.36,5.7,5.4,4.59a1.54,1.54,0,0,1,.95.9c.08.31.24.73.08.92-4.16,4.92-2.66,9.84-.13,14.82.65,1.26,1.09,2.66.18,4.06A2.21,2.21,0,0,1,331.52,177.43Z" transform="translate(-173 -14.57)"/><path class="cls-25" d="M345.25,119.2l-.24-1.71L361.37,94.4a1.25,1.25,0,0,1,.24,1.7C355.93,103.64,351.51,112.07,345.25,119.2Z" transform="translate(-173 -14.57)"/><path class="cls-26" d="M361.79,143.39c-1.29,3.63-3.9,6.47-5.9,9.68-1.5,2.42-1.8,4.17,1,5.86,1.67,1,3.24,2.5.54,4.28-3-1.25-6.06-2.44-6.26-6.42a1.57,1.57,0,0,1,1-.94c2.73-2.51,4-6.06,6.22-8.89C359.34,145.67,359.76,143.72,361.79,143.39Z" transform="translate(-173 -14.57)"/><path class="cls-24" d="M332.29,155.85a1.59,1.59,0,0,1,.27-.39c12.15-8.56,6.9-9.16,19.53.39l-.46.55c-2.09,2.13-3.94.44-5.5-.64-2.75-1.9-5.13-1.89-7.88,0-1.56,1.08-3.41,2.77-5.5.64C332.6,156.21,332.44,156,332.29,155.85Z" transform="translate(-173 -14.57)"/><path class="cls-27" d="M272.92,91.69l-2,1.87c-3.13-2.85-7.16-2.14-10.85-2.68-2.81-.41-5.79,0-8.22-2C259,89.12,266,89.67,272.92,91.69Z" transform="translate(-173 -14.57)"/><path class="cls-28" d="M319.48,90.59l-1.26.14-13.3-17.19c2.07,0,3,1.56,4.06,2.93C312.51,81.16,316,85.88,319.48,90.59Z" transform="translate(-173 -14.57)"/><path class="cls-29" d="M378.7,124.44l-1.83-2.89c3-4.06,5.31-8.63,9.62-11.58.92.54.79,1.18.16,1.86C382.77,115.26,379,118.76,378.7,124.44Z" transform="translate(-173 -14.57)"/><path class="cls-30" d="M437.31,89.86c-4.38-.6-8.91.91-13.2-.93L447,88.74C444,90.88,440.5,89.24,437.31,89.86Z" transform="translate(-173 -14.57)"/><path class="cls-31" d="M309.6,127.44a2.82,2.82,0,0,1,2.38-1.16,68.54,68.54,0,0,1,7.28,11A1.29,1.29,0,0,1,319,139c-1.84-2.81-3.66-5.62-5.52-8.42C312.55,129.15,311.7,127.52,309.6,127.44Z" transform="translate(-173 -14.57)"/><path class="cls-26" d="M319,139l.23-1.71a53.31,53.31,0,0,1,7.64,14C323,148,322,142.89,319,139Z" transform="translate(-173 -14.57)"/><path class="cls-32" d="M405.74,93.7l1.91,1.77c-5-.1-8.08,3.93-12.13,5.86C397.61,97,402,95.79,405.74,93.7Z" transform="translate(-173 -14.57)"/><path class="cls-25" d="M361.61,96.1l-.24-1.7L369.22,85C368.3,89.77,364.11,92.35,361.61,96.1Z" transform="translate(-173 -14.57)"/><path class="cls-33" d="M386.42,64.73l.18,1.47-6.36,7.4a1,1,0,0,1-1.58-.2Z" transform="translate(-173 -14.57)"/><path class="cls-28" d="M378.66,73.4l1.58.2-7,8C372.86,77.39,377.24,76.38,378.66,73.4Z" transform="translate(-173 -14.57)"/><path class="cls-1" d="M487.43,337.62c-.06,2.73-.93,5.1-3.49,6.35a7.86,7.86,0,0,1-8.15-.73c-7.46-4.85-8.45-12.65-9.29-20.49-.11-1.05.3-1.72,1.62-1.77,6.13-.23,17.53,8.23,19,14.27A16.85,16.85,0,0,1,487.43,337.62Z" transform="translate(-173 -14.57)"/><path class="cls-1" d="M624.05,464.59c0,2.72-.9,5.09-3.45,6.36a7.85,7.85,0,0,1-8.16-.69c-7.48-4.84-8.47-12.63-9.32-20.48-.1-1,.25-1.73,1.59-1.81,6.46-.34,17.88,8.36,19.15,14.71C624,463.3,624,464,624.05,464.59Z" transform="translate(-173 -14.57)"/><path class="cls-1" d="M424.87,304.75c.09,5.74-4.89,8.94-10.25,6.59-6.1-2.67-12.25-15.18-10.67-21.63.21-.85.46-1.35,1.48-1.46,6.75-.68,18.61,8.81,19.37,15.55C424.83,304.12,424.85,304.43,424.87,304.75Z" transform="translate(-173 -14.57)"/><path class="cls-1" d="M565.35,494.37c0,5.53-4.65,8.68-9.9,6.66-6.21-2.38-12.78-15.47-11-21.87.24-.88.57-1.29,1.55-1.36,6.31-.44,17.89,8.38,19.18,14.67A17.22,17.22,0,0,1,565.35,494.37Z" transform="translate(-173 -14.57)"/><path class="cls-1" d="M491.26,260.53c.06,5.54-4.58,8.71-9.85,6.72-6.23-2.35-12.76-15.29-11.07-21.83.22-.87.51-1.33,1.51-1.42,6.6-.57,18.26,8.52,19.3,15.1C491.22,259.57,491.22,260.06,491.26,260.53Z" transform="translate(-173 -14.57)"/><path class="cls-1" d="M448.91,390.92c-3.18-.05-5.92-2.56-8.22-5.44-3.76-4.69-4.29-10.51-5-16.21-.18-1.52.38-2.53,2.22-1.94,7.37,2.36,14.65,4.9,18,12.89C458.19,385.74,455.21,390.9,448.91,390.92Z" transform="translate(-173 -14.57)"/><path class="cls-1" d="M549.11,348.6c-3.5-.08-6.41-2.81-8.81-6.06-3.35-4.54-3.81-10-4.52-15.41-.18-1.35.08-2.79,2-2.18,7.37,2.33,14.68,4.81,18.08,12.76C558.24,343.23,555.44,348.43,549.11,348.6Z" transform="translate(-173 -14.57)"/><path class="cls-1" d="M493.2,445.31c0,2.72-.88,5.1-3.42,6.39a7.84,7.84,0,0,1-8.16-.66c-7.49-4.82-8.49-12.62-9.34-20.47-.11-1,.19-1.75,1.55-1.84,6.32-.41,17.89,8.37,19.18,14.67C493.13,444,493.14,444.67,493.2,445.31Z" transform="translate(-173 -14.57)"/><path class="cls-1" d="M402.75,346.17c.05,5.54-4.6,8.7-9.87,6.71-6.22-2.36-12.77-15.34-11.05-21.85.23-.87.52-1.32,1.52-1.4,6.65-.54,18.25,8.52,19.28,15.11C402.71,345.22,402.71,345.7,402.75,346.17Z" transform="translate(-173 -14.57)"/><path class="cls-1" d="M552.85,407.81a6.13,6.13,0,0,1-3.28,5.32,7.52,7.52,0,0,1-7.75-.26c-5.71-3.34-8.16-8.72-9.13-15-1.35-8.75-1.32-8.76,7-5.58C547.35,395.26,552.7,401.1,552.85,407.81Z" transform="translate(-173 -14.57)"/><path class="cls-1" d="M658.79,629.27c-.13,4.09-3.35,6.19-7.34,4.79-4.77-1.68-9.92-11.66-8.54-16.45a1.44,1.44,0,0,1,1.22-1.2C649.43,615.41,659,623.75,658.79,629.27Z" transform="translate(-173 -14.57)"/><path class="cls-1" d="M608.67,692.81c0,4.26-3.64,6.49-7.7,4.78-4.56-1.91-9.45-11.54-8.28-16.24a1.52,1.52,0,0,1,1.15-1.32C598.83,678.81,608.75,687.35,608.67,692.81Z" transform="translate(-173 -14.57)"/><path class="cls-1" d="M648.25,753.62c1,6.88-1.17,9-7.81,7.84-5.19-3.48-7.12-8.63-7.64-14.59-.25-2.88.87-3.27,3.3-2.47C641.23,746.09,645.65,748.64,648.25,753.62Z" transform="translate(-173 -14.57)"/><path class="cls-1" d="M641.4,582.64c-5.35-3.44-7.22-8.74-7.87-14.69.12-1.56-.14-3.54,2.49-2.66,4.69,1.56,9.31,3.25,12,7.89,1.44,2.47,2.11,5.07.56,7.64C646.87,583.65,644.15,583.43,641.4,582.64Z" transform="translate(-173 -14.57)"/><path class="cls-34" d="M332.75,156.4q9.44-9.39,18.88,0c1.5,2.63,5.91,2.8,5.76,6.82l-.75,2q-7.68,15.47-15.46,30.87c-1.63-.53-1.7-2.12-2.31-3.36a56.33,56.33,0,0,1-6.54-16.29c-1.3-3.21-2.38-6.54-3.95-9.61-1.9-3.72-1.73-6.52,2.29-8.54A10.65,10.65,0,0,0,332.75,156.4Z" transform="translate(-173 -14.57)"/><path class="cls-35" d="M249.19,183a5.94,5.94,0,0,1-1.55-.92,1.44,1.44,0,0,1,.18-2.14,43.1,43.1,0,0,1,10.25-6.07c.4-.16,1.25.29,1.63.7a1.42,1.42,0,0,1-.16,2.13A60.26,60.26,0,0,1,249.19,183Z" transform="translate(-173 -14.57)"/><path class="cls-35" d="M421.82,173.81c3.3,1.79,6.89,3.54,10,6.13a1.46,1.46,0,0,1,.13,2.15,1.83,1.83,0,0,1-2.57.36c-2.9-1.69-5.8-3.38-8.65-5.15a1.92,1.92,0,0,1-1.05-2.41C420,174.05,420.69,173.75,421.82,173.81Z" transform="translate(-173 -14.57)"/><path class="cls-35" d="M276.49,157.43a5.66,5.66,0,0,1-1.3,1.61c-2.84,1.78-5.75,3.46-8.65,5.15a1.81,1.81,0,0,1-2.56-.42,1.64,1.64,0,0,1,.52-2.49c3.11-1.94,6.25-3.85,9.48-5.59C275.16,155.05,276.11,155.75,276.49,157.43Z" transform="translate(-173 -14.57)"/><path class="cls-35" d="M258.64,198.4a5.4,5.4,0,0,1-1.47-1.11,1.7,1.7,0,0,1,.73-2.46c3-1.86,6-3.64,9.05-5.4a1.73,1.73,0,0,1,2.2.26,1.41,1.41,0,0,1,.17,2.13C266.22,194.63,262.49,196.43,258.64,198.4Z" transform="translate(-173 -14.57)"/><path class="cls-35" d="M443.31,154.81c-3.22-1.83-6.87-3.49-9.88-6.16a1.46,1.46,0,0,1,0-2.15,1.64,1.64,0,0,1,2.17-.41c3.17,1.84,6.33,3.71,9.43,5.67a1.59,1.59,0,0,1,.57,2.12C445.18,154.7,444.48,155,443.31,154.81Z" transform="translate(-173 -14.57)"/><path class="cls-35" d="M266.44,209.76c.34-.44.68-1.24,1.28-1.61,2.84-1.79,5.74-3.47,8.64-5.16a1.83,1.83,0,0,1,2.58.36,1.63,1.63,0,0,1-.46,2.5c-3.11,2-6.25,3.86-9.47,5.62C267.82,212.11,266.88,211.43,266.44,209.76Z" transform="translate(-173 -14.57)"/><path class="cls-35" d="M401.53,202.65c3.4,1.83,7.18,3.56,10.24,6.44a1.9,1.9,0,0,1,0,1.74,1.69,1.69,0,0,1-2.5.53q-4.56-2.64-9-5.41a1.77,1.77,0,0,1-.84-2.07C399.65,203,400.32,202.64,401.53,202.65Z" transform="translate(-173 -14.57)"/><path class="cls-35" d="M236.27,154.81c-1.18.16-1.87-.12-2.28-.93a1.59,1.59,0,0,1,.57-2.12c3.1-2,6.26-3.83,9.43-5.67a1.64,1.64,0,0,1,2.17.41,1.46,1.46,0,0,1,0,2.15C243.14,151.32,239.48,153,236.27,154.81Z" transform="translate(-173 -14.57)"/><path class="cls-35" d="M415.94,162.81c-.31,1.62-1.38,2.17-2.77,1.41-3.07-1.69-6.08-3.52-9.05-5.39a1.66,1.66,0,0,1-.67-2.46c.31-.43,1.18-1,1.55-.8a36.86,36.86,0,0,1,10.61,6.32C415.81,162.06,415.82,162.46,415.94,162.81Z" transform="translate(-173 -14.57)"/><path class="cls-35" d="M246.81,133.33a9.12,9.12,0,0,1-1.61,1.78c-2.71,1.7-5.48,3.31-8.24,4.91-1.07.62-2.14.75-2.92-.48a1.51,1.51,0,0,1,.45-2.13c3.24-2,6.5-4,9.88-5.83C245.63,130.91,246.3,132.1,246.81,133.33Z" transform="translate(-173 -14.57)"/><path class="cls-35" d="M251.57,162.05c-.35.52-.57,1.22-1,1.51-3,1.87-6,3.67-9,5.45a1.78,1.78,0,0,1-2.55-.45,1.65,1.65,0,0,1,.56-2.49c3.11-1.94,6.26-3.84,9.49-5.59C250.25,159.81,251,160.75,251.57,162.05Z" transform="translate(-173 -14.57)"/><path class="cls-35" d="M440.94,167.69c-.15,1.16-1,2-1.94,1.57-3.83-1.61-7.63-3.43-10.5-6.48a1.47,1.47,0,0,1,1.61-2.36,32.23,32.23,0,0,1,10.57,6.37C440.88,167,440.86,167.38,440.94,167.69Z" transform="translate(-173 -14.57)"/><path class="cls-35" d="M445.77,138.76c-.32,1.61-1.39,2.17-2.77,1.41-3.08-1.69-6.08-3.53-9.06-5.39a1.66,1.66,0,0,1-.67-2.46c.32-.44,1.19-.95,1.55-.81a37.36,37.36,0,0,1,10.62,6.32C445.64,138,445.65,138.41,445.77,138.76Z" transform="translate(-173 -14.57)"/><path class="cls-35" d="M422.68,196.32c-.09,1.36-1,2.29-2.17,1.76a38.84,38.84,0,0,1-10.18-6.18,2,2,0,0,1-.21-1.73,1.43,1.43,0,0,1,1.95-.91,44.72,44.72,0,0,1,10.19,6.18C422.48,195.62,422.53,196,422.68,196.32Z" transform="translate(-173 -14.57)"/><path class="cls-16" d="M341.18,196.11c.4-4.27,3.05-7.6,4.94-11.2,3.45-6.59,6.16-13.57,10.52-19.67-.62,4.88-3.58,8.76-5.74,12.94C347.78,184.22,345.36,190.65,341.18,196.11Z" transform="translate(-173 -14.57)"/><path class="cls-36" d="M332.33,176.46l6.54,16.29c-4.25-4.24-5-10.17-7.35-15.32Z" transform="translate(-173 -14.57)"/><path class="cls-37" d="M239,88.36l-8.15-1.49-5.57-6v-10l.82-3,3.12-6.65,8.69-7.88,9.64-6.93,11-5.56,13,1.08,4.08,3.26s9.37,7.74,10.05,7.74,21.73,25,21.73,25L323.18,98l15.49,23.91,2.17.4,1.63-1,10.59-15.07,7.34-9.24,25-31s11.54-10.46,11.95-10.87,3.12-4.48,3.12-4.48l9-7.33,7.19-2.58,6.52.54,3.67,1.08,9.24,4.76L443,52.1l8,6.25,4.61,5.84,1.5,6.11v7.87l-1.36,6.12-6,3.66H438.9l-12.36,1.77-12.63.54-4.08,1.9-9.23,5.3-9.1,7.2-10.05,12.49-7.61,9.92-6.52,7.6-15.07,23.77-11-7.6L329,160.21l-22.68-37.08-20.51-22.41L274,92.57l-23.1-3.13-7.19-.54" transform="translate(-173 -14.57)"/><path d="M238.5,88.82c1.85.25,3.71.49,5.57.7.63.07.63-.93,0-1-1.77-.2-3.54-.42-5.3-.67-.63-.08-.9.88-.27,1Z" transform="translate(-173 -14.57)"/><path class="cls-20" d="M341.86,120.39c-2-1.4-3-3.24-4.24-5.25-1-1.57-2.14-3-3.15-4.61-2.15-3.34-5-6.39-7.37-9.61-.38-.51-1.25,0-.86.5,2.62,3.57,5.93,7,8.09,10.88,1,1.77,2.25,3.4,3.33,5.12a13.6,13.6,0,0,0,3.69,3.83c.53.37,1-.5.51-.86Z" transform="translate(-173 -14.57)"/><path class="cls-20" d="M327.26,100.91c-2.14-2.86-4.86-5.72-6.31-9a5.49,5.49,0,0,0-1.31-2,12.16,12.16,0,0,1-2.81-4.09c-.25-.59-1.11-.08-.86.5,1.07,2.52,2.95,4.32,4.28,6.62a88.55,88.55,0,0,0,6.15,8.43c.38.51,1.25,0,.86-.51Z" transform="translate(-173 -14.57)"/><path class="cls-20" d="M317.45,86.22c-1.44-.8-2.12-2.44-3-3.74a26.89,26.89,0,0,0-2.55-3.08c-2.07-2.27-4.15-4.5-6.09-6.88-.4-.5-1.11.21-.7.7,2.11,2.6,4.42,5,6.65,7.51,1.7,1.89,2.89,5.09,5.18,6.35.57.31,1.07-.55.51-.86Z" transform="translate(-173 -14.57)"/><path class="cls-20" d="M319.51,90.61a40.07,40.07,0,0,1-2.82-4.09,19.88,19.88,0,0,0-2.66-4c-2.79-3.4-5.63-6.76-8.44-10.14-.41-.5-1.12.21-.71.7q3.92,4.71,7.84,9.43a22.51,22.51,0,0,1,3.1,4.52c.81,1.65,1.86,2.57,2.83,4.08.35.54,1.21,0,.86-.5Z" transform="translate(-173 -14.57)"/><path class="cls-20" d="M316.45,86.26a73.14,73.14,0,0,0-6-7.05c-1-1.12-2-2.18-3-3.28s-1.67-2.61-2.67-3.82c-.41-.5-1.12.22-.71.71.93,1.12,1.41,2.46,2.4,3.54s1.94,1.94,2.83,3c2.08,2.52,4.4,4.67,6.26,7.39.36.53,1.23,0,.87-.5Z" transform="translate(-173 -14.57)"/><path class="cls-20" d="M316.13,85.88A11.2,11.2,0,0,1,314,82.94a18.44,18.44,0,0,0-2.23-2.82c-.44-.47-1.15.24-.71.7a18.11,18.11,0,0,1,2.46,3.26,8.79,8.79,0,0,0,1.95,2.5c.49.41,1.2-.3.7-.7Z" transform="translate(-173 -14.57)"/><path class="cls-20" d="M341.22,120.4c-.38.46-2.37-1.93-2.61-2.26A16.5,16.5,0,0,1,337,115a10.65,10.65,0,0,0-2.69-4.1c-.49-.42-1.2.29-.71.71,2.3,2,2.58,5.11,4.41,7.41.71.88,2.6,3.62,3.89,2,.41-.49-.29-1.2-.7-.71Z" transform="translate(-173 -14.57)"/><path class="cls-20" d="M337.26,116.16c-2-2.57-2.92-5.72-5.09-8.17A53.33,53.33,0,0,1,326,99.5a.5.5,0,0,0-.86.5,41,41,0,0,0,5.28,7.56c2.59,2.77,3.75,6.15,6,9.11.38.5,1.25,0,.86-.51Z" transform="translate(-173 -14.57)"/><path class="cls-20" d="M305.09,72.13c-1.57-1.35-2.62-3.32-4-4.89a56.3,56.3,0,0,0-4.55-5c-.48-.43-1.19.27-.71.71a56.54,56.54,0,0,1,4.56,5c1.36,1.59,2.37,3.52,4,4.89.48.42,1.19-.29.71-.71Z" transform="translate(-173 -14.57)"/><path class="cls-20" d="M340.49,120.39c-.65.81-4.78-5.67-5.22-6.41-1.32-2.25-2.78-4.37-4.09-6.61a.5.5,0,0,0-.86.5c2.07,3.56,4.26,7.13,6.66,10.5.71,1,2.71,4.62,4.22,2.73.4-.5-.31-1.21-.71-.71Z" transform="translate(-173 -14.57)"/><path class="cls-20" d="M419.76,91.72a2.61,2.61,0,0,0-2.4-.84c-.9.22-2.08.15-2.67,1-.36.48.38,1,.79.61.91-.79,2.14-.4,3.23-.69a.51.51,0,0,0,0-1,2.4,2.4,0,0,0-1.38,0c-.62.13-.36,1.1.27,1a1.13,1.13,0,0,1,.85.06v-1a15.38,15.38,0,0,1-2,.15,3.16,3.16,0,0,0-1.66.8l.78.61c.19-.26,1.38-.3,1.69-.38a1.62,1.62,0,0,1,1.81.46c.48.43,1.19-.28.71-.7Z" transform="translate(-173 -14.57)"/><path class="cls-36" d="M337.13,190.66a26.72,26.72,0,0,0,1.62,4.38,2.57,2.57,0,0,0,2.08,1.59c.63.08.9-.88.27-1-1-.13-1.37-.85-1.73-1.71-.49-1.16-.9-2.35-1.28-3.55-.19-.61-1.15-.35-1,.26Z" transform="translate(-173 -14.57)"/><path class="cls-36" d="M341.5,195c0-.07-.25.18-.3.22l-.51.44c-.49.42.22,1.13.7.71s1.2-.84,1.07-1.64c-.09-.63-1.06-.36-1,.27Z" transform="translate(-173 -14.57)"/><path class="cls-36" d="M342.2,192.86a6.24,6.24,0,0,1-.34,1.06,6.32,6.32,0,0,0-.47.79c-.21.61.75.88,1,.27.1-.28.36-.51.48-.79s.23-.71.34-1.06a.5.5,0,0,0-1-.27Z" transform="translate(-173 -14.57)"/><path class="cls-26" d="M357.2,161.28c.8,2.74-1.62,5.28-2.7,7.65-.26.58.6,1.09.86.51,1.22-2.69,3.72-5.29,2.81-8.42a.5.5,0,0,0-1,.26Z" transform="translate(-173 -14.57)"/><path class="cls-20" d="M359.71,162.38a4.25,4.25,0,0,0-.59-2.43,17.6,17.6,0,0,0-2-2.23c-.46-.45-1.17.26-.7.7a21.93,21.93,0,0,1,1.54,1.66,2.45,2.45,0,0,1,.65,1.12,9.24,9.24,0,0,1,.1,1.18c.05.64,1.05.64,1,0Z" transform="translate(-173 -14.57)"/><path class="cls-20" d="M359.78,162.41a4.71,4.71,0,0,1-.36-1.23,3.3,3.3,0,0,0-.51-1.11,16,16,0,0,0-1.64-2.12c-.45-.46-1.16.25-.71.71a12.06,12.06,0,0,1,1.6,2.09,2.72,2.72,0,0,1,.31,1.21,3.73,3.73,0,0,0,.44.95c.27.59,1.13.08.87-.5Z" transform="translate(-173 -14.57)"/><path class="cls-20" d="M359.45,162.86a8,8,0,0,0-2.34-5.16c-.41-.49-1.12.22-.71.71a6.87,6.87,0,0,1,2.05,4.45.5.5,0,0,0,1,0Z" transform="translate(-173 -14.57)"/></svg>