<svg id="Layer_1" data-name="Layer 1" xmlns="http://www.w3.org/2000/svg" viewBox="0 0 518.54 369.79"><title>hiiri</title><path d="M292.31,311.44c8.31-6.81,9.25-16.92,11.93-26.82,3.94,1.44,7.85,2.44,11.37,4.23,22.54,11.41,44.91,9.41,67.34-.33,15.54-6.76,30.27-15.38,46.65-20.21,23.87-7,47.87-7.39,71.62-.07,38.52,11.87,59.06,39.67,67,78,2.73,13.24,5.23,26.55,7.06,39.94,4.21,30.94,25.17,48.95,49.29,64.32C637.78,458.91,651.9,466,664,476.15c32.89,27.45,31.44,45.23,6.53,78.88-7,9.49-9.76,18.5-8.94,29.47.51,6.9,1.19,13.79,1.6,20.7.13,2.14.11,4.74-2.53,5.52-2.1.63-3.5-1.14-4.63-2.6-7.56-9.85-15.84-44.4-7.13-56.79a93.19,93.19,0,0,0,12.73-25.15c4.1-12.84,1.28-22.92-9.88-29.44-25.23-14.74-50.55-29.34-77-41.83A42.32,42.32,0,0,0,541,453.18c-5.32,1.89-10.81,3.35-16.26,4.84-5.08,1.38-10.82.34-10.94,9.31-.08,5.62-7.49,8.85-13,9.38-24.47,2.38-48.28,8.47-72.5,12.13-2.57.39-6.61,1.66-7.44-1.61-.88-3.53,3.47-3.56,5.83-4.52,4-1.61,8.12-2.86,12.63-4.42-5.65-3.26-10.35.66-15.27.76-2.69.05-6.38,1.47-7.42-2-1-3.25,2.49-4.66,4.87-6a38.13,38.13,0,0,1,18.71-5.55c9.89-.23,19.76-1.48,29.68-2.3-.29-4.7-3.11-4.1-4.89-4.33-32.51-4.11-64.26-12-95.94-20.05-6.12-1.56-9.76-.34-14.17,3.61-12.41,11.14-25.16,21.89-40,29.85-4.83,2.59-8.09,6.74-10.5,11.75-2.16,4.49-2.86,12.29-9.72,10.45-5.85-1.57-1-8.37-2.7-13.12-3.5,2.46-6.93,5.06-10.57,7.35-2.21,1.39-4.66,4.51-7.36,1.89s-.22-5.15,1.51-7.44c.68-.91,1.18-2,1.91-3.19-4.68-2-7.89,2.86-12.62,1.4,1.37-6.72,6.6-9.06,11.83-11.62,15.26-7.48,29.33-16.14,33.58-34.44,2-8.78,1.28-16.67-5.07-23.77s-11.8-14.73-18.06-21.78c-10.72-12.08-23.06-17.39-40.25-14.15-25.27,4.77-48.75-1.72-68.67-18.67-10.57-9-10.18-11.9.3-21.24a195.37,195.37,0,0,0,19.28-19.43c16.17-19.11,37.73-28.75,61-35.56,4.4-1.3,7.93-2.38,9.78-7.39,2.1-5.7,6.68-9,13.27-8.46,7,.63,10.6,5.3,12.31,11.37A54.22,54.22,0,0,1,292.31,311.44Zm-63.2,21.44c4.62-1.08,8.37-3.14,8.31-8.5-.07-5.61-3.48-8.77-8.85-8.63s-8.54,3.55-8.16,9.19C220.77,330.18,224.33,332.3,229.11,332.88Zm62.67-16.32a15.51,15.51,0,0,0,.81-3.16c0-.46-.73-1.37-.93-1.32a13.64,13.64,0,0,0-2.38,1.14C289.69,313.78,290.11,314.33,291.78,316.56Z" transform="translate(-170.46 -241.06)" style="fill:#020202"/><path d="M256.18,267c.28-10.78,3.46-19.13,12.64-24.3,3.25-1.83,6.55-2.56,9.47.31s5.15,6.36,3.73,10.84c-1.07,3.36-1,7.46-6.58,7.29-5.09-.14-8.47,3.25-11.21,7.37-1.7,2.56-1.2,8.19-6,6.76C254,274,257.62,269.11,256.18,267Z" transform="translate(-170.46 -241.06)" style="fill:#090909"/><path d="M229.11,332.88c-4.78-.58-8.34-2.7-8.7-7.94-.38-5.64,2.72-9.05,8.16-9.19s8.78,3,8.85,8.63C237.48,329.74,233.73,331.8,229.11,332.88Z" transform="translate(-170.46 -241.06)" style="fill:#f8f8f8"/><path d="M291.78,316.56c-1.67-2.23-2.09-2.78-2.5-3.34a13.64,13.64,0,0,1,2.38-1.14c.2-.05.94.86.93,1.32A15.51,15.51,0,0,1,291.78,316.56Z" transform="translate(-170.46 -241.06)" style="fill:#fdfdfd"/></svg>