<svg id="Layer_1" data-name="Layer 1" xmlns="http://www.w3.org/2000/svg" viewBox="0 0 553.99 386.55"><title>hyrrahattu</title><path d="M639.34,315.34h0c2,4.46,5.63,7.19,10.05,9l-.12-.28c.29,2.46,2,3.75,4,4.81l.33.33a5,5,0,0,0,4.79,4l-.15-.1a2.39,2.39,0,0,0,2.3,2.43l-.12-.15a29.63,29.63,0,0,0,6.85,11.87,3.37,3.37,0,0,1,.06,1.67,11,11,0,0,0,4.84,7.66l-.14-.27,17.69,68.12c2.89,14.58,2.28,29.37,1.28,44-.61,8.89-9.12,13.29-16,17.14-25.91,14.49-52.5,27.54-82.19,32.63-5.81,1-11.63,1.93-17.44,2.89-6.54-1.85-12.45,1.77-18.73,2.19l-.18-.12-3.22-3.48c-3.14-9.89-12.22-5.79-18.66-7.9,0-1.76-.07-3.52-.1-5.27v.14q0-15.85,0-31.71c1.84-28.79-3.18-56.28-16.25-82.05-3.36-6.62-6-14.31-14.11-17.23l.09.13c.27-2.1-1.05-3.34-2.47-4.52l.07.18c-.22-3.13-1.34-5.67-4.55-6.82l.1.12a14.16,14.16,0,0,0-9-9.15l.15.16c-.74-4-3.84-6-7-7.86a2.36,2.36,0,0,1-1.1-1.21l-.58-.61-1.94-1.84c-.93-1.06-1.85-2.13-2.77-3.2a1.75,1.75,0,0,1-.74-1c-.59-.69-1.17-1.39-1.75-2.08h-.06l-4.45-5.55-3.57-3.46-5.31-3.78-3-2.67-3.28-3-2.12-2c-2.52-6.83-11-9.05-12.74-16.48A186.29,186.29,0,0,1,501,290.49c32.56.36,65.13-.26,97.7-.47q7.57,4,15.15,8l2.13,1.65-.28-.16a4,4,0,0,0,4.6,2.51l-.19-.11c.76,2.2,2.39,2.84,4.54,2.55l-.23-.12c2,5.42,6.86,7,11.65,8.7l-.23-.07Z" transform="translate(-137.85 -199.32)" style="fill:#fc0101"/><path d="M534.6,511.71c6.44,2.12,15.52-2,18.66,7.91a3.44,3.44,0,0,0,3.22,3.48l.19.12c.32,3.67.63,7.33.94,11-39.76,30.19-82.48,51.44-134.29,51.64-87.93.33-173.8-11.57-257.63-38.14a69.39,69.39,0,0,1-19.09-8.89c-11.52-8.07-11.67-15.24-.4-23.46,9.45-6.88,20.49-10.3,31.49-13.62a178.72,178.72,0,0,1,41.49-7.6c7.44,3.38,14.82,4.55,22-.64,3.23,1.76,6.35,3.75,9.7,5.23,31.55,13.9,65.66,14.53,99,17.48,46.95,4.16,94.18,3.42,141.3,1.72C505.78,517.42,520.76,518,534.6,511.71Z" transform="translate(-137.85 -199.32)" style="fill:#038703"/><path d="M241.2,493.51c-7.2,5.19-14.58,4-22,.64,9.5-1.82,10.42-8,10.84-16.72,1.11-22.93,9.29-44.32,17.56-65.53,17.09-43.83,40.32-83.23,79.31-111.55,27.41-19.92,57-34.07,91.43-35.88,5.2-.28,7.41-1.79,6.93-7.17-.36-4.05,0-8.17.1-12.3-.82,18.83,3.5,37.68.42,56.58-9,1.1-18.37-2.39-26.94,2.67-13.79,0-27.64.7-41,3.81-17.41,4.05-34.7,6.61-48.22,22.27-24.77,28.68-41.85,61.15-54.5,96.18C247.35,448,241.08,470.2,241.2,493.51Z" transform="translate(-137.85 -199.32)" style="fill:#0c0ad9"/><path d="M425.77,301.58c3.08-18.9-1.24-37.75-.42-56.58-.28-5.86-6.92-7.64-8.34-12.8q1.08-4.9,2.14-9.83c-2.87-8.22-4.21-16,5.38-21.11,5.94-3.15,11.62-2.36,16.69,1.55,4.42,3.43,6.63,8.1,4.32,13.76-3.84,9.44.51,8.8,7.91,7.66C483.85,219.55,513.9,212,545,212.5c7.1.12,14.07.86,20.41,4.42s7.44,7.47,1.54,12.86c-8.4,7.67-18.39,9.19-29,8.42-27-2-54-4.15-81-6.16-12.34-.91-19,5.26-18.92,17.73,0,4.71-1.41,9.67,1.39,14.15-4.15,12.21-1.05,24.77-1.72,37.15C433.77,302.92,429.77,302.19,425.77,301.58Z" transform="translate(-137.85 -199.32)" style="fill:#038703"/><path d="M437.67,301.06c.67-12.37-2.43-24.93,1.72-37.14,50.32-2.19,99.46,4,147,21.22,4.15,1.51,10.25-1.64,12.39,4.89-32.57.2-65.14.82-97.7.46A186.29,186.29,0,0,0,438.14,301S437.67,301.06,437.67,301.06Z" transform="translate(-137.85 -199.32)" style="fill:#fcee00"/><path d="M293.9,220.48c12.8-11.08,28.08-7.71,42.85-7.35,1.1.94,2.11,2.57,3.31,2.72,21.19,2.74,42.41,5.29,63.63,7.89h.05c1.46,3.38,6.62,1,7.79,4.86-.54.6-1,1.52-1.46,1.54-31.7.95-63.15,6.19-94.94,5.35C304.79,235.23,298,229.67,293.9,220.48Z" transform="translate(-137.85 -199.32)" style="fill:#038703"/><path d="M293.9,220.48c4.11,9.19,10.89,14.75,21.23,15,31.79.84,63.24-4.4,94.94-5.35.47,0,.92-.94,1.46-1.54-1.17-3.87-6.33-1.48-7.79-4.86,4.95-2.55,10.92,6.2,15.41-1.39q-1.06,4.94-2.14,9.84-45,3.13-90,6.27c-11,.77-21.73-.19-30.23-8.26C294.24,227.83,288.88,225.41,293.9,220.48Z" transform="translate(-137.85 -199.32)" style="fill:#3c3c3c"/><path d="M689.73,424.39,672,356.27c8.06,10.21,9.68,22.94,12.56,34.9C687.21,402,691.74,412.77,689.73,424.39Z" transform="translate(-137.85 -199.32)" style="fill:#616161"/><path d="M403.69,223.74c-21.22-2.6-42.44-5.15-63.63-7.89-1.2-.15-2.21-1.78-3.31-2.72C359.3,215.14,381.68,218.25,403.69,223.74Z" transform="translate(-137.85 -199.32)" style="fill:#3c3c3c"/><path d="M557.61,534.22c-.31-3.67-.62-7.33-.94-11,6.27-.42,12.18-4,18.72-2.19Z" transform="translate(-137.85 -199.32)" style="fill:#191a1a"/><path d="M636.1,313c-4.79-1.69-9.64-3.28-11.65-8.7C629.09,306.21,633.62,308.24,636.1,313Z" transform="translate(-137.85 -199.32)" style="fill:#616161"/><path d="M667.28,347.21a29.63,29.63,0,0,1-6.85-11.87C664.65,338.18,667.52,341.8,667.28,347.21Z" transform="translate(-137.85 -199.32)" style="fill:#616161"/><path d="M649.44,324.33c-4.42-1.8-8-4.53-10.05-9C643.39,317.6,648,319.22,649.44,324.33Z" transform="translate(-137.85 -199.32)" style="fill:#616161"/><path d="M672.18,356.54a11,11,0,0,1-4.84-7.66C670.25,350.62,672.89,352.52,672.18,356.54Z" transform="translate(-137.85 -199.32)" style="fill:#616161"/><path d="M658.4,333.16a5,5,0,0,1-4.79-4C655.74,329.87,658.51,329.77,658.4,333.16Z" transform="translate(-137.85 -199.32)" style="fill:#616161"/><path d="M653.28,328.86c-2-1.06-3.67-2.35-4-4.81C651.4,325,653.09,326.33,653.28,328.86Z" transform="translate(-137.85 -199.32)" style="fill:#616161"/><path d="M620.33,302a4,4,0,0,1-4.6-2.51A4.07,4.07,0,0,1,620.33,302Z" transform="translate(-137.85 -199.32)" style="fill:#616161"/><path d="M624.68,304.44c-2.15.29-3.78-.35-4.54-2.55C622.26,301.66,623.54,302.93,624.68,304.44Z" transform="translate(-137.85 -199.32)" style="fill:#616161"/><path d="M616,299.65,613.88,298Z" transform="translate(-137.85 -199.32)" style="fill:#616161"/><path d="M660.55,335.49a2.39,2.39,0,0,1-2.3-2.43C659.92,333,660.57,333.94,660.55,335.49Z" transform="translate(-137.85 -199.32)" style="fill:#616161"/><path d="M639.34,315.34,635.87,313C637.74,312.7,638.76,313.71,639.34,315.34Z" transform="translate(-137.85 -199.32)" style="fill:#616161"/><path d="M241.2,493.51c-.12-23.31,6.15-45.49,13.91-67,12.65-35,29.73-67.5,54.5-96.18,13.52-15.66,30.81-18.22,48.22-22.27,13.36-3.11,27.21-3.81,41-3.81,18.53-.24,38.12-4.7,52.05,13.19l2.11,2,3.29,3,3,2.66c1.5,1.64,2.39,4.15,5.33,3.79,1.19,1.15,2.38,2.31,3.56,3.44-.6,3.5,2.53,4.05,4.46,5.57h.06c.58.69,1.16,1.39,1.75,2.08a1.73,1.73,0,0,0,.73,1l2.78,3.21,1.93,1.82.59.63a2.3,2.3,0,0,0,1.1,1.2l7,7.87-.15-.16c2.48,3.54,4,8.07,9,9.15l-.1-.12c-.32,3.5,1.69,5.45,4.55,6.82l-.07-.18a4.86,4.86,0,0,0,2.47,4.52l-.09-.13c8.86,14.11,17.26,28.42,21.85,44.65,5,17.88,6.32,36.32,8.51,54.63q0,15.86,0,31.7c0-.05,0-.09,0-.13,0,1.75.06,3.51.1,5.27-13.84,6.32-28.82,5.7-43.37,6.22-47.12,1.7-94.35,2.44-141.3-1.72-33.37-3-67.48-3.58-99-17.48C247.55,497.26,244.43,495.27,241.2,493.51Z" transform="translate(-137.85 -199.32)" style="fill:#fcee00"/><path d="M534.45,474.88c-2.19-18.31-3.46-36.75-8.51-54.63-4.59-16.23-13-30.54-21.85-44.65,8.12,2.92,10.75,10.61,14.11,17.23C531.27,418.6,536.29,446.09,534.45,474.88Z" transform="translate(-137.85 -199.32)" style="fill:#3c3c3c"/><path d="M450.88,317.44C437,299.55,417.36,304,398.83,304.25c8.57-5.06,18-1.57,26.94-2.67,4,.61,8,1.34,11.9-.51,0,0,.47-.1.47-.11C439.89,308.39,448.36,310.61,450.88,317.44Z" transform="translate(-137.85 -199.32)" style="fill:#616161"/><path d="M497.33,364.69c-5-1.08-6.48-5.61-9-9.15A14.16,14.16,0,0,1,497.33,364.69Z" transform="translate(-137.85 -199.32)" style="fill:#3c3c3c"/><path d="M464.57,328.93c-2.94.36-3.83-2.15-5.33-3.79Z" transform="translate(-137.85 -199.32)" style="fill:#3c3c3c"/><path d="M472.59,337.94c-1.93-1.52-5.06-2.07-4.46-5.57Z" transform="translate(-137.85 -199.32)" style="fill:#3c3c3c"/><path d="M488.52,355.7l-7-7.87C484.68,349.73,487.78,351.66,488.52,355.7Z" transform="translate(-137.85 -199.32)" style="fill:#3c3c3c"/><path d="M501.78,371.39c-2.86-1.37-4.87-3.32-4.55-6.82C500.44,365.72,501.56,368.26,501.78,371.39Z" transform="translate(-137.85 -199.32)" style="fill:#3c3c3c"/><path d="M456.28,322.48l-3.29-3Z" transform="translate(-137.85 -199.32)" style="fill:#616161"/><path d="M477.91,344.18,475.13,341C476.06,342.05,477,343.12,477.91,344.18Z" transform="translate(-137.85 -199.32)" style="fill:#3c3c3c"/><path d="M534.5,506.45s0,.08,0,.13Z" transform="translate(-137.85 -199.32)" style="fill:#3c3c3c"/><path d="M504.18,375.73a4.86,4.86,0,0,1-2.47-4.52C503.13,372.39,504.45,373.63,504.18,375.73Z" transform="translate(-137.85 -199.32)" style="fill:#3c3c3c"/><path d="M474.4,340c-.59-.69-1.17-1.39-1.75-2.08C473.23,338.62,473.81,339.32,474.4,340Z" transform="translate(-137.85 -199.32)" style="fill:#3c3c3c"/><path d="M480.43,346.63l-.59-.63Z" transform="translate(-137.85 -199.32)" style="fill:#3c3c3c"/><path d="M556.48,523.1a3.44,3.44,0,0,1-3.22-3.48Z" transform="translate(-137.85 -199.32)" style="fill:#191a1a"/><path d="M377.3,222.36q-21.21.58-42.41,1.82c-6.29.37-12.76,1.26-19.06.84s-9.83-4.24-15.4-6.24l-1.59,11.78c7-.61,14-1.09,21.09-1.18a51.68,51.68,0,0,0,9.05-.68c3.3-.62,6.34-1.85,9.75-1.73,4.19.15,8-5.36,5.18-9a11,11,0,0,0-3.88-3.61l-3,11.18a637.86,637.86,0,0,1,67.77,8.38c7.55,1.35,10.79-10.21,3.19-11.57a666.53,666.53,0,0,0-71-8.81c-5.92-.41-8.2,8.5-3,11.18l-.42-.69,5.18-9c-6.37-.23-12.39,2.34-18.8,2.41-7.06.09-14.06.57-21.09,1.18a6,6,0,0,0-1.6,11.79c2.85,1,5.15,3.4,8,4.56a30.22,30.22,0,0,0,8.23,1.9c6.46.7,13-.12,19.46-.51q22.16-1.35,44.34-1.94c7.71-.21,7.74-12.21,0-12Z" transform="translate(-137.85 -199.32)" style="fill:#038703"/><path d="M398.52,220.72q-22.61,1.49-45.21,2.92c-14.33.89-29.69,3.3-43.92.64-7.54-1.42-10.78,10.14-3.19,11.57,14.86,2.78,30.18.84,45.14-.09q23.6-1.45,47.18-3c7.67-.51,7.73-12.51,0-12Z" transform="translate(-137.85 -199.32)" style="fill:#038703"/><path d="M417.2,224.79c-2.7,1.23-4.95-.68-7.3,1.72a1.52,1.52,0,0,0,1.06,2.56c1.06.13,6,.9,4.61-1.31-.47-.74-4.15.08-4.94.22-1.39.23-1.31,2.08-.36,2.74,2,1.39,5.15.82,7.45.9v-3l-7.93.84a1.5,1.5,0,0,0,0,3c5.54.5,7.07-3.37,10.25-7.05l-2.35-1.82c-3.72,6.92-12.78,6.11-19.61,6.77-7.59.72-15.19,1.23-22.81,1.58-1.92.09-1.93,3.09,0,3q14.76-.67,29.45-2.27c2.88-.32,7.61.08,10.15-1.47a18.36,18.36,0,0,0,5.41-6.1c.77-1.43-1.2-3.16-2.36-1.81-2.32,2.68-3.43,6.59-8.13,6.17v3l7.93-.84a1.5,1.5,0,0,0,0-3c-1.58-.06-4.6.43-5.94-.49l-.36,2.74c2.38-.4,8.75,1.26,7.6-3.37a1.44,1.44,0,0,0-1-1.05c-2.32-.36-4.68-.1-7-.38l1.06,2.56c1.23-1.25,4.9-.43,6.69-1.25s.24-3.38-1.51-2.59Z" transform="translate(-137.85 -199.32)" style="fill:#038703"/></svg>