<svg id="Layer_1" data-name="Layer 1" xmlns="http://www.w3.org/2000/svg" viewBox="0 0 329.5 488.75"><title>juhlahattu</title><path d="M405,631.46c-47.63-.82-94.8-5.58-141.29-16.24a59.38,59.38,0,0,1-8.26-2.3c-13.88-5.41-18.7-16.32-13.22-30.2Q272,507.39,301.87,432.11q45.81-115.5,91.73-231c1.7-4.27,2.67-6.93-2.72-10.07-10.83-6.31-14.63-18.26-11-29.74a26.38,26.38,0,0,1,50.34-.29c3.68,11.48,0,23.53-10.74,29.84-5.79,3.4-4.55,6.33-2.74,10.9q74.82,188.36,149.48,376.78c7.9,19.93,1.86,31.7-19,36.5C500.41,625.8,453,630.66,405,631.46Zm6.69-5.72c21.52.23,50.33-1.89,79-5.66a552.36,552.36,0,0,0,56.52-10.27c16.15-3.86,20.73-13.13,14.66-28.44Q487,392.64,412.06,204c-1.26-3.17-.66-8.16-6.75-8.39s-5.86,4.69-7.14,7.91q-46,115.41-91.65,230.92-29.68,74.87-59.36,149.73c-4.55,11.5-1.32,19.18,10.14,23.93a45.41,45.41,0,0,0,7.4,2.11C310.64,620.66,357.18,625.68,411.72,625.74Z" transform="translate(-240.05 -142.71)" style="fill:#0d0d0d"/><path d="M411.72,625.74c-54.54-.06-101.08-5.08-147-15.58a45.41,45.41,0,0,1-7.4-2.11c-11.46-4.75-14.69-12.43-10.14-23.93q29.66-74.88,59.36-149.73,45.78-115.47,91.65-230.92c1.28-3.22.94-8.15,7.14-7.91s5.49,5.22,6.75,8.39q75.07,188.66,149.86,377.42c6.07,15.31,1.49,24.58-14.66,28.44a552.36,552.36,0,0,1-56.52,10.27C462.05,623.85,433.24,626,411.72,625.74ZM378.5,368.31a26.2,26.2,0,0,0,26.63-26.51,26.48,26.48,0,0,0-53-.26A26.12,26.12,0,0,0,378.5,368.31Zm26.85,175.8A26.46,26.46,0,1,0,405.2,597a26.46,26.46,0,1,0,.15-52.92ZM397,446.5c-14.75,0-26.94,12.12-26.8,26.67S383,500,397.3,499.73a26.89,26.89,0,0,0,26.17-26.47A26.39,26.39,0,0,0,397,446.5Zm-79.4,105.8A26.47,26.47,0,1,0,291,525.54,26.48,26.48,0,0,0,317.56,552.3ZM453.8,518c.1,14.74,12.4,26.85,26.93,26.5,14.19-.34,26.14-12.44,26.25-26.59.11-14.38-11.72-26.35-25.94-26.25C464.83,491.72,453.7,502.49,453.8,518Zm-37.68-123.2a26.46,26.46,0,0,0,26.78,26.51,26.89,26.89,0,0,0,26.51-26.14c.28-14.28-12.2-27-26.57-27.17S416.11,380.1,416.12,394.76Zm-33.38,17.95a19.39,19.39,0,0,0-38.77.21,19.39,19.39,0,1,0,38.77-.21ZM424,277.85a19.06,19.06,0,0,0-19.24,18.89c0,10.24,9.15,19.18,19.36,19A19,19,0,0,0,442.66,297,18.47,18.47,0,0,0,424,277.85Z" transform="translate(-240.05 -142.71)" style="fill:#fcfcfc"/><path d="M378.5,368.31a26.12,26.12,0,0,1-26.33-26.77,26.48,26.48,0,1,1,26.33,26.77Zm-23-27.66A23.12,23.12,0,0,0,377,364.9a23.36,23.36,0,0,0,24.88-21.79c.8-12.45-9.69-23.93-22.41-24.52C367.31,318,356.23,328.24,355.52,340.65Z" transform="translate(-240.05 -142.71)" style="fill:#2a2a2a"/><path d="M405.35,544.11a26.46,26.46,0,1,1-26.91,26.37A26.67,26.67,0,0,1,405.35,544.11Zm-.56,3.25a23.23,23.23,0,0,0,.54,46.45,23.23,23.23,0,0,0-.54-46.45Z" transform="translate(-240.05 -142.71)" style="fill:#2a2a2a"/><path d="M397,446.5a26.39,26.39,0,0,1,26.51,26.76,26.89,26.89,0,0,1-26.17,26.47c-14.33.27-27-12.14-27.14-26.56S382.21,446.49,397,446.5Zm23,26.53a22.66,22.66,0,0,0-22.56-23,23.1,23.1,0,0,0-23.68,23,23.7,23.7,0,0,0,22.77,23.29C409.16,496.56,419.89,485.94,419.92,473Z" transform="translate(-240.05 -142.71)" style="fill:#2a2a2a"/><path d="M317.56,552.3a26.46,26.46,0,1,1,26.7-26.59A26.64,26.64,0,0,1,317.56,552.3Zm23.18-26.51A23.32,23.32,0,0,0,318,502.6c-12.71-.25-23.54,10.47-23.52,23.29a23.12,23.12,0,1,0,46.24-.1Z" transform="translate(-240.05 -142.71)" style="fill:#2a2a2a"/><path d="M453.8,518c-.1-15.47,11-26.24,27.24-26.34,14.22-.1,26,11.87,25.94,26.25-.11,14.15-12.06,26.25-26.25,26.59C466.2,544.81,453.9,532.7,453.8,518Zm3.46-.47A23.25,23.25,0,0,0,480.47,541a23.78,23.78,0,0,0,23.09-23c.17-12.68-10.55-23.3-23.47-23.24A22.6,22.6,0,0,0,457.26,517.49Z" transform="translate(-240.05 -142.71)" style="fill:#2a2a2a"/><path d="M416.12,394.76c0-14.66,12.22-26.94,26.72-26.8s26.85,12.89,26.57,27.17a26.89,26.89,0,0,1-26.51,26.14A26.46,26.46,0,0,1,416.12,394.76Zm26.55,23a23.13,23.13,0,0,0,23.22-22.57,23.6,23.6,0,0,0-23.23-23.66,23.22,23.22,0,0,0-23,23.67A22.68,22.68,0,0,0,442.67,417.72Z" transform="translate(-240.05 -142.71)" style="fill:#2a2a2a"/><path d="M382.74,412.71a19.39,19.39,0,1,1-19.9-19.21A19.61,19.61,0,0,1,382.74,412.71Zm-35.23.48a16.2,16.2,0,0,0,15.61,16c8.7.16,16.47-7.57,16.39-16.31A16.3,16.3,0,0,0,362.81,397,15.76,15.76,0,0,0,347.51,413.19Z" transform="translate(-240.05 -142.71)" style="fill:#2a2a2a"/><path d="M424,277.85A18.47,18.47,0,0,1,442.66,297a19,19,0,0,1-18.55,18.71c-10.21.17-19.32-8.77-19.36-19A19.06,19.06,0,0,1,424,277.85Zm-.19,3.32a15.88,15.88,0,0,0-15.62,15.12c-.24,8.34,7.31,16.06,15.69,16a15.7,15.7,0,0,0,15.43-16.12A15.39,15.39,0,0,0,423.8,281.17Z" transform="translate(-240.05 -142.71)" style="fill:#2a2a2a"/><path d="M355.52,340.65c.71-12.41,11.79-22.62,23.92-22.06,12.72.59,23.21,12.07,22.41,24.52A23.36,23.36,0,0,1,377,364.9,23.12,23.12,0,0,1,355.52,340.65Z" transform="translate(-240.05 -142.71)" style="fill:#fcfcfc"/><path d="M404.79,547.36a23.23,23.23,0,1,1-22.8,23.9A23.41,23.41,0,0,1,404.79,547.36Z" transform="translate(-240.05 -142.71)" style="fill:#fcfcfc"/><path d="M419.92,473c0,12.91-10.76,23.53-23.47,23.23A23.7,23.7,0,0,1,373.68,473a23.1,23.1,0,0,1,23.68-23A22.66,22.66,0,0,1,419.92,473Z" transform="translate(-240.05 -142.71)" style="fill:#fcfcfc"/><path d="M340.74,525.79a23.12,23.12,0,1,1-46.24.1c0-12.82,10.81-23.54,23.52-23.29A23.32,23.32,0,0,1,340.74,525.79Z" transform="translate(-240.05 -142.71)" style="fill:#fcfcfc"/><path d="M457.26,517.49a22.6,22.6,0,0,1,22.83-22.77c12.92-.06,23.64,10.56,23.47,23.24a23.78,23.78,0,0,1-23.09,23A23.25,23.25,0,0,1,457.26,517.49Z" transform="translate(-240.05 -142.71)" style="fill:#fcfcfc"/><path d="M442.67,417.72a22.68,22.68,0,0,1-23-22.56,23.22,23.22,0,0,1,23-23.67,23.6,23.6,0,0,1,23.23,23.66A23.13,23.13,0,0,1,442.67,417.72Z" transform="translate(-240.05 -142.71)" style="fill:#fcfcfc"/><path d="M347.51,413.19A15.76,15.76,0,0,1,362.81,397a16.3,16.3,0,0,1,16.7,15.86c.08,8.74-7.69,16.47-16.39,16.31A16.2,16.2,0,0,1,347.51,413.19Z" transform="translate(-240.05 -142.71)" style="fill:#fcfcfc"/><path d="M423.8,281.17a15.39,15.39,0,0,1,15.5,15.05,15.7,15.7,0,0,1-15.43,16.12c-8.38,0-15.93-7.71-15.69-16A15.88,15.88,0,0,1,423.8,281.17Z" transform="translate(-240.05 -142.71)" style="fill:#fcfcfc"/></svg>