<svg id="Layer_1" data-name="Layer 1" xmlns="http://www.w3.org/2000/svg" viewBox="0 0 423.39 424.06"><title>kaulahuivi</title><path d="M493.23,432.48c0-16.24.06-32.48,0-48.73a66.31,66.31,0,0,0-3.95-23.38c-4.9-12.92-14.23-19.43-28-19.76-9.36-.23-18.44,1.88-27.59,3.29-17.52,2.71-31.66-1.65-42.48-16.85-11.45-16.06-25.58-29.63-44-37.7-13.57-5.93-18.44-3.11-19,11.69-1.39,38.21-.22,76.06,13,112.77,9.24,25.62,11.21,53.05,16.83,79.58,1.56,7.4-3.59,11.23-12,8.27-9-3.16-17.54-7.74-26.34-11.55-40.69-17.61-80.91-36.94-127-35.24-7.66.28-8.22-4.59-8.25-10.5-.12-28.71,4.73-56.69,11.91-84.36,10-38.55,23.6-75.74,42-111.11a171.14,171.14,0,0,1,21.85-33.07C284,188.1,312,181.14,345.94,194.63c21.34,8.47,37.55,23.24,50.44,41.91,7.9,11.44,15,23.45,23.58,34.38,18.44,23.61,38.05,27.85,64.53,14,18.84-9.85,37.7-19.24,59-22.63s36.66,3.52,47.85,22.09c9,14.88,12.41,31.39,12.95,48.41,1.61,51-6.24,101.88-3.67,153,.34,6.86-4.17,8.17-9.75,8.21-15.58.11-31.16.37-46.74.42-12.59,0-25.16-.11-37.73,1.34-11.05,1.27-13-.68-13-11.56,0-17.24,0-34.47,0-51.71Z" transform="translate(-181.11 -187.97)" style="fill:#010101"/><path d="M312.87,509.33c2.57-.74,3.39,1.64,3.84,5.1,3.46,26.18,7.18,52.33,10.51,78.53,1,8.26-6.45,4.57-9.92,5.69-2.71.87-8.15,4.22-9.17-2.88-3.81-26.47-7.58-52.94-11.49-79.39-.51-3.39.46-4.85,3.84-5.19C304.09,510.83,307.66,510.13,312.87,509.33Z" transform="translate(-181.11 -187.97)" style="fill:#080808"/><path d="M250.73,568.2c-1.08,7.07-8.94,3.08-13.52,4.95-4.21,1.72-6.25-.25-6.85-5.18q-4.49-37-9.82-73.8c-1-6.67.5-9.67,7.67-10,6.1-.32,10.95-2,12,7.36C243,516.47,247,541.32,250.73,568.2Z" transform="translate(-181.11 -187.97)" style="fill:#080808"/><path d="M197.42,560.83c-3.85.89-4.31-1.57-4.72-4.48q-5.56-39.36-11.29-78.68c-.23-1.64-.85-4,.91-4.4,5.11-1.21,10.43-2.69,15.54-2.32,4.44.32,2.62,5.36,3.06,8.3q5.07,33.4,9.71,66.86C212.48,559.55,211.07,561,197.42,560.83Z" transform="translate(-181.11 -187.97)" style="fill:#080808"/><path d="M353.25,611.49c-5.66,1.85-6.16-1.38-6.59-4.38q-5.52-38.7-10.94-77.4c-1.4-9.9,7-5.1,10.8-6.92,3.42-1.65,7.35-2.15,8.19,4.24,3.41,25.82,7.7,51.54,10.85,77.39C366.92,615.59,356.35,608.9,353.25,611.49Z" transform="translate(-181.11 -187.97)" style="fill:#080808"/><path d="M288.56,580.36c.55,6.44-6,4.16-9.74,4.85-3.56.65-8.59,3.41-9.54-4.08-3.32-26.27-7.32-52.45-10.34-78.74-.95-8.27,7.27-4.07,11.07-5.72,2.68-1.16,7.27-2.78,8.06,3.47C281.38,526.4,284.92,552.64,288.56,580.36Z" transform="translate(-181.11 -187.97)" style="fill:#080808"/><path d="M554,527.62c0,4.64-.51,9.35.12,13.9,1.18,8.54-1.52,11.4-10.56,11-7.61-.32-10.26-1.91-9.73-9.84a297.22,297.22,0,0,0,0-33.77c-.38-7.79,4.56-6.86,9-6.3s11.61-3.68,11.19,6.1C553.78,515,554,521.33,554,527.62Z" transform="translate(-181.11 -187.97)" style="fill:#0d0d0d"/><path d="M509.62,528.61v10.87c0,13.36-2.29,15.09-16,12.78-2.75-.46-4-1.2-4-4.19.1-13.5-.3-27,.16-40.49.31-9.22,7.88-3.95,12.1-4.88,3.55-.78,8.19-1.47,7.84,5.18C509.34,514.77,509.62,521.7,509.62,528.61Z" transform="translate(-181.11 -187.97)" style="fill:#0d0d0d"/><path d="M598.18,527.87c0,5-.56,10,.12,14.9,1.14,8.12-2.32,9.34-9.72,9.74-9.11.5-11.13-2.5-10.53-11a289.25,289.25,0,0,0,.07-32.79c-.38-9,6-6,10.17-6.09s10.67-2.56,10,6.31C597.79,515.25,598.18,521.57,598.18,527.87Z" transform="translate(-181.11 -187.97)" style="fill:#080808"/></svg>