<svg id="Layer_1" data-name="Layer 1" xmlns="http://www.w3.org/2000/svg" viewBox="0 0 343.07 430.35"><title>kavelykeppi</title><path d="M327.35,184.83c36-.29,57.54,11.81,74.89,32.23,14.18,16.69,24.28,35.89,33.31,55.71q69,151.46,138.06,302.88c6.47,14.22,5.25,17.92-8.46,26-35.39,20.82-40.23,19.4-56.71-16.76q-64.1-140.62-128.16-281.26c-6.41-14.07-13-28.06-22.52-40.37-15.74-20.34-30.21-23.83-53.65-13.73-14.81,6.39-25.16,17.54-34.47,30.14-9.51,12.89-15.73,12.35-23.86-1.7-17.89-30.93-15.65-43.29,12.62-64.73C281.24,195.92,306.81,185.55,327.35,184.83Z" transform="translate(-234.32 -184.82)" style="fill:#080808"/></svg>