<svg id="Layer_1" data-name="Layer 1" xmlns="http://www.w3.org/2000/svg" viewBox="0 0 602.4 777.79"><defs><style>.cls-1{fill:#785415;}.cls-2{fill:#4a330a;}.cls-3{fill:#bb7921;}.cls-4{fill:#ce8628;}.cls-5{fill:#cf8628;}.cls-6{fill:#e1e337;}.cls-7{fill:#fcfaf7;}.cls-8{fill:#070707;}.cls-9{fill:#10aec4;}.cls-10,.cls-9{opacity:0.5;}.cls-11{fill:#4ddde8;}</style></defs><title>Kurssipollo_surku1</title><path class="cls-1" d="M632.5,567.77a217.23,217.23,0,0,0-5.09-31.42c-6.5-26.27-20.44-49-34.08-71.87-8.87-14.86-19.32-28.76-26.8-44.43-8.38-17.56-3.9-33.56,12.06-44.82,8.13-5.74,17.11-9.3,26.65-11.71,2.54-.64,5.36-.74,6.84-3.48-14-17.07-31.4-30.33-49.65-43.24h0a.65.65,0,0,1-.12-.11,1.29,1.29,0,0,1-.67-.41,2,2,0,0,1-.21-.3,2.16,2.16,0,0,1-.68-.63h0a0,0,0,0,0,0,0,103.7,103.7,0,0,1-22.91,7.88c-12.32,2.75-24.58,3.26-36.9,3.2-17.66,5.91-36.22,3.67-54.5,2.76-9.72-.48-19.38.46-29.1.63-8.29.14-16.57,0-24.85-.39-9-.21-17.91-.78-26.86-1.82-13.67-1.18-27.31-2.66-41-4-19.24-1.92-38.4-3.75-57.55-6.34-5.35-.56-10.73-.6-16.08-1.16a93.12,93.12,0,0,1-11.84-2,5,5,0,0,1,1,.83c.3.31.52.69.83,1,.12.14.27.25.4.38a3.47,3.47,0,0,1,.34.42,1.25,1.25,0,0,1,.23.23l.17,0a1.5,1.5,0,0,1,.33,2.73l.06,0c-16.82,12.17-32.55,24.73-45.52,40.34,2.26,2.6,5.55,2.54,8.52,3.21,10.74,2.41,20.85,6.32,29.51,13.25,10.3,8.25,16.39,18.31,13.88,32.33-1.41,7.89-5.06,14.64-8.95,21.34-9,15.54-19.11,30.44-28.37,45.85-15,24.94-27.31,50.83-31.12,80-2.54,19.45-2.35,38.81,2.37,58,3.65,14.9,9,29.23,13.63,43.82,1.15,1.77,3.35,1.17,4.83,2.18A241.58,241.58,0,0,0,232.7,688c57.9,42.54,123,60.45,194.31,55.07,70.93-5.34,132.19-32.44,181.93-84.06,1.2-1.24,2.12-3,4.26-2.8,3.45-1.26,4-4.55,5-7.39C627.85,622.67,635.27,596.2,632.5,567.77Z" transform="translate(-104.6 -15.45)"/><path class="cls-1" d="M556.83,318.71a.36.36,0,0,0,.17-.07c.39-.26.8-.48,1.21-.7l1-.53a1.49,1.49,0,0,0,.24-.14c.08,0,.16-.12.25-.17a3.18,3.18,0,0,1,.33-.1.79.79,0,0,0,.31-.23.23.23,0,0,0-.33.07" transform="translate(-104.6 -15.45)"/><path class="cls-1" d="M557,320.29a2.65,2.65,0,0,0,1-.59c1.2-1.15-.39-3.34-1.82-2.35l.15-.05.79,2.9a5.27,5.27,0,0,0,2.34-1.55c.8-1-.53-2.58-1.7-2.2a2.13,2.13,0,0,0-1.23.95c-.79,1.23.8,2.9,2.05,2.05.17-.12.35-.23.54-.34a1.51,1.51,0,0,0-.76-2.79h-.1l.39,2.94a2.85,2.85,0,0,0,1.72-1.08,1.5,1.5,0,0,0-.12-1.67,1.64,1.64,0,0,0-2.18-.27,1.5,1.5,0,0,0,1.51,2.59c.46-.23.84-.59,1.3-.83,1.71-.9.19-3.49-1.52-2.59-.45.24-.84.6-1.29.83l1.51,2.59-.11,0-1.69-2.2-.08.09.9-.68-.47.16s-.43.17-.27.13a1.51,1.51,0,0,0,.4,2.95h.1l-.76-2.8-.54.34,2.06,2.05,0,.09-.66.39.14-.05-1.69-2.2-.12.15.53-.53c-.17.1-.38.16-.56.26a2.55,2.55,0,0,1-.39.28,1.54,1.54,0,0,0-1.05,1.85,1.52,1.52,0,0,0,1.84,1.05,2.51,2.51,0,0,0,.58-.26l-1.82-2.36-.14.13.66-.38-.18.07a1.5,1.5,0,0,0,.8,2.89Z" transform="translate(-104.6 -15.45)"/><ellipse class="cls-1" cx="295.9" cy="197.55" rx="229.5" ry="142"/><path class="cls-2" d="M613.2,656.21c8.7-21.09,15.73-42.56,17.48-65.58,2.5-32.91-4.95-63.63-20-92.54-11.85-22.76-26-44.2-39.67-65.92-5.73-9.13-10.78-18.72-10.64-29.56.16-11.7,6.42-20.77,15.76-27.86,10.71-8.14,23.14-11.85,36-14.71l-.08,0c4.77,2.35,10-.19,14.83,1.37,21.6,3,37.17,15.46,50.44,31.86,17.66,21.82,24.25,47.69,27.25,74.66,4.69,42.27,3.19,84.26-8.49,125.48-7.62,26.9-20,50.75-43.58,67.34-8.09,5.69-16.71,10.14-26.56,11.62-11.92,1.8-14.95-1.48-13-13.49C613.05,658,613.1,657.09,613.2,656.21Z" transform="translate(-104.6 -15.45)"/><path class="cls-2" d="M197.07,360.09c14.83,1.68,28.73,6.25,40.24,15.82,14.38,11.95,18.27,26.32,10.22,43.83-7.23,15.74-17.67,29.61-26.61,44.35-14.7,24.24-29.42,48.5-35.74,76.6a161.72,161.72,0,0,0-3.91,24.77c-.89,13.47-1,26.92,1.56,40.14a214.19,214.19,0,0,0,10.49,36.88c2.07,5.37,3.3,10.93,5.07,16.35,2.25,8.71,1.77,10.44-3.69,13.33-13.6,2.1-24.54-4.27-35.06-11.42-26.48-18-38.68-45.24-45.75-74.82-11.54-48.33-12.7-97.14-1.4-145.72,7.15-30.78,22.9-56,51.33-72C174.18,362.42,185.4,360.41,197.07,360.09Z" transform="translate(-104.6 -15.45)"/><path class="cls-1" d="M579.1,125.47c-19-15.52-40.51-26.33-63.38-34.71a245,245,0,0,0-41.08-11.64c3.18.2,5.35-1.84,7.71-3.46l83.58-57.14c1.25-.85,2.58-1.6,4.94-3.07.83,11.6,1.63,22.3,2.36,33q2.43,35.22,4.83,70.45C578.21,121.12,578.74,123.29,579.1,125.47Z" transform="translate(-104.6 -15.45)"/><path class="cls-1" d="M326.31,80.1a243.46,243.46,0,0,0-38.57,10.72c-23.15,8.27-45,19-64.38,34.39,2.58-17.55,2.72-35.3,4.15-52.95,1.34-16.33,2.18-32.7,3.27-49.06.13-1.95.53-3.88.92-6.65,4.4,2.93,8.24,5.44,12,8q38.39,26.24,76.77,52.48A53.46,53.46,0,0,0,326.31,80.1Z" transform="translate(-104.6 -15.45)"/><path class="cls-3" d="M303.86,769.51C293,768,283.53,772.26,273.29,778c1.1-13.18,8.33-20.84,18-26.64,14.76-8.84,31.16-7.87,44.13,2.26,12.76,10,19.61,26.38,16,39.58-6.7-6.71-13-13.35-20.83-18.2-6.88-1-13.56-3.06-20.5-3.67C307.86,771.17,305.66,771.06,303.86,769.51Z" transform="translate(-104.6 -15.45)"/><path class="cls-3" d="M485.28,773.57c-7.64,4.46-15.57,8.53-21.87,17.51-2.87-14.91,2.58-24.86,11.4-33.52,12.19-12,29-14.59,44.27-7.09,14.1,6.9,23.94,20.35,22.87,31.73a97.44,97.44,0,0,0-26.08-11.59c-3.78-1.39-7.25.73-10.84,1.16C498.46,772.55,492,773.89,485.28,773.57Z" transform="translate(-104.6 -15.45)"/><path class="cls-4" d="M485.28,773.57c10.1-2,20-5.92,30.59-3-3.23-.33-4.54,1.55-5.56,4.32-2,5.54-4.39,11-6.79,16.85-5.15-3.78-7.76-9.2-11.54-13.59C490.12,776,488.64,773.5,485.28,773.57Z" transform="translate(-104.6 -15.45)"/><path class="cls-5" d="M303.86,769.51A50.58,50.58,0,0,1,330.57,775c-2.67-1.1-4.43,0-6.19,2.08-3.88,4.73-8,9.24-13,14.93C308.63,783.8,306.25,776.66,303.86,769.51Z" transform="translate(-104.6 -15.45)"/><path class="cls-2" d="M334.88,516.12c-8.85.74-17.55-1-25.89-3.92-10.64-3.79-17.86-11-20.35-22.5a9.07,9.07,0,0,1,1.77-8c2.22-2.59,5.24-.37,7.17.85,14.76,9.35,31.2,9,47.56,8.15,6.94-.38,13.63-3,20-6.28,6.53-3.34,9.32-1.4,9.55,6,.39,12.07-4,18.22-15.58,22.3A59.68,59.68,0,0,1,334.88,516.12Z" transform="translate(-104.6 -15.45)"/><path class="cls-2" d="M466.09,699.93a63.88,63.88,0,0,1-28.2-3.9c-10.35-3.77-17.38-10.94-19.87-22.14-.76-3.41-.13-6.41,2-8.57s4.86-.13,6.67,1c14.73,9.35,31.15,9.2,47.52,8.29,6.72-.38,13.26-2.77,19.41-5.9,7.45-3.78,10-2.05,10.45,6.06.62,10.35-3.9,17.77-15.44,21.71a72.9,72.9,0,0,1-12.77,3.32C472.15,700.36,468.32,699.93,466.09,699.93Z" transform="translate(-104.6 -15.45)"/><path class="cls-2" d="M336.14,700A63,63,0,0,1,309,696.14c-10.64-3.8-17.85-11-20.32-22.53a9,9,0,0,1,1.81-8c2.23-2.54,5.24-.34,7.18.89,14.76,9.36,31.2,9,47.56,8.14,6.49-.33,12.82-2.71,18.78-5.72,8.06-4.08,10.4-2.3,10.8,6.85.45,9.91-4.69,16.83-14.47,20.43a75.87,75.87,0,0,1-14.05,3.68C342.57,700.43,338.73,700,336.14,700Z" transform="translate(-104.6 -15.45)"/><path class="cls-2" d="M334.72,637.42c-8.85.75-17.55-1-25.87-4-10.35-3.73-17.51-10.71-20.06-22-.78-3.42-.26-6.43,1.73-8.64,2.23-2.47,5.22-.17,7.2,1,12.29,7.41,25.7,8.58,39.61,8.44a61.66,61.66,0,0,0,27.32-6.45c7.05-3.48,9.61-1.72,10.08,6,.65,10.53-3.68,17.67-15.16,22A58.81,58.81,0,0,1,334.72,637.42Z" transform="translate(-104.6 -15.45)"/><path class="cls-2" d="M507,578.65a63.28,63.28,0,0,1-27.32-3.79c-10.65-3.77-17.86-11-20.39-22.46a9.2,9.2,0,0,1,1.72-8.06c2.21-2.66,5.25-.42,7.16.8,14.77,9.33,31.19,9.06,47.56,8.18,6.95-.38,13.63-3,20-6.27,6.57-3.34,9.36-1.45,9.6,6,.4,12.08-3.93,18.41-15.56,22.26A75.93,75.93,0,0,1,517,578.54C513.27,579.08,509.44,578.65,507,578.65Z" transform="translate(-104.6 -15.45)"/><path class="cls-2" d="M403.66,578.69c-9.89.84-18.58-.94-26.91-3.91-10.66-3.8-17.75-11.2-20.18-22.65a8.91,8.91,0,0,1,2-8c2-2.26,4.88-.27,6.64.83,14.53,9.16,30.65,9.26,46.85,8.42,7.25-.37,14.12-2.9,20.68-6.18,7-3.5,9.56-1.69,10,6.1.61,10.45-3.57,17.71-15.27,21.82A75.25,75.25,0,0,1,414,578.57C410.36,579.14,406.53,578.69,403.66,578.69Z" transform="translate(-104.6 -15.45)"/><path class="cls-2" d="M300,574.78c-8.85.75-17.54-1-25.87-4-10.67-3.8-17.76-11.2-20.19-22.64a8.86,8.86,0,0,1,1.95-8c2-2.29,4.88-.3,6.63.81,14.52,9.15,30.65,9.26,46.85,8.43,7.25-.38,14.12-2.9,20.68-6.18,7-3.5,9.55-1.7,10,6.07.65,10.43-3.77,17.69-15.22,21.91A59.7,59.7,0,0,1,300,574.78Z" transform="translate(-104.6 -15.45)"/><path class="cls-2" d="M464.43,516.13c-9,.79-17.9-1-26.44-4-10.66-3.82-17.71-11.27-20.12-22.7a8.7,8.7,0,0,1,2-8c2.05-2.16,4.88-.22,6.66.91,14.53,9.15,30.66,9.2,46.86,8.39,7.26-.36,14.1-2.95,20.67-6.22,7-3.48,9.48-1.63,10,6.2.62,10.4-3.77,17.59-15.32,21.85A58.76,58.76,0,0,1,464.43,516.13Z" transform="translate(-104.6 -15.45)"/><path class="cls-2" d="M465.15,637.33a62,62,0,0,1-27-3.88c-10.35-3.74-17.5-10.71-20.06-22-.77-3.42-.26-6.43,1.74-8.64,2.23-2.46,5.22-.17,7.2,1,12.28,7.41,25.69,8.58,39.61,8.44A61.69,61.69,0,0,0,494,605.87c7.05-3.48,9.6-1.72,10.08,6,.65,10.49-3.65,17.85-15.19,21.88a75.27,75.27,0,0,1-13.41,3.46C471.75,637.78,467.91,637.33,465.15,637.33Z" transform="translate(-104.6 -15.45)"/><path class="cls-2" d="M404.65,457.34a63.62,63.62,0,0,1-28.12-3.93c-10.35-3.78-17.36-11-19.84-22.17-.75-3.4-.11-6.43,2-8.55s4.86-.09,6.69,1.07c14.73,9.37,31.15,9.18,47.52,8.25,6.93-.4,13.65-2.94,20-6.2,6.65-3.4,9.46-1.57,9.73,5.76.46,12.13-3.86,18.51-15.42,22.35a76.19,76.19,0,0,1-12.78,3.3C410.78,457.77,407,457.34,404.65,457.34Z" transform="translate(-104.6 -15.45)"/><path class="cls-6" d="M387.28,326.3c-1.48-1.12-1.37-2.55-1.57-3.82-1.71-11.19-3.25-22.4-5.14-33.56-.63-3.69.79-4.57,4.05-5,11-1.47,21.95-3,32.86-5,4-.72,5,.76,5.43,4.27,1.46,10.78,3.16,21.52,4.81,32.26.43,2.79.94,5.06-3.24,5.6-11.42,1.47-22.79,3.4-34.19,5.12A22.62,22.62,0,0,1,387.28,326.3Z" transform="translate(-104.6 -15.45)"/><path d="M290.89,229.57q0-3.27,0-6.54c1-5,4-9.11,6.37-13.51,13.78-20.86,46.43-17.24,55.87,6.33,2.16,5.4,1.3,10.89,1.3,16.38-.9,7.64-5.23,13.46-10.1,19-4.56,3.45-9.25,6.66-15.11,7.51H320C303.7,255.79,295.33,245.62,290.89,229.57Z" transform="translate(-104.6 -15.45)"/><circle class="cls-7" cx="208.78" cy="184.84" r="60.83"/><circle class="cls-8" cx="220.72" cy="200.83" r="31.04"/><circle class="cls-7" cx="388.67" cy="184.84" r="60.83"/><circle class="cls-7" cx="215.43" cy="214.88" r="12.66"/><circle class="cls-8" cx="379.56" cy="200.83" r="31.04"/><circle class="cls-7" cx="369.92" cy="215.36" r="12.66"/><path class="cls-9" d="M255,223s.1.29.33.82c2.15,5.07,15.26,32.13,53.61,41.18,42.38,10,65.5-42,61.64-42s-11.55,25-52,22S255,223,255,223Z" transform="translate(-104.6 -15.45)"/><path class="cls-9" d="M435,223s.1.29.33.82c2.15,5.07,15.26,32.13,53.61,41.18,42.38,10,65.5-42,61.64-42s-11.55,25-52,22S435,223,435,223Z" transform="translate(-104.6 -15.45)"/><g class="cls-10"><path class="cls-11" d="M287.44,263c-.84,2.58-3.08,4.85-4.11,7.45a8.48,8.48,0,0,0-.69,5.47c.93,3.32,5.36,5.49,8.58,4.58a7.34,7.34,0,0,0,5.38-7.8c-.23-1.66-1.44-3-2.32-4.36-.64-1-1.31-2-2-3-.37-.57-1.59-1.82-1.67-2.48a1.51,1.51,0,0,0-2.95-.39l-.57,1.58,2.89.8.38-1.34-2.8-.76,0,.76c-.12,2,2.76,1.86,3,0l.11-.86h-3a14.12,14.12,0,0,1-2.63,7l2.5,1.46a5,5,0,0,1,.74-2.19l-2.59-1.52c-1.31,2.69-3.57,6.73-1.42,9.54,1.55,2,5.29,3.65,7.74,2.42a6.81,6.81,0,0,0,3.63-6.46A9.42,9.42,0,0,0,294,269c-1.14-1.71-2.11-3.68-3.66-5.07A1.52,1.52,0,0,0,287.8,265c-.1,2.71,6.43,8,3,10.47a2.17,2.17,0,0,1-2.45,0c-1.05-.51-.68.05-1-1.21-.63-2.66,1.83-4.93,3.08-7l-2.36.31a7.07,7.07,0,0,1,2.23,4.78c.05.87.73,2.79.42,3.51l2.9.8a12.7,12.7,0,0,0,.2-4.07c-.25-1.7-2.95-1.24-2.95.4,0-.76-4.81,1.34-1.92-2.63.56-.76.43-.08.52,1.13.1,1.5-.43,2.88-.18,4.32a1.5,1.5,0,0,0,2.2.89,7,7,0,0,0,1.26-1.1l-2.12-2.12-1.41.53c-.53.45-.61.23-.25-.67,0-.27.66-3,.61-3.06-1.71-1.26-1.31,4.21-1.29,4.76a1.51,1.51,0,0,0,2.79.76c.75-1.41,1.46-3.41.37-4.83a1.52,1.52,0,0,0-2.59,0c-.61,1.15-.15,2.24-.6,3.34l1.05-1.05-.83-.21,1.05,1.05-.16-.58L289,275l.39-.46-1.46.39.58.16L287.42,274l.19.58,2.2-1.7.65-.44a1.5,1.5,0,0,0-.23-1.81l-.27-.83h-2.9l.05,1.37c-.18,1.67,2.64,2.06,2.95.4a14.4,14.4,0,0,1,.35-1.61h-2.89l.24,1.27h3l-.19-1.7c-.21-1.9-3.21-1.92-3,0l.19,1.7c.21,1.88,3.1,2,3,0a7,7,0,0,0-.35-2.07,1.51,1.51,0,0,0-2.89,0,14.91,14.91,0,0,0-.35,1.61l2.94.4A4.78,4.78,0,0,0,290,269c-.36-1.55-2.43-1.3-2.9,0a3.11,3.11,0,0,0,1.05,3.74l-.24-1.82c-.88,1.52-1.66,3.66.43,4.54,1.09.46,2.65-.31,2.2-1.69a2.19,2.19,0,0,0-1.81-1.79,1.49,1.49,0,0,0-1.46.39c-1.33,1.57-.79,3.49,1.37,3.82,3.28.48,1.91-2,2.83-3.73h-2.59l-.37,1.8,2.8.75c-.07-1.95.87-6.28-1.35-7.52-1.63-.91-2.74.57-3.25,2-.66,1.8-1.7,5.46.19,6.86a4.63,4.63,0,0,0,5.87-.74c1.25-1.45-.81-3.57-2.12-2.12l-.65.63,2.2.9c-.06-.35.46-1.64.47-2.23a8.76,8.76,0,0,0-.46-2.63c-.31-1.07-.78-3-2-3.49-2.42-1-4.4,2.59-4.9,4.43-.71,2.67,0,6.38,3.2,6.82s5.36-1.8,5.36-4.92l-2.94.4a10.23,10.23,0,0,1-.21,2.47,1.51,1.51,0,0,0,2.9.8c.71-1.71-.15-3.9-.35-5.67-.26-2.25-1.63-3.91-3.08-5.55a1.51,1.51,0,0,0-2.35.31c-1.78,2.87-4.44,5.6-3.38,9.26.8,2.75,2.5,3.81,5.37,3.85,1.95,0,4.64-1.84,5-3.83.33-1.74-.71-4.25-1.39-5.78-.51-1.13-2.68-3.18-2.64-4.3L288.24,266c2.23,2,5.4,6.74,3.48,9.51a3,3,0,0,1-4.73-.06c-1.41-1.87.43-4.79,1.29-6.56s-1.68-3.23-2.59-1.52a9.47,9.47,0,0,0-1,2.91c-.24,1.3,1.48,2.76,2.51,1.46a17.1,17.1,0,0,0,3.51-9.08c.18-1.94-2.77-1.88-3,0l-.11.86h3l0-.76c.09-1.42-2.2-2.14-2.79-.76a8,8,0,0,0-.68,2.06,1.5,1.5,0,0,0,2.89.8l.57-1.59-2.94-.4c.5,4,7.93,8.67,5.26,12.81a4.1,4.1,0,0,1-5.62,1.26c-2.27-1.34-1.94-3.55-1.08-5.64,1.08-2.65,3.25-4.86,4.12-7.53.59-1.84-2.3-2.63-2.89-.8Z" transform="translate(-104.6 -15.45)"/></g><g class="cls-10"><path class="cls-11" d="M296.87,288.79c-.69,2.15-2.57,4-3.43,6.22a7.4,7.4,0,0,0-.57,4.7c.81,2.9,4.65,4.79,7.47,4A6.4,6.4,0,0,0,305,297c-.19-1.45-1.21-2.59-2-3.77-.54-.83-1.09-1.65-1.63-2.47-.27-.41-1.31-1.47-1.37-1.94a1.51,1.51,0,0,0-3-.4l-.47,1.32,2.89.8.29-1.06-2.8-.76,0,.64c-.11,2,2.77,1.86,3,0l.1-.72h-3a11.51,11.51,0,0,1-2.13,5.64l2.51,1.45a4,4,0,0,1,.59-1.77l-2.59-1.51c-1.15,2.36-3.05,5.81-1.15,8.26,1.37,1.77,4.59,3.13,6.74,2.07a5.92,5.92,0,0,0,3.17-5.68,8.25,8.25,0,0,0-1.42-3.38,20.77,20.77,0,0,0-3-4.24,1.52,1.52,0,0,0-2.56,1.06c-.09,2.21,5.17,6.54,2.59,8.53-.63.48-1.16.3-1.85,0-1-.47-.46.16-.64-.84-.41-2.19,1.5-3.92,2.54-5.6l-2.36.3a5.66,5.66,0,0,1,1.79,3.82c0,.68.6,2.29.36,2.87l2.89.79a10.73,10.73,0,0,0,.17-3.52c-.25-1.71-2.94-1.25-2.94.4l-1.88-.13a3,3,0,0,1,.71-1.92c.45-.52.46-.6,0-.26s-.51.58,0,1.12a17.46,17.46,0,0,0-.15,3.6,1.51,1.51,0,0,0,2.21.9,6.7,6.7,0,0,0,1.1-1l-2.12-2.13-1,.38c-.11.67-.1.58,0-.28,0-.24.57-2.45.5-2.52l-1.58.28,0,.91a12.39,12.39,0,0,0,0,2.72,1.51,1.51,0,0,0,2.79.75c.67-1.25,1.27-3,.31-4.28a1.52,1.52,0,0,0-2.59,0c-.52,1-.15,1.92-.52,2.85l1-1.05L298,297l1.05,1.05-.13-.48-.39,1.46.33-.38-1.46.38.48.14-1.05-1.05.16.48,2.2-1.69.63,0a1.51,1.51,0,0,0-.23-1.82l-.17-.44h-2.89l0,1.07c-.18,1.67,2.63,2.06,2.94.4.08-.45.17-.9.29-1.35h-2.89l.19,1h3l-.15-1.42c-.21-1.89-3.21-1.92-3,0l.15,1.42c.21,1.88,3.1,2,3,0a5.74,5.74,0,0,0-.3-1.79,1.51,1.51,0,0,0-2.89,0,12.3,12.3,0,0,0-.29,1.34l3,.4a4.38,4.38,0,0,0-.15-1.87c-.35-1.54-2.42-1.3-2.89,0a2.83,2.83,0,0,0,.94,3.36l-.24-1.82c-.79,1.38-1.43,3.34.45,4.14,1.09.46,2.65-.32,2.2-1.7a2.06,2.06,0,0,0-1.68-1.66,1.46,1.46,0,0,0-1.46.39c-1.26,1.47-.71,3.32,1.32,3.6a2.11,2.11,0,0,0,2.2-.74c.53-.77,0-1.75.37-2.49h-2.59l-.31,1.25,2.8.76c-.06-1.77.72-5.38-1.25-6.5-1.51-.85-2.6.48-3.08,1.79-.6,1.63-1.44,4.77.28,6a4.12,4.12,0,0,0,5.2-.66c1.25-1.46-.82-3.57-2.12-2.13l-.5.5,2.21.89a15.47,15.47,0,0,0,.4-1.79,7.88,7.88,0,0,0-.39-2.26c-.29-1-.71-2.58-1.77-3.06-2.18-1-4,2.16-4.45,3.84-.64,2.36,0,5.59,2.83,6s4.79-1.58,4.8-4.34l-3,.39a8.44,8.44,0,0,1-.17,1.94,1.5,1.5,0,0,0,2.89.79c.61-1.46-.1-3.35-.29-4.86-.23-1.92-1.39-3.34-2.63-4.74a1.51,1.51,0,0,0-2.35.3c-1.53,2.47-3.76,4.79-2.85,7.92.7,2.4,2.23,3.37,4.72,3.4,1.77,0,4.13-1.65,4.44-3.45.26-1.49-.59-3.56-1.17-4.88-.39-.88-2.22-2.71-2.19-3.53l-2.56,1.06c1.74,1.56,4.39,5.41,2.91,7.59a2.22,2.22,0,0,1-3.6,0c-1.05-1.45.44-3.81,1.11-5.18.84-1.72-1.67-3.23-2.59-1.51a8.06,8.06,0,0,0-.89,2.49c-.24,1.29,1.48,2.76,2.5,1.46a14.58,14.58,0,0,0,3-7.76c.18-1.94-2.77-1.88-3,0l-.1.72h3l0-.64c.09-1.42-2.2-2.14-2.79-.76a7.59,7.59,0,0,0-.59,1.78,1.5,1.5,0,0,0,2.89.8l.48-1.32-2.95-.4c.41,3.22,6.52,7.31,4.43,10.57a3.16,3.16,0,0,1-4.35.95c-1.79-1-1.48-2.75-.81-4.39.91-2.23,2.73-4.07,3.46-6.32.59-1.84-2.3-2.63-2.9-.8Z" transform="translate(-104.6 -15.45)"/></g><g class="cls-10"><path class="cls-11" d="M280.73,311.1c-1.47,4.54-6.78,8.57-5.21,14,1,3.54,5.71,5.87,9.17,4.89a7.84,7.84,0,0,0,5.74-8.35c-.24-1.78-1.55-3.22-2.49-4.68-.7-1.08-1.43-2.14-2.13-3.22-.43-.65-1.75-2-1.84-2.75a1.51,1.51,0,0,0-3-.4l-.62,1.72,2.89.8.42-1.49-2.79-.76-.05.83c-.12,2,2.76,1.86,3,0l.12-.94h-3a15.46,15.46,0,0,1-2.9,7.67l2.51,1.45a5.53,5.53,0,0,1,.81-2.41l-2.59-1.51c-1.39,2.86-3.85,7.2-1.57,10.2,1.65,2.17,5.67,3.92,8.28,2.61a7.29,7.29,0,0,0,3.87-6.87,9.93,9.93,0,0,0-1.73-4.2c-1.24-1.86-2.29-4-4-5.52a1.53,1.53,0,0,0-2.57,1.06c-.11,3,7.1,8.69,3.15,11.5a2.49,2.49,0,0,1-2.76,0c-1.09-.53-.8,0-1.15-1.41-.73-2.91,2-5.44,3.36-7.65l-2.36.3a7.85,7.85,0,0,1,2.46,5.3c.06,1,.79,3.05.46,3.85l2.89.8a13.6,13.6,0,0,0,.22-4.35c-.25-1.71-2.95-1.25-2.95.4,0-.23-6.44.64-2.32-2.94.39-.8.54-.9.44-.28a2.39,2.39,0,0,0,.35,1.55c.18,1.63-.46,3.12-.19,4.69a1.5,1.5,0,0,0,2.2.9,8.46,8.46,0,0,0,1.35-1.18l-2.13-2.12-1.62.62c-.72.33-.85,0-.41-.88,0-.36.8-3.22.67-3.35-.82-.82-1.16,1.49-1.2,1.68a19.06,19.06,0,0,0,.05,3.54,1.51,1.51,0,0,0,2.8.75c.79-1.49,1.55-3.61.4-5.11a1.52,1.52,0,0,0-2.59,0c-.66,1.24-.16,2.4-.64,3.59l1.05-1-1-.24,1.05,1.05-.18-.63-.38,1.46.42-.49-1.46.38.63.18-1-1.05.2.62,2.2-1.69.67-.66a1.5,1.5,0,0,0-.24-1.81l-.33-1h-2.89l.06,1.52c-.18,1.67,2.63,2.05,2.94.39.1-.59.23-1.17.38-1.75h-2.89l.27,1.42h3l-.21-1.84c-.2-1.9-3.21-1.92-3,0l.21,1.84c.21,1.88,3.1,2,3,0a6.89,6.89,0,0,0-.38-2.21,1.51,1.51,0,0,0-2.89,0,17,17,0,0,0-.38,1.75l2.95.4a4.93,4.93,0,0,0-.17-2.32c-.36-1.54-2.43-1.3-2.89,0a3.26,3.26,0,0,0,1.1,3.94l-.23-1.82c-.93,1.59-1.78,3.83.41,4.76,1.09.46,2.65-.31,2.2-1.69a2.21,2.21,0,0,0-1.87-1.85,1.48,1.48,0,0,0-1.46.38c-1.39,1.63-.83,3.57,1.4,3.93,3.46.56,2-2.15,3-4h-2.59l-.41,2.09,2.8.76c-.07-2.05.95-6.78-1.39-8.07-1.7-.93-2.82.62-3.35,2.05-.69,1.89-1.83,5.83.15,7.31a4.91,4.91,0,0,0,6.23-.78c1.24-1.46-.82-3.57-2.13-2.12l-.73.71,2.2.89c-.09-.5.49-1.75.5-2.45a9.4,9.4,0,0,0-.49-2.83c-.32-1.12-.82-3.19-2.09-3.71-2.55-1.05-4.62,2.81-5.14,4.73-.75,2.84-.07,6.8,3.38,7.26s5.67-1.92,5.67-5.22l-2.94.4a12.11,12.11,0,0,1-.22,2.75,1.5,1.5,0,0,0,2.89.8c.77-1.84-.17-4.19-.38-6.1-.27-2.42-1.75-4.21-3.31-6a1.51,1.51,0,0,0-2.35.31c-1.92,3.08-4.81,6-3.66,10,.85,2.94,2.64,4.06,5.71,4.1,2.06,0,4.89-1.95,5.33-4,.38-1.85-.79-4.62-1.52-6.24-.57-1.28-2.92-3.44-2.87-4.72l-2.56,1.06c2.49,2.23,5.94,7.45,3.79,10.53a3.37,3.37,0,0,1-5.33-.07c-1.6-2.09.42-5.31,1.38-7.29.84-1.72-1.67-3.23-2.59-1.51a10.46,10.46,0,0,0-1.12,3.13c-.23,1.29,1.48,2.76,2.51,1.46a18.42,18.42,0,0,0,3.78-9.79c.18-1.94-2.77-1.87-3,0l-.12.94h3l.05-.83c.09-1.42-2.21-2.14-2.8-.76a9.22,9.22,0,0,0-.72,2.21,1.5,1.5,0,0,0,2.89.8l.62-1.73L281,311c.55,4.4,8.67,9.36,5.7,14a4.58,4.58,0,0,1-6.28,1.41c-2.53-1.49-2.19-4-1.24-6.29,1.18-2.88,3.54-5.27,4.48-8.18.59-1.84-2.3-2.63-2.9-.79Z" transform="translate(-104.6 -15.45)"/></g><g class="cls-10"><path class="cls-11" d="M524.44,263c-.84,2.58-3.08,4.85-4.11,7.45a8.48,8.48,0,0,0-.69,5.47c.93,3.32,5.36,5.49,8.58,4.58a7.34,7.34,0,0,0,5.38-7.8c-.23-1.66-1.44-3-2.32-4.36-.64-1-1.31-2-2-3-.37-.57-1.59-1.82-1.67-2.48a1.51,1.51,0,0,0-2.95-.39l-.57,1.58,2.89.8.38-1.34-2.8-.76,0,.76c-.12,2,2.76,1.86,3,0l.11-.86h-3a14.12,14.12,0,0,1-2.63,7l2.5,1.46a5,5,0,0,1,.74-2.19l-2.59-1.52c-1.31,2.69-3.57,6.73-1.42,9.54,1.55,2,5.29,3.65,7.74,2.42a6.81,6.81,0,0,0,3.63-6.46A9.42,9.42,0,0,0,531,269c-1.14-1.71-2.11-3.68-3.66-5.07A1.52,1.52,0,0,0,524.8,265c-.1,2.71,6.43,8,3,10.47a2.17,2.17,0,0,1-2.45,0c-1-.51-.68.05-1-1.21-.63-2.66,1.83-4.93,3.08-7l-2.36.31a7.07,7.07,0,0,1,2.23,4.78c.05.87.73,2.79.42,3.51l2.9.8a12.7,12.7,0,0,0,.2-4.07c-.25-1.7-2.95-1.24-2.95.4,0-.76-4.81,1.34-1.92-2.63.56-.76.43-.08.52,1.13.1,1.5-.43,2.88-.18,4.32a1.5,1.5,0,0,0,2.2.89,7,7,0,0,0,1.26-1.1l-2.12-2.12-1.41.53c-.53.45-.61.23-.25-.67,0-.27.66-3,.61-3.06-1.71-1.26-1.31,4.21-1.29,4.76a1.51,1.51,0,0,0,2.79.76c.75-1.41,1.46-3.41.37-4.83a1.52,1.52,0,0,0-2.59,0c-.61,1.15-.15,2.24-.6,3.34l1-1.05-.83-.21,1,1.05-.16-.58L526,275l.39-.46-1.46.39.58.16L524.42,274l.19.58,2.2-1.7.65-.44a1.5,1.5,0,0,0-.23-1.81l-.27-.83h-2.9l.05,1.37c-.18,1.67,2.64,2.06,2.95.4a14.4,14.4,0,0,1,.35-1.61h-2.89l.24,1.27h3l-.19-1.7c-.21-1.9-3.21-1.92-3,0l.19,1.7c.21,1.88,3.1,2,3,0a7,7,0,0,0-.35-2.07,1.51,1.51,0,0,0-2.89,0,14.91,14.91,0,0,0-.35,1.61l2.94.4A4.78,4.78,0,0,0,527,269c-.36-1.55-2.43-1.3-2.9,0a3.11,3.11,0,0,0,1.05,3.74l-.24-1.82c-.88,1.52-1.66,3.66.43,4.54,1.09.46,2.65-.31,2.2-1.69a2.19,2.19,0,0,0-1.81-1.79,1.49,1.49,0,0,0-1.46.39c-1.33,1.57-.79,3.49,1.37,3.82,3.28.48,1.91-2,2.83-3.73h-2.59l-.37,1.8,2.8.75c-.07-1.95.87-6.28-1.35-7.52-1.63-.91-2.74.57-3.25,2-.66,1.8-1.7,5.46.19,6.86a4.63,4.63,0,0,0,5.87-.74c1.25-1.45-.81-3.57-2.12-2.12l-.65.63,2.2.9c-.06-.35.46-1.64.47-2.23a8.76,8.76,0,0,0-.46-2.63c-.31-1.07-.78-3-2-3.49-2.42-1-4.4,2.59-4.9,4.43-.71,2.67,0,6.38,3.2,6.82s5.36-1.8,5.36-4.92l-2.94.4a10.23,10.23,0,0,1-.21,2.47,1.51,1.51,0,0,0,2.9.8c.71-1.71-.15-3.9-.35-5.67-.26-2.25-1.63-3.91-3.08-5.55a1.51,1.51,0,0,0-2.35.31c-1.78,2.87-4.44,5.6-3.38,9.26.8,2.75,2.5,3.81,5.37,3.85,2,0,4.64-1.84,5-3.83.33-1.74-.71-4.25-1.39-5.78-.51-1.13-2.68-3.18-2.64-4.3L525.24,266c2.23,2,5.4,6.74,3.48,9.51a3,3,0,0,1-4.73-.06c-1.41-1.87.43-4.79,1.29-6.56s-1.68-3.23-2.59-1.52a9.47,9.47,0,0,0-1,2.91c-.24,1.3,1.48,2.76,2.51,1.46a17.1,17.1,0,0,0,3.51-9.08c.18-1.94-2.77-1.88-3,0l-.11.86h3l0-.76c.09-1.42-2.2-2.14-2.79-.76a8,8,0,0,0-.68,2.06,1.5,1.5,0,0,0,2.89.8l.57-1.59-2.94-.4c.5,4,7.93,8.67,5.26,12.81a4.1,4.1,0,0,1-5.62,1.26c-2.27-1.34-1.94-3.55-1.08-5.64,1.08-2.65,3.25-4.86,4.12-7.53.59-1.84-2.3-2.63-2.89-.8Z" transform="translate(-104.6 -15.45)"/></g><g class="cls-10"><path class="cls-11" d="M533.87,288.79c-.69,2.15-2.57,4-3.43,6.22a7.4,7.4,0,0,0-.57,4.7c.81,2.9,4.65,4.79,7.47,4A6.4,6.4,0,0,0,542,297c-.19-1.45-1.21-2.59-2-3.77-.54-.83-1.09-1.65-1.63-2.47-.27-.41-1.31-1.47-1.37-1.94a1.51,1.51,0,0,0-2.95-.4l-.47,1.32,2.89.8.29-1.06-2.8-.76,0,.64c-.11,2,2.77,1.86,3,0l.1-.72h-3a11.51,11.51,0,0,1-2.13,5.64l2.51,1.45a4,4,0,0,1,.59-1.77l-2.59-1.51c-1.15,2.36-3.05,5.81-1.15,8.26,1.37,1.77,4.59,3.13,6.74,2.07a5.92,5.92,0,0,0,3.17-5.68,8.25,8.25,0,0,0-1.42-3.38,20.77,20.77,0,0,0-3-4.24,1.52,1.52,0,0,0-2.56,1.06c-.09,2.21,5.17,6.54,2.59,8.53-.63.48-1.16.3-1.85,0-1-.47-.46.16-.64-.84-.41-2.19,1.5-3.92,2.54-5.6l-2.36.3a5.66,5.66,0,0,1,1.79,3.82c0,.68.6,2.29.36,2.87l2.89.79a10.73,10.73,0,0,0,.17-3.52c-.25-1.71-2.94-1.25-2.94.4l-1.88-.13a3,3,0,0,1,.71-1.92c.45-.52.46-.6,0-.26s-.51.58,0,1.12a17.46,17.46,0,0,0-.15,3.6,1.51,1.51,0,0,0,2.21.9,6.7,6.7,0,0,0,1.1-1l-2.12-2.13-1,.38c-.11.67-.1.58,0-.28,0-.24.57-2.45.5-2.52l-1.58.28,0,.91a12.39,12.39,0,0,0,0,2.72,1.51,1.51,0,0,0,2.79.75c.67-1.25,1.27-3,.31-4.28a1.52,1.52,0,0,0-2.59,0c-.52,1-.15,1.92-.52,2.85l1-1.05L535,297l1.05,1.05-.13-.48-.39,1.46.33-.38-1.46.38.48.14-1-1.05.16.48,2.2-1.69.63,0a1.51,1.51,0,0,0-.23-1.82l-.17-.44h-2.89l0,1.07c-.18,1.67,2.63,2.06,2.94.4.08-.45.17-.9.29-1.35h-2.89l.19,1h3l-.15-1.42c-.21-1.89-3.21-1.92-3,0l.15,1.42c.21,1.88,3.1,2,3,0a5.74,5.74,0,0,0-.3-1.79,1.51,1.51,0,0,0-2.89,0,12.3,12.3,0,0,0-.29,1.34l3,.4a4.38,4.38,0,0,0-.15-1.87c-.35-1.54-2.42-1.3-2.89,0a2.83,2.83,0,0,0,.94,3.36l-.24-1.82c-.79,1.38-1.43,3.34.45,4.14,1.09.46,2.65-.32,2.2-1.7a2.06,2.06,0,0,0-1.68-1.66,1.46,1.46,0,0,0-1.46.39c-1.26,1.47-.71,3.32,1.32,3.6a2.11,2.11,0,0,0,2.2-.74c.53-.77,0-1.75.37-2.49h-2.59l-.31,1.25,2.8.76c-.06-1.77.72-5.38-1.25-6.5-1.51-.85-2.6.48-3.08,1.79-.6,1.63-1.44,4.77.28,6a4.12,4.12,0,0,0,5.2-.66c1.25-1.46-.82-3.57-2.12-2.13l-.5.5,2.21.89a15.47,15.47,0,0,0,.4-1.79,7.88,7.88,0,0,0-.39-2.26c-.29-1-.71-2.58-1.77-3.06-2.18-1-4,2.16-4.45,3.84-.64,2.36,0,5.59,2.83,6s4.79-1.58,4.8-4.34l-3,.39a8.44,8.44,0,0,1-.17,1.94,1.5,1.5,0,0,0,2.89.79c.61-1.46-.1-3.35-.29-4.86-.23-1.92-1.39-3.34-2.63-4.74a1.51,1.51,0,0,0-2.35.3c-1.53,2.47-3.76,4.79-2.85,7.92.7,2.4,2.23,3.37,4.72,3.4,1.77,0,4.13-1.65,4.44-3.45.26-1.49-.59-3.56-1.17-4.88-.39-.88-2.22-2.71-2.19-3.53l-2.56,1.06c1.74,1.56,4.39,5.41,2.91,7.59a2.22,2.22,0,0,1-3.6,0c-1-1.45.44-3.81,1.11-5.18.84-1.72-1.67-3.23-2.59-1.51a8.06,8.06,0,0,0-.89,2.49c-.24,1.29,1.48,2.76,2.5,1.46a14.58,14.58,0,0,0,3-7.76c.18-1.94-2.77-1.88-3,0l-.1.72h3l0-.64c.09-1.42-2.2-2.14-2.79-.76a7.59,7.59,0,0,0-.59,1.78,1.5,1.5,0,0,0,2.89.8l.48-1.32-3-.4c.41,3.22,6.52,7.31,4.43,10.57a3.16,3.16,0,0,1-4.35.95c-1.79-1-1.48-2.75-.81-4.39.91-2.23,2.73-4.07,3.46-6.32.59-1.84-2.3-2.63-2.9-.8Z" transform="translate(-104.6 -15.45)"/></g><g class="cls-10"><path class="cls-11" d="M517.73,311.1c-1.47,4.54-6.78,8.57-5.21,14,1,3.54,5.71,5.87,9.17,4.89a7.84,7.84,0,0,0,5.74-8.35c-.24-1.78-1.55-3.22-2.49-4.68-.7-1.08-1.43-2.14-2.13-3.22-.43-.65-1.75-2-1.84-2.75a1.51,1.51,0,0,0-3-.4l-.62,1.72,2.89.8.42-1.49-2.79-.76,0,.83c-.12,2,2.76,1.86,3,0l.12-.94h-3a15.46,15.46,0,0,1-2.9,7.67l2.51,1.45a5.53,5.53,0,0,1,.81-2.41l-2.59-1.51c-1.39,2.86-3.85,7.2-1.57,10.2,1.65,2.17,5.67,3.92,8.28,2.61a7.29,7.29,0,0,0,3.87-6.87,9.93,9.93,0,0,0-1.73-4.2c-1.24-1.86-2.29-4-4-5.52a1.53,1.53,0,0,0-2.57,1.06c-.11,3,7.1,8.69,3.15,11.5a2.49,2.49,0,0,1-2.76,0c-1.09-.53-.8,0-1.15-1.41-.73-2.91,2-5.44,3.36-7.65l-2.36.3a7.85,7.85,0,0,1,2.46,5.3c.06,1,.79,3.05.46,3.85l2.89.8a13.6,13.6,0,0,0,.22-4.35c-.25-1.71-2.95-1.25-2.95.4,0-.23-6.44.64-2.32-2.94.39-.8.54-.9.44-.28a2.39,2.39,0,0,0,.35,1.55c.18,1.63-.46,3.12-.19,4.69a1.5,1.5,0,0,0,2.2.9,8.46,8.46,0,0,0,1.35-1.18l-2.13-2.12-1.62.62c-.72.33-.85,0-.41-.88,0-.36.8-3.22.67-3.35-.82-.82-1.16,1.49-1.2,1.68a19.06,19.06,0,0,0,0,3.54,1.51,1.51,0,0,0,2.8.75c.79-1.49,1.55-3.61.4-5.11a1.52,1.52,0,0,0-2.59,0c-.66,1.24-.16,2.4-.64,3.59l1-1-1-.24,1,1.05-.18-.63-.38,1.46.42-.49-1.46.38.63.18-1-1.05.2.62,2.2-1.69.67-.66a1.5,1.5,0,0,0-.24-1.81l-.33-1h-2.89l.06,1.52c-.18,1.67,2.63,2.05,2.94.39.1-.59.23-1.17.38-1.75h-2.89l.27,1.42h3l-.21-1.84c-.2-1.9-3.21-1.92-3,0l.21,1.84c.21,1.88,3.1,2,3,0a6.89,6.89,0,0,0-.38-2.21,1.51,1.51,0,0,0-2.89,0,17,17,0,0,0-.38,1.75l2.95.4a4.93,4.93,0,0,0-.17-2.32c-.36-1.54-2.43-1.3-2.89,0a3.26,3.26,0,0,0,1.1,3.94l-.23-1.82c-.93,1.59-1.78,3.83.41,4.76,1.09.46,2.65-.31,2.2-1.69a2.21,2.21,0,0,0-1.87-1.85,1.48,1.48,0,0,0-1.46.38c-1.39,1.63-.83,3.57,1.4,3.93,3.46.56,2-2.15,3-4h-2.59l-.41,2.09,2.8.76c-.07-2.05,1-6.78-1.39-8.07-1.7-.93-2.82.62-3.35,2.05-.69,1.89-1.83,5.83.15,7.31a4.91,4.91,0,0,0,6.23-.78c1.24-1.46-.82-3.57-2.13-2.12l-.73.71,2.2.89c-.09-.5.49-1.75.5-2.45a9.4,9.4,0,0,0-.49-2.83c-.32-1.12-.82-3.19-2.09-3.71-2.55-1.05-4.62,2.81-5.14,4.73-.75,2.84-.07,6.8,3.38,7.26s5.67-1.92,5.67-5.22l-2.94.4a12.11,12.11,0,0,1-.22,2.75,1.5,1.5,0,0,0,2.89.8c.77-1.84-.17-4.19-.38-6.1-.27-2.42-1.75-4.21-3.31-6a1.51,1.51,0,0,0-2.35.31c-1.92,3.08-4.81,6-3.66,10,.85,2.94,2.64,4.06,5.71,4.1,2.06,0,4.89-1.95,5.33-4,.38-1.85-.79-4.62-1.52-6.24-.57-1.28-2.92-3.44-2.87-4.72l-2.56,1.06c2.49,2.23,5.94,7.45,3.79,10.53a3.37,3.37,0,0,1-5.33-.07c-1.6-2.09.42-5.31,1.38-7.29.84-1.72-1.67-3.23-2.59-1.51a10.46,10.46,0,0,0-1.12,3.13c-.23,1.29,1.48,2.76,2.51,1.46a18.42,18.42,0,0,0,3.78-9.79c.18-1.94-2.77-1.87-3,0l-.12.94h3l0-.83c.09-1.42-2.21-2.14-2.8-.76a9.22,9.22,0,0,0-.72,2.21,1.5,1.5,0,0,0,2.89.8l.62-1.73L518,311c.55,4.4,8.67,9.36,5.7,14a4.58,4.58,0,0,1-6.28,1.41c-2.53-1.49-2.19-4-1.24-6.29,1.18-2.88,3.54-5.27,4.48-8.18.59-1.84-2.3-2.63-2.9-.79Z" transform="translate(-104.6 -15.45)"/></g><rect class="cls-1" x="252" y="139" width="100" height="20" transform="translate(-127.37 44.5) rotate(-10.93)"/><rect class="cls-1" x="453" y="139" width="100" height="20" transform="translate(864.04 375.2) rotate(-169.07)"/></svg>