<svg id="Layer_1" data-name="Layer 1" xmlns="http://www.w3.org/2000/svg" viewBox="0 0 602.4 777.79"><defs><style>.cls-1{fill:#785415;}.cls-2{fill:#4a330a;}.cls-3{fill:#bb7921;}.cls-4{fill:#ce8628;}.cls-5{fill:#cf8628;}.cls-6{fill:#e1e337;}.cls-7{fill:#fcfaf7;}.cls-8{fill:#070707;}</style></defs><title>Kurssipollo2</title><path class="cls-1" d="M632.5,567.77a217.23,217.23,0,0,0-5.09-31.42c-6.5-26.27-20.44-49-34.08-71.87-8.87-14.86-19.32-28.76-26.8-44.43-8.38-17.56-3.9-33.56,12.06-44.82,8.13-5.74,17.11-9.3,26.65-11.71,2.54-.64,5.36-.74,6.84-3.48-14-17.07-31.4-30.33-49.65-43.24h0a.65.65,0,0,1-.12-.11,1.29,1.29,0,0,1-.67-.41,2,2,0,0,1-.21-.3,2.16,2.16,0,0,1-.68-.63h0a0,0,0,0,0,0,0,103.7,103.7,0,0,1-22.91,7.88c-12.32,2.75-24.58,3.26-36.9,3.2-17.66,5.91-36.22,3.67-54.5,2.76-9.72-.48-19.38.46-29.1.63-8.29.14-16.57,0-24.85-.39-9-.21-17.91-.78-26.86-1.82-13.67-1.18-27.31-2.66-41-4-19.24-1.92-38.4-3.75-57.55-6.34-5.35-.56-10.73-.6-16.08-1.16a93.12,93.12,0,0,1-11.84-2,5,5,0,0,1,1,.83c.3.31.52.69.83,1,.12.14.27.25.4.38a3.47,3.47,0,0,1,.34.42,1.25,1.25,0,0,1,.23.23l.17,0a1.5,1.5,0,0,1,.33,2.73l.06,0c-16.82,12.17-32.55,24.73-45.52,40.34,2.26,2.6,5.55,2.54,8.52,3.21,10.74,2.41,20.85,6.32,29.51,13.25,10.3,8.25,16.39,18.31,13.88,32.33-1.41,7.89-5.06,14.64-8.95,21.34-9,15.54-19.11,30.44-28.37,45.85-15,24.94-27.31,50.83-31.12,80-2.54,19.45-2.35,38.81,2.37,58,3.65,14.9,9,29.23,13.63,43.82,1.15,1.77,3.35,1.17,4.83,2.18A241.58,241.58,0,0,0,232.7,688c57.9,42.54,123,60.45,194.31,55.07,70.93-5.34,132.19-32.44,181.93-84.06,1.2-1.24,2.12-3,4.26-2.8,3.45-1.26,4-4.55,5-7.39C627.85,622.67,635.27,596.2,632.5,567.77Z" transform="translate(-104.6 -15.45)"/><path class="cls-1" d="M556.83,318.71a.36.36,0,0,0,.17-.07c.39-.26.8-.48,1.21-.7l1-.53a1.49,1.49,0,0,0,.24-.14c.08,0,.16-.12.25-.17a3.18,3.18,0,0,1,.33-.1.79.79,0,0,0,.31-.23.23.23,0,0,0-.33.07" transform="translate(-104.6 -15.45)"/><path class="cls-1" d="M557,320.29a2.65,2.65,0,0,0,1-.59c1.2-1.15-.39-3.34-1.82-2.35l.15-.05.79,2.9a5.27,5.27,0,0,0,2.34-1.55c.8-1-.53-2.58-1.7-2.2a2.13,2.13,0,0,0-1.23.95c-.79,1.23.8,2.9,2.05,2.05.17-.12.35-.23.54-.34a1.51,1.51,0,0,0-.76-2.79h-.1l.39,2.94a2.85,2.85,0,0,0,1.72-1.08,1.5,1.5,0,0,0-.12-1.67,1.64,1.64,0,0,0-2.18-.27,1.5,1.5,0,0,0,1.51,2.59c.46-.23.84-.59,1.3-.83,1.71-.9.19-3.49-1.52-2.59-.45.24-.84.6-1.29.83l1.51,2.59-.11,0-1.69-2.2-.08.09.9-.68-.47.16s-.43.17-.27.13a1.51,1.51,0,0,0,.4,2.95h.1l-.76-2.8-.54.34,2.06,2.05,0,.09-.66.39.14-.05-1.69-2.2-.12.15.53-.53c-.17.1-.38.16-.56.26a2.55,2.55,0,0,1-.39.28,1.54,1.54,0,0,0-1.05,1.85,1.52,1.52,0,0,0,1.84,1.05,2.51,2.51,0,0,0,.58-.26l-1.82-2.36-.14.13.66-.38-.18.07a1.5,1.5,0,0,0,.8,2.89Z" transform="translate(-104.6 -15.45)"/><ellipse class="cls-1" cx="295.9" cy="197.55" rx="229.5" ry="142"/><path class="cls-2" d="M613.2,656.21c8.7-21.09,15.73-42.56,17.48-65.58,2.5-32.91-4.95-63.63-20-92.54-11.85-22.76-26-44.2-39.67-65.92-5.73-9.13-10.78-18.72-10.64-29.56.16-11.7,6.42-20.77,15.76-27.86,10.71-8.14,23.14-11.85,36-14.71l-.08,0c4.77,2.35,10-.19,14.83,1.37,21.6,3,37.17,15.46,50.44,31.86,17.66,21.82,24.25,47.69,27.25,74.66,4.69,42.27,3.19,84.26-8.49,125.48-7.62,26.9-20,50.75-43.58,67.34-8.09,5.69-16.71,10.14-26.56,11.62-11.92,1.8-14.95-1.48-13-13.49C613.05,658,613.1,657.09,613.2,656.21Z" transform="translate(-104.6 -15.45)"/><path class="cls-2" d="M197.07,360.09c14.83,1.68,28.73,6.25,40.24,15.82,14.38,11.95,18.27,26.32,10.22,43.83-7.23,15.74-17.67,29.61-26.61,44.35-14.7,24.24-29.42,48.5-35.74,76.6a161.72,161.72,0,0,0-3.91,24.77c-.89,13.47-1,26.92,1.56,40.14a214.19,214.19,0,0,0,10.49,36.88c2.07,5.37,3.3,10.93,5.07,16.35,2.25,8.71,1.77,10.44-3.69,13.33-13.6,2.1-24.54-4.27-35.06-11.42-26.48-18-38.68-45.24-45.75-74.82-11.54-48.33-12.7-97.14-1.4-145.72,7.15-30.78,22.9-56,51.33-72C174.18,362.42,185.4,360.41,197.07,360.09Z" transform="translate(-104.6 -15.45)"/><path class="cls-1" d="M579.1,125.47c-19-15.52-40.51-26.33-63.38-34.71a245,245,0,0,0-41.08-11.64c3.18.2,5.35-1.84,7.71-3.46l83.58-57.14c1.25-.85,2.58-1.6,4.94-3.07.83,11.6,1.63,22.3,2.36,33q2.43,35.22,4.83,70.45C578.21,121.12,578.74,123.29,579.1,125.47Z" transform="translate(-104.6 -15.45)"/><path class="cls-1" d="M325.31,80.1a243.46,243.46,0,0,0-38.57,10.72c-23.15,8.27-45,19-64.38,34.39,2.58-17.55,2.72-35.3,4.15-52.95,1.34-16.33,2.18-32.7,3.27-49.06.13-1.95.53-3.88.92-6.65,4.4,2.93,8.24,5.44,12,8q38.39,26.24,76.77,52.48A53.46,53.46,0,0,0,325.31,80.1Z" transform="translate(-104.6 -15.45)"/><path class="cls-3" d="M303.86,769.51C293,768,283.53,772.26,273.29,778c1.1-13.18,8.33-20.84,18-26.64,14.76-8.84,31.16-7.87,44.13,2.26,12.76,10,19.61,26.38,16,39.58-6.7-6.71-13-13.35-20.83-18.2-6.88-1-13.56-3.06-20.5-3.67C307.86,771.17,305.66,771.06,303.86,769.51Z" transform="translate(-104.6 -15.45)"/><path class="cls-3" d="M485.28,773.57c-7.64,4.46-15.57,8.53-21.87,17.51-2.87-14.91,2.58-24.86,11.4-33.52,12.19-12,29-14.59,44.27-7.09,14.1,6.9,23.94,20.35,22.87,31.73a97.44,97.44,0,0,0-26.08-11.59c-3.78-1.39-7.25.73-10.84,1.16C498.46,772.55,492,773.89,485.28,773.57Z" transform="translate(-104.6 -15.45)"/><path class="cls-4" d="M485.28,773.57c10.1-2,20-5.92,30.59-3-3.23-.33-4.54,1.55-5.56,4.32-2,5.54-4.39,11-6.79,16.85-5.15-3.78-7.76-9.2-11.54-13.59C490.12,776,488.64,773.5,485.28,773.57Z" transform="translate(-104.6 -15.45)"/><path class="cls-5" d="M303.86,769.51A50.58,50.58,0,0,1,330.57,775c-2.67-1.1-4.43,0-6.19,2.08-3.88,4.73-8,9.24-13,14.93C308.63,783.8,306.25,776.66,303.86,769.51Z" transform="translate(-104.6 -15.45)"/><path class="cls-2" d="M334.88,516.12c-8.85.74-17.55-1-25.89-3.92-10.64-3.79-17.86-11-20.35-22.5a9.07,9.07,0,0,1,1.77-8c2.22-2.59,5.24-.37,7.17.85,14.76,9.35,31.2,9,47.56,8.15,6.94-.38,13.63-3,20-6.28,6.53-3.34,9.32-1.4,9.55,6,.39,12.07-4,18.22-15.58,22.3A59.68,59.68,0,0,1,334.88,516.12Z" transform="translate(-104.6 -15.45)"/><path class="cls-2" d="M466.09,699.93a63.88,63.88,0,0,1-28.2-3.9c-10.35-3.77-17.38-10.94-19.87-22.14-.76-3.41-.13-6.41,2-8.57s4.86-.13,6.67,1c14.73,9.35,31.15,9.2,47.52,8.29,6.72-.38,13.26-2.77,19.41-5.9,7.45-3.78,10-2.05,10.45,6.06.62,10.35-3.9,17.77-15.44,21.71a72.9,72.9,0,0,1-12.77,3.32C472.15,700.36,468.32,699.93,466.09,699.93Z" transform="translate(-104.6 -15.45)"/><path class="cls-2" d="M336.14,700A63,63,0,0,1,309,696.14c-10.64-3.8-17.85-11-20.32-22.53a9,9,0,0,1,1.81-8c2.23-2.54,5.24-.34,7.18.89,14.76,9.36,31.2,9,47.56,8.14,6.49-.33,12.82-2.71,18.78-5.72,8.06-4.08,10.4-2.3,10.8,6.85.45,9.91-4.69,16.83-14.47,20.43a75.87,75.87,0,0,1-14.05,3.68C342.57,700.43,338.73,700,336.14,700Z" transform="translate(-104.6 -15.45)"/><path class="cls-2" d="M334.72,637.42c-8.85.75-17.55-1-25.87-4-10.35-3.73-17.51-10.71-20.06-22-.78-3.42-.26-6.43,1.73-8.64,2.23-2.47,5.22-.17,7.2,1,12.29,7.41,25.7,8.58,39.61,8.44a61.66,61.66,0,0,0,27.32-6.45c7.05-3.48,9.61-1.72,10.08,6,.65,10.53-3.68,17.67-15.16,22A58.81,58.81,0,0,1,334.72,637.42Z" transform="translate(-104.6 -15.45)"/><path class="cls-2" d="M507,578.65a63.28,63.28,0,0,1-27.32-3.79c-10.65-3.77-17.86-11-20.39-22.46a9.2,9.2,0,0,1,1.72-8.06c2.21-2.66,5.25-.42,7.16.8,14.77,9.33,31.19,9.06,47.56,8.18,6.95-.38,13.63-3,20-6.27,6.57-3.34,9.36-1.45,9.6,6,.4,12.08-3.93,18.41-15.56,22.26A75.93,75.93,0,0,1,517,578.54C513.27,579.08,509.44,578.65,507,578.65Z" transform="translate(-104.6 -15.45)"/><path class="cls-2" d="M403.66,578.69c-9.89.84-18.58-.94-26.91-3.91-10.66-3.8-17.75-11.2-20.18-22.65a8.91,8.91,0,0,1,2-8c2-2.26,4.88-.27,6.64.83,14.53,9.16,30.65,9.26,46.85,8.42,7.25-.37,14.12-2.9,20.68-6.18,7-3.5,9.56-1.69,10,6.1.61,10.45-3.57,17.71-15.27,21.82A75.25,75.25,0,0,1,414,578.57C410.36,579.14,406.53,578.69,403.66,578.69Z" transform="translate(-104.6 -15.45)"/><path class="cls-2" d="M300,574.78c-8.85.75-17.54-1-25.87-4-10.67-3.8-17.76-11.2-20.19-22.64a8.86,8.86,0,0,1,1.95-8c2-2.29,4.88-.3,6.63.81,14.52,9.15,30.65,9.26,46.85,8.43,7.25-.38,14.12-2.9,20.68-6.18,7-3.5,9.55-1.7,10,6.07.65,10.43-3.77,17.69-15.22,21.91A59.7,59.7,0,0,1,300,574.78Z" transform="translate(-104.6 -15.45)"/><path class="cls-2" d="M464.43,516.13c-9,.79-17.9-1-26.44-4-10.66-3.82-17.71-11.27-20.12-22.7a8.7,8.7,0,0,1,2-8c2.05-2.16,4.88-.22,6.66.91,14.53,9.15,30.66,9.2,46.86,8.39,7.26-.36,14.1-2.95,20.67-6.22,7-3.48,9.48-1.63,10,6.2.62,10.4-3.77,17.59-15.32,21.85A58.76,58.76,0,0,1,464.43,516.13Z" transform="translate(-104.6 -15.45)"/><path class="cls-2" d="M465.15,637.33a62,62,0,0,1-27-3.88c-10.35-3.74-17.5-10.71-20.06-22-.77-3.42-.26-6.43,1.74-8.64,2.23-2.46,5.22-.17,7.2,1,12.28,7.41,25.69,8.58,39.61,8.44A61.69,61.69,0,0,0,494,605.87c7.05-3.48,9.6-1.72,10.08,6,.65,10.49-3.65,17.85-15.19,21.88a75.27,75.27,0,0,1-13.41,3.46C471.75,637.78,467.91,637.33,465.15,637.33Z" transform="translate(-104.6 -15.45)"/><path class="cls-2" d="M404.65,457.34a63.62,63.62,0,0,1-28.12-3.93c-10.35-3.78-17.36-11-19.84-22.17-.75-3.4-.11-6.43,2-8.55s4.86-.09,6.69,1.07c14.73,9.37,31.15,9.18,47.52,8.25,6.93-.4,13.65-2.94,20-6.2,6.65-3.4,9.46-1.57,9.73,5.76.46,12.13-3.86,18.51-15.42,22.35a76.19,76.19,0,0,1-12.78,3.3C410.78,457.77,407,457.34,404.65,457.34Z" transform="translate(-104.6 -15.45)"/><path class="cls-6" d="M400.59,330.71c-1.85,0-2.62-1.24-3.53-2.15-8-8-15.92-16.09-24.07-23.94-2.69-2.6-2.07-4.15.28-6.44,8-7.71,15.88-15.46,23.5-23.49,2.82-3,4.44-2.34,6.91.2,7.57,7.8,15.32,15.43,23,23.1,2,2,3.75,3.51.71,6.42-8.31,8-16.31,16.28-24.46,24.43A22.86,22.86,0,0,1,400.59,330.71Z" transform="translate(-104.6 -15.45)"/><path d="M290.89,229.57q0-3.27,0-6.54c1-5,4-9.11,6.37-13.51,13.78-20.86,46.43-17.24,55.87,6.33,2.16,5.4,1.3,10.89,1.3,16.38-.9,7.64-5.23,13.46-10.1,19-4.56,3.45-9.25,6.66-15.11,7.51H320C303.7,255.79,295.33,245.62,290.89,229.57Z" transform="translate(-104.6 -15.45)"/><circle class="cls-7" cx="208.78" cy="184.84" r="60.83"/><circle class="cls-8" cx="220.72" cy="200.83" r="31.04"/><circle class="cls-7" cx="388.67" cy="184.84" r="60.83"/><circle class="cls-7" cx="215.43" cy="190.88" r="12.66"/><circle class="cls-8" cx="379.56" cy="200.83" r="31.04"/><circle class="cls-7" cx="373.92" cy="191.36" r="12.66"/></svg>