<svg id="Layer_1" data-name="Layer 1" xmlns="http://www.w3.org/2000/svg" viewBox="0 0 442.94 527.33"><title>kyyneleet</title><path d="M421.09,324c.31,76.43-50.41,127.93-113,126-64.45-2-113.41-55.79-108.43-121.51,5.75-76,42.17-135.64,101.45-182.28,6-4.72,10.34-6.66,17.51-1C380.43,193.61,416.78,255.66,421.09,324Zm-29.45,2.33c-3.27-52.16-29.23-101.38-72.79-142.41-8.05-7.58-12.32-4.25-18.31,1.41-41.77,39.55-67.32,87.19-71.49,145.06-3.48,48.2,31.49,87.64,78.27,89.47C355.09,421.68,392,384.38,391.64,326.28Z" transform="translate(-199.27 -141.67)" style="fill:#090909"/><path d="M529.73,669c-71-.09-119.49-60.19-108.26-135.35,10.29-68.83,44.93-123.42,99.16-166.42,8.11-6.43,13.09-6,20.83.19,56.51,45.07,91.63,102.32,99.89,174.7C649.41,612.75,599.49,669.08,529.73,669ZM449.67,546.41c-.66,56.93,34.15,94,81.18,94,46.82,0,83.81-38.08,81.5-86.47-2.88-60.38-30-109.59-73.84-150.33-5.77-5.37-9.32-5.39-15.11,0C479.46,444.27,453.33,493.53,449.67,546.41Z" transform="translate(-199.27 -141.67)" style="fill:#070707"/><path d="M391.64,326.28c.31,58.1-36.55,95.4-84.32,93.53-46.78-1.83-81.75-41.27-78.27-89.47,4.17-57.87,29.72-105.51,71.49-145.06,6-5.66,10.26-9,18.31-1.41C362.41,224.9,388.37,274.12,391.64,326.28Z" transform="translate(-199.27 -141.67)" style="fill:#fdfdfd"/><path d="M449.67,546.41c3.66-52.88,29.79-102.14,73.73-142.82,5.79-5.36,9.34-5.34,15.11,0,43.85,40.74,71,89.95,73.84,150.33,2.31,48.39-34.68,86.48-81.5,86.47C483.82,640.41,449,603.34,449.67,546.41Z" transform="translate(-199.27 -141.67)" style="fill:#fdfdfd"/></svg>