<svg id="Layer_1" data-name="Layer 1" xmlns="http://www.w3.org/2000/svg" viewBox="0 0 434.45 424.73"><title>laukku</title><path d="M407.37,612.36H209.86c-18.2,0-22.1-4.26-17.72-22.34,7.5-31,15.82-61.72,23.92-92.53,8.28-31.5,16.72-62.95,25.06-94.44q11-41.66,21.94-83.35c2.38-9.17,7.51-13.05,17.41-12.74,21.16.64,42.35,0,63.52.32,7.1.12,10.4-1.1,12.13-9.31,5.56-26.21,11.5-52.42,21.88-77.31,3.25-7.8,6.63-15.52,12.16-22.1,12.68-15.11,27.84-14.54,39,1.64s16.11,34.71,20.67,53.35c3.63,14.87,6.92,29.87,9.35,45,1.11,6.85,3.58,8.86,10.31,8.77,25.79-.34,51.59.24,77.38-.32,10.6-.23,14.95,4.1,17.11,14.09Q591.42,448,619.53,574.76c1.32,6,3.28,11.84,4.59,17.84,3,13.55-2,19.72-15.78,19.73Q507.86,612.42,407.37,612.36Zm.39-21.3c60.85,0,121.71-.28,182.55.27,10.72.1,11.4-2.83,9.3-12.08-10.18-44.87-19.65-89.9-29.44-134.85-7.75-35.57-15.51-71.13-23.53-106.63-1-4.32-.77-10-8.48-9.83-22.72.42-45.45.13-68.17.19-2.56,0-6.14-.26-5,3.94,3.76,14.28.55,30,10,43.2,4.56,6.4,2.93,13.45-2.46,19-5.78,6-12.82,6.9-20,2.68-6.78-4-10.16-10.95-7.06-17.77,7.22-15.88-1-30.69-1.41-46-.12-4.69-3.18-5.18-7.08-5.16-19.64.13-39.28,0-58.92.11-2.44,0-6.34-1.32-6.73,2.43-1.59,15.6-10.54,30.63-3.61,46.95,3.14,7.39.61,13.75-5.41,18.4-6.61,5.1-13.71,4.76-20.14-.46-6.12-5-8.6-12.68-4.31-18.57,9.32-12.79,6.86-28.06,11.26-41.75,1.86-5.74-.05-7.26-5.83-7.16-18.1.3-36.21.39-54.3-.05-6.23-.15-7.58,3.05-8.83,7.9-6,23.36-12.28,46.66-18.4,70-15.27,58.24-30.25,116.56-46,174.66-2.62,9.63-.4,10.78,8.4,10.74C285.29,590.92,346.53,591.06,407.76,591.06Zm1.73-381.79c-5.53,3.13-7.79,8.57-10.06,13.76-10.93,25-16.53,51.6-23.07,77.91-1.43,5.78,1.58,6.32,6.14,6.28,16.12-.14,32.26-.49,48.36.13,8.11.31,9-3,7.44-9.49-4.78-20.07-8.86-40.32-14.35-60.19C421.14,227.52,417.35,217.28,409.49,209.27Z" transform="translate(-190.5 -187.63)" style="fill:#080808"/><path d="M407.76,591.06c-61.23,0-122.47-.14-183.71.17-8.8,0-11-1.11-8.4-10.74,15.79-58.1,30.77-116.42,46-174.66,6.12-23.34,12.39-46.64,18.4-70,1.25-4.85,2.6-8.05,8.83-7.9,18.09.44,36.2.35,54.3.05,5.78-.1,7.69,1.42,5.83,7.16-4.4,13.69-1.94,29-11.26,41.75-4.29,5.89-1.81,13.61,4.31,18.57,6.43,5.22,13.53,5.56,20.14.46,6-4.65,8.55-11,5.41-18.4-6.93-16.32,2-31.35,3.61-46.95.39-3.75,4.29-2.42,6.73-2.43,19.64-.1,39.28,0,58.92-.11,3.9,0,7,.47,7.08,5.16.38,15.28,8.63,30.09,1.41,46-3.1,6.82.28,13.78,7.06,17.77,7.17,4.22,14.21,3.28,20-2.68,5.39-5.53,7-12.58,2.46-19-9.41-13.17-6.2-28.92-10-43.2-1.1-4.2,2.48-3.93,5-3.94,22.72-.06,45.45.23,68.17-.19,7.71-.14,7.51,5.51,8.48,9.83,8,35.5,15.78,71.06,23.53,106.63,9.79,45,19.26,90,29.44,134.85,2.1,9.25,1.42,12.18-9.3,12.08C529.47,590.78,468.61,591.06,407.76,591.06Z" transform="translate(-190.5 -187.63)" style="fill:#fcfcfc"/><path d="M409.49,209.27c7.86,8,11.65,18.25,14.46,28.4,5.49,19.87,9.57,40.12,14.35,60.19,1.55,6.49.67,9.8-7.44,9.49-16.1-.62-32.24-.27-48.36-.13-4.56,0-7.57-.5-6.14-6.28C382.9,274.63,388.5,248,399.43,223,401.7,217.84,404,212.4,409.49,209.27Z" transform="translate(-190.5 -187.63)" style="fill:#fcfcfc"/></svg>