<svg id="Layer_1" data-name="Layer 1" xmlns="http://www.w3.org/2000/svg" viewBox="0 0 540.05 446.38"><title>lippalakki</title><path d="M152,478.87c0-3.76-.32-7.56,0-11.29,1.18-11.65,0-20.3-13.07-26.64-13.39-6.49-19.46-21-16.91-35.91C142,288.6,202.56,202.18,314.12,158.27c81.63-32.13,157.88-12.91,225.92,39s107.64,121.68,121,206.22a38.88,38.88,0,0,1-23,41.82c-5.76,2.53-7,5.55-7.14,11.3-.4,22.52,2,45.11-3.72,67.45-13.58,53.1-68.58,80.53-119,55.63-76.07-37.53-154.45-39.57-230.36-1.24-55.86,28.2-121.62-5.23-125.63-77-.42-7.51-.05-15.06-.05-22.59Zm489.13-70.69c-2.7-3.88-1.66-9.56-2.72-14.92-10.79-54.89-34.91-103.22-72.31-144.6-33.4-36.95-73.27-64.33-122.13-77.11-2.27-.59-5.63-2.08-6.75-1.12-9.79,8.36-17.93,1.87-26.21-2.51-5.41-2.86-9.33-4.33-10.59,4.11-.67,4.51-4.59,6.36-9.3,6.25-4.36-.11-7.92-2.34-8.32-6.18-1.08-10.49-6.6-6.12-11.25-3.74-8.19,4.19-15.93,10.14-25.26,2.13-1.82-1.57-4.5.31-6.81.9C298.7,181.72,264,203,233.71,231.44c-50.4,47.44-80.51,105.92-91.55,174.23-1.87,11.56,8.86,23.87,20.65,22.7,26.76-2.65,53.43-6.06,80.18-8.78,5.82-.59,8.69-2.1,8-8.57-.59-5.77,2-9.9,8.39-10.67,6.82-.81,11.22,2.77,11.31,8.88.13,7.52,3.61,8.11,9.55,7.75,40.33-2.43,80.71-2.29,121.09-2.33,34.89,0,69.75.58,104.51,3.85,5.69.54,6.05-2.32,6.16-6.62.15-6.42,2.31-11.52,10-11.52,8.24,0,10.52,5.1,10.14,12.2-.25,4.76.89,8,6.44,8.28,27.25,1.21,54.26,4.65,81.3,8.09C630.1,430.22,640.82,419.71,641.12,408.18Zm-251.47,27.1v-1.93c-12,0-24-.62-35.95.11-43.88,2.69-87.9,3.23-131.66,7.89-14.54,1.54-29.11,2.84-43.66,4.29-3.56.35-5.86,2.34-5.73,6,.81,22.16-3.09,44.61,2.44,66.44,10.07,39.73,49.2,60.49,84.44,45.4,7.53-3.22,14.9-6.83,22.43-10.06,43.59-18.68,89.34-25,136.19-20.95,35.88,3.12,70.26,13.82,102.43,30C559.5,582,600,554.5,608.49,515.2c4-18.29.55-36.87,2.26-55.19,1-10.63-3.75-13.75-12.89-14.51-39.68-3.32-79.29-7.76-119-9.9C449.18,434,419.38,435.28,389.65,435.28Z" transform="translate(-121.49 -142.57)" style="fill:#020202"/><path d="M641.12,408.18c-.3,11.53-11,22-21.21,20.75-27-3.44-54-6.88-81.3-8.09-5.55-.25-6.69-3.52-6.44-8.28.38-7.1-1.9-12.21-10.14-12.2-7.7,0-9.86,5.1-10,11.52-.11,4.3-.47,7.16-6.16,6.62-34.76-3.27-69.62-3.89-104.51-3.85-40.38,0-80.76-.1-121.09,2.33-5.94.36-9.42-.23-9.55-7.75-.09-6.11-4.49-9.69-11.31-8.88-6.43.77-9,4.9-8.39,10.67.67,6.47-2.2,8-8,8.57-26.75,2.72-53.42,6.13-80.18,8.78-11.79,1.17-22.52-11.14-20.65-22.7,11-68.31,41.15-126.79,91.55-174.23,30.24-28.46,65-49.72,105.76-60.05,2.31-.59,5-2.47,6.81-.9,9.33,8,17.07,2.06,25.26-2.13,4.65-2.38,10.17-6.75,11.25,3.74.4,3.84,4,6.07,8.32,6.18,4.71.11,8.63-1.74,9.3-6.25,1.26-8.44,5.18-7,10.59-4.11,8.28,4.38,16.42,10.87,26.21,2.51,1.12-1,4.48.53,6.75,1.12,48.86,12.78,88.73,40.16,122.13,77.11,37.4,41.38,61.52,89.71,72.31,144.6C639.46,398.62,638.42,404.3,641.12,408.18Zm-123-97.11a54.57,54.57,0,0,0-4.69-18.59c-2.24-4.71-6.46-6-11.2-4.86-5,1.22-7.48,4.94-6.62,10a128.44,128.44,0,0,0,4.3,17.74,8.64,8.64,0,0,0,10.43,6.12C515.28,320.37,518.9,317.14,518.09,311.07ZM254.88,362.68c-1.16,6.61-.37,12.88,7.51,14.11,8.46,1.31,11-4.9,11.89-11.87.54-4.36.82-8.76,1-13.16.2-5-3.18-7.35-7.32-8.52-4.5-1.28-8,.76-10.43,4.52C254.61,352.3,254.92,357.51,254.88,362.68ZM475.27,205.41c-.74-6.21-6.07-11.69-10.69-17.43-3.43-4.25-8.21-4.77-12.78-1.89-4.83,3-5.49,8.34-3.17,12.65a76.46,76.46,0,0,0,11.55,15.37c2.55,2.75,6.26,3.44,10.26,1.33C474,213.55,475,210.73,475.27,205.41Zm52.81,157.87a33.93,33.93,0,0,0,0-5c-1.08-7.08-1.58-15.51-11.38-15-10.28.5-9.33,8.79-8.81,16.07a58.62,58.62,0,0,0,.68,6.05c1.12,6.44,3.51,12.47,11.3,11.63S529.35,370.32,528.08,363.28ZM501,254.46c-3.11-6.59-4.21-14.38-9.56-20-2.75-2.87-6.69-3.81-10.35-1.44-3.86,2.49-7.38,5.88-5.64,10.95A105.55,105.55,0,0,0,483,260.74c2.31,4.18,6.81,4.61,10.91,3.32C498.14,262.72,499.91,258.86,501,254.46ZM306.52,242.37c-.15-4.08-2.59-8-9-8.36s-15.73,12.62-15.71,22.25c0,6.46,3.72,10.14,10.22,10.18S306.42,254,306.52,242.37Zm94.15,147.86h.1c0-2.73-.1-5.46,0-8.18.3-6.55-4-9.87-9.31-9.9s-9.58,3.24-9.36,9.81c.19,5.45-.1,10.92.24,16.36s4.41,7.74,9.08,7.76,8.64-2.24,9.18-7.67C400.89,395.71,400.67,393,400.67,390.23Zm.06-171.59h.06c0-2.39-.09-4.78,0-7.17.3-6.41-3.46-9.91-9.1-10.06s-9.63,3-9.56,9.53q.09,7.68,0,15.36c0,6,4,8.93,9,9s9.26-2.47,9.51-8.52C400.82,224.11,400.73,221.37,400.73,218.64ZM265.1,307.91c-.47,7.28,1.41,11.92,8.51,12.28,9.69.49,10.33-6.3,13.7-21.52,1.4-6.36-3.47-10.23-9.35-11.05C271.19,286.67,265.48,296.53,265.1,307.91Zm43-101.31c.07,5.11,2.86,8.66,9.18,8.81,6.05.13,17.41-12.95,17.56-20.11.13-6.46-4.42-9.17-9.48-10.17C319.8,184,308.35,198.24,308.09,206.6Zm92.53,68.66h.18c0-2.05-.05-4.09,0-6.13.16-6.54-2.67-10.48-9.51-10.44-6.33,0-9.1,3.83-9.16,9.83-.05,5.1,0,10.21.14,15.31.16,5.58,3.67,7.76,8.73,7.83s8.72-2,9.53-7.23C401,281.44,400.62,278.32,400.62,275.26Zm.15,57.07h0c0-1.7-.07-3.4,0-5.09.31-6.81-2.18-11.37-9.67-11.28-7,.08-9.13,4.67-9,10.9,0,4.07,0,8.14,0,12.21.13,5.95,2.81,9.66,9.16,9.73s9.3-3.23,9.45-9.36C400.82,337.07,400.77,334.7,400.77,332.33Z" transform="translate(-121.49 -142.57)" style="fill:#616161"/><path d="M389.65,435.28c29.73,0,59.53-1.28,89.18.32,39.74,2.14,79.35,6.58,119,9.9,9.14.76,13.88,3.88,12.89,14.51-1.71,18.32,1.7,36.9-2.26,55.19-8.51,39.3-49,66.78-87.91,47.23-32.17-16.16-66.55-26.86-102.43-30-46.85-4.08-92.6,2.27-136.19,20.95-7.53,3.23-14.9,6.84-22.43,10.06-35.24,15.09-74.37-5.67-84.44-45.4-5.53-21.83-1.63-44.28-2.44-66.44-.13-3.64,2.17-5.63,5.73-6,14.55-1.45,29.12-2.75,43.66-4.29,43.76-4.66,87.78-5.2,131.66-7.89,11.94-.73,24-.11,35.95-.11Z" transform="translate(-121.49 -142.57)" style="fill:#343434"/><path d="M518.09,311.07c.81,6.07-2.81,9.3-7.78,10.37a8.64,8.64,0,0,1-10.43-6.12,128.44,128.44,0,0,1-4.3-17.74c-.86-5,1.6-8.74,6.62-10,4.74-1.16,9,.15,11.2,4.86A54.57,54.57,0,0,1,518.09,311.07Z" transform="translate(-121.49 -142.57)" style="fill:#020202"/><path d="M254.88,362.68c0-5.17-.27-10.38,2.66-14.92C260,344,263.47,342,268,343.24c4.14,1.17,7.52,3.52,7.32,8.52-.19,4.4-.47,8.8-1,13.16-.88,7-3.43,13.18-11.89,11.87C254.51,375.56,253.72,369.29,254.88,362.68Z" transform="translate(-121.49 -142.57)" style="fill:#020202"/><path d="M475.27,205.41c-.27,5.32-1.23,8.14-4.83,10-4,2.11-7.71,1.42-10.26-1.33a76.46,76.46,0,0,1-11.55-15.37c-2.32-4.31-1.66-9.6,3.17-12.65,4.57-2.88,9.35-2.36,12.78,1.89C469.2,193.72,474.53,199.2,475.27,205.41Z" transform="translate(-121.49 -142.57)" style="fill:#020202"/><path d="M528.08,363.28c1.27,7-.55,12.84-8.25,13.68s-10.18-5.19-11.3-11.63a58.62,58.62,0,0,1-.68-6.05c-.52-7.28-1.47-15.57,8.81-16.07,9.8-.48,10.3,8,11.38,15A33.93,33.93,0,0,1,528.08,363.28Z" transform="translate(-121.49 -142.57)" style="fill:#020202"/><path d="M501,254.46c-1.06,4.4-2.83,8.26-7.11,9.6-4.1,1.29-8.6.86-10.91-3.32A105.55,105.55,0,0,1,475.42,244c-1.74-5.07,1.78-8.46,5.64-10.95,3.66-2.37,7.6-1.43,10.35,1.44C496.76,240.08,497.86,247.87,501,254.46Z" transform="translate(-121.49 -142.57)" style="fill:#020202"/><path d="M306.52,242.37c-.1,11.65-8,24.12-14.45,24.07s-10.2-3.72-10.22-10.18c0-9.63,9.33-22.6,15.71-22.25S306.37,238.29,306.52,242.37Z" transform="translate(-121.49 -142.57)" style="fill:#020202"/><path d="M400.67,390.23c0,2.73.22,5.48-.05,8.18-.54,5.43-4.52,7.69-9.18,7.67s-8.75-2.31-9.08-7.76-.05-10.91-.24-16.36c-.22-6.57,4.05-9.84,9.36-9.81s9.61,3.35,9.31,9.9c-.12,2.72,0,5.45,0,8.18Z" transform="translate(-121.49 -142.57)" style="fill:#020202"/><path d="M400.73,218.64c0,2.73.09,5.47,0,8.19-.25,6-4.51,8.64-9.51,8.52s-9-3-9-9q0-7.68,0-15.36c-.07-6.49,4-9.67,9.56-9.53s9.4,3.65,9.1,10.06c-.11,2.39,0,4.78,0,7.17Z" transform="translate(-121.49 -142.57)" style="fill:#020202"/><path d="M265.1,307.91c.38-11.38,6.09-21.24,12.86-20.29,5.88.82,10.75,4.69,9.35,11.05-3.37,15.22-4,22-13.7,21.52C266.51,319.83,264.63,315.19,265.1,307.91Z" transform="translate(-121.49 -142.57)" style="fill:#020202"/><path d="M308.09,206.6c.26-8.36,11.71-22.57,17.26-21.47,5.06,1,9.61,3.71,9.48,10.17-.15,7.16-11.51,20.24-17.56,20.11C311,215.26,308.16,211.71,308.09,206.6Z" transform="translate(-121.49 -142.57)" style="fill:#020202"/><path d="M400.62,275.26c0,3.06.38,6.18-.08,9.17-.81,5.24-4.58,7.31-9.53,7.23s-8.57-2.25-8.73-7.83c-.16-5.1-.19-10.21-.14-15.31.06-6,2.83-9.79,9.16-9.83,6.84,0,9.67,3.9,9.51,10.44-.06,2,0,4.08,0,6.13Z" transform="translate(-121.49 -142.57)" style="fill:#020202"/><path d="M400.77,332.33c0,2.37.05,4.74,0,7.11-.15,6.13-3.22,9.42-9.45,9.36s-9-3.78-9.16-9.73c-.09-4.07,0-8.14,0-12.21-.08-6.23,2-10.82,9-10.9,7.49-.09,10,4.47,9.67,11.28-.08,1.69,0,3.39,0,5.09Z" transform="translate(-121.49 -142.57)" style="fill:#020202"/></svg>