<svg id="Layer_1" data-name="Layer 1" xmlns="http://www.w3.org/2000/svg" viewBox="0 0 517.71 319.24"><title>mexico</title><path d="M653.65,337.44c5.54-1.64,5.16,3.33,5.28,5.72,1.14,24.76,1.12,49-10.41,72.41-19.26,39.09-49.8,64.11-89.77,79.79-45.71,17.94-92.34,28.92-141.89,27.2-31.53-1.09-63.13.35-94.41-5.3-48.06-8.68-93.23-24.42-132.89-53.8-8.47-6.27-15.65-13.75-20.53-23.21-10.16-19.71-24-37.87-26.29-60.93-1.26-12.47-1.88-25,1.11-37.32.62-2.57.06-6.89,5.14-4.4,3.56,10.14,10.59,17.74,18.33,24.76,26.1,23.68,56.56,39.06,90.67,47.47,11.8,2.91,23.8,5.22,35.33,9a203.86,203.86,0,0,0,58.6,9.85c24,.52,48,1.63,72.05.71,27.09-1,53.63-6.52,80.6-8,18.9-1.05,35-11.08,52.54-16.31,35.9-10.69,66.8-29.41,91.78-57.57C651.52,344.49,654.32,341.86,653.65,337.44Zm-376.9,155.2,2.56.93c12-12.66,24-25.38,36.07-37.95,3.3-3.43,1.83-4.9-1.75-6.23-10.6-3.92-21.21-7.8-31.72-11.95-4-1.57-5.28-.89-5.23,3.55C276.85,458.21,276.75,475.42,276.75,492.64Zm74.46,19.29c11.1-16.83,20.86-31.7,30.72-46.51,2.21-3.32.36-4.1-2.41-4.62-11.71-2.18-23.41-4.38-35.13-6.53-2.37-.44-4.42,0-3.83,3.08C343.91,474.79,347.35,492.22,351.21,511.93Zm159.05-7.6,2.27-.49c3.29-16.83,6.4-33.69,10-50.45,1.08-5.12-1.55-4.95-4.74-4.33-11.34,2.22-22.64,4.67-34,6.9-3.26.64-4,1.84-2.11,4.74Q496.05,482.48,510.26,504.33ZM216,466.39c12.5-11.84,25.13-23.83,37.81-35.76,2.25-2.11,2.91-3.58-.61-5.08-10.67-4.55-21.25-9.3-31.88-13.92-2.94-1.28-5.33-1.34-5.33,2.92C216,431.65,216,448.75,216,466.39Zm215.4,49.23c7.42-16.92,14.34-32.6,21.17-48.33,1.44-3.32-.52-4.21-3.43-4.22-11,0-22-.08-33-.12-3.12,0-4.08,1.07-3.13,4.41C417.59,483.45,422.78,499.28,431.41,515.62Zm151.64-38.76c1.59-18.73,3.06-35.14,4.35-51.56.39-4.94-2.22-5.3-6.25-3.77-7.77,2.94-15.64,5.64-23.51,8.34-9.72,3.34-10.43,4.73-3.78,13C562.76,453.86,572.29,464.38,583.05,476.86ZM173.69,427.49c9.12-5.59,16.12-9.87,23.11-14.17,1.7-1.05,5.06-2.73,3.63-4.1-4.87-4.66-10.56-8.47-16-12.56a1.89,1.89,0,0,0-3,.47,9.18,9.18,0,0,0-.81,2.52C178.56,407.93,176.5,416.21,173.69,427.49ZM626,431.18c1.31-5.61-.37-9.9-1.17-14.17-3.85-20.52,1.32-19.19-18.35-8.18-3.63,2-4.87,3.89-.7,6.9C612.36,420.49,618.71,425.61,626,431.18Z" transform="translate(-141.7 -203.5)" style="fill:#dca105"/><path d="M303.24,350.59c5.49-12.67,5.88-26.58,9.88-39.69,6.44-21.12,12.62-42.31,24.38-61.14,12.45-19.92,27.43-38.32,51.21-44.42,19.74-5.07,37.94.43,53.31,15.08,27.58,26.3,38.48,60.92,48.87,95.79,3.73,12.52,6,25.46,9,38.21,2.19,12.23,4.35,24.47,6.61,36.69.89,4.79.19,7-5.68,8.32-18.59,4.15-37.57,7.19-56.28,7.78-46.56,1.45-93.28,2-139.48-6.36-9.79-1.77-10.76-3-8.5-12.69C299.45,375.76,302.9,363.45,303.24,350.59Z" transform="translate(-141.7 -203.5)" style="fill:#dca101"/><path d="M303.24,350.59c-.34,12.86-3.79,25.17-6.69,37.57-2.26,9.66-1.29,10.92,8.5,12.69,46.2,8.38,92.92,7.81,139.48,6.36,18.71-.59,37.69-3.63,56.28-7.78,5.87-1.31,6.57-3.53,5.68-8.32-2.26-12.22-4.42-24.46-6.61-36.69l17.75-6c4.72,11.66,4.3,24.3,6.89,36.39,1.13,5.31,2.33,6.9,8,5.42,25.72-6.73,50.34-15.91,72.05-31.56,11.44-8.23,24.09-15.45,29.93-29.46,7.32.58,13.15,4.61,19.14,8.26.67,4.42-2.13,7.05-4.76,10-25,28.16-55.88,46.88-91.78,57.57-17.57,5.23-33.64,15.26-52.54,16.31-27,1.51-53.51,7-80.6,8-24.06.92-48.07-.19-72.05-.71a203.86,203.86,0,0,1-58.6-9.85c-11.53-3.75-23.53-6.06-35.33-9-34.11-8.41-64.57-23.79-90.67-47.47-7.74-7-14.77-14.62-18.33-24.76,4.69-5.21,10.13-8.87,17.55-8.39A63.52,63.52,0,0,0,183,348.71c25.68,20.72,55.1,33.62,86.83,41.84,4.23,1.09,5.88.71,6.57-3.81,2.09-13.44,4.5-26.84,6.78-40.26C289.69,348.76,296.46,349.7,303.24,350.59Z" transform="translate(-141.7 -203.5)" style="fill:#856101"/><path d="M634.51,329.18c-5.84,14-18.49,21.23-29.93,29.46-21.71,15.65-46.33,24.83-72.05,31.56-5.68,1.48-6.88-.11-8-5.42-2.59-12.09-2.17-24.73-6.89-36.39a5.87,5.87,0,0,1,4.08-3.21C558.89,336.88,595.92,327.5,634.51,329.18Z" transform="translate(-141.7 -203.5)" style="fill:#dca105"/><path d="M283.2,346.48c-2.28,13.42-4.69,26.82-6.78,40.26-.69,4.52-2.34,4.9-6.57,3.81-31.73-8.22-61.15-21.12-86.83-41.84a63.52,63.52,0,0,1-16.48-19.5c29.08-1.4,57.43,3.71,85.65,9.82C262.58,341.28,272.87,344,283.2,346.48Z" transform="translate(-141.7 -203.5)" style="fill:#dca105"/><path d="M276.75,492.64c0-17.22.1-34.43-.07-51.65-.05-4.44,1.25-5.12,5.23-3.55,10.51,4.15,21.12,8,31.72,11.95,3.58,1.33,5.05,2.8,1.75,6.23-12.1,12.57-24.06,25.29-36.07,37.95Z" transform="translate(-141.7 -203.5)" style="fill:#2a09e7"/><path d="M351.21,511.93c-3.86-19.71-7.3-37.14-10.65-54.58-.59-3.08,1.46-3.52,3.83-3.08,11.72,2.15,23.42,4.35,35.13,6.53,2.77.52,4.62,1.3,2.41,4.62C372.07,480.23,362.31,495.1,351.21,511.93Z" transform="translate(-141.7 -203.5)" style="fill:#df0be8"/><path d="M510.26,504.33Q496,482.51,481.68,460.7c-1.91-2.9-1.15-4.1,2.11-4.74,11.33-2.23,22.63-4.68,34-6.9,3.19-.62,5.82-.79,4.74,4.33-3.57,16.76-6.68,33.62-10,50.45Z" transform="translate(-141.7 -203.5)" style="fill:#0dfcce"/><path d="M216,466.39c0-17.64,0-34.74,0-51.84,0-4.26,2.39-4.2,5.33-2.92,10.63,4.62,21.21,9.37,31.88,13.92,3.52,1.5,2.86,3,.61,5.08C241.14,442.56,228.51,454.55,216,466.39Z" transform="translate(-141.7 -203.5)" style="fill:#09ec0b"/><path d="M431.41,515.62c-8.63-16.34-13.82-32.17-18.43-48.26-1-3.34,0-4.42,3.13-4.41,11,0,22,.1,33,.12,2.91,0,4.87.9,3.43,4.22C445.75,483,438.83,498.7,431.41,515.62Z" transform="translate(-141.7 -203.5)" style="fill:#fe0404"/><path d="M583.05,476.86c-10.76-12.48-20.29-23-29.19-34-6.65-8.23-5.94-9.62,3.78-13,7.87-2.7,15.74-5.4,23.51-8.34,4-1.53,6.64-1.17,6.25,3.77C586.11,441.72,584.64,458.13,583.05,476.86Z" transform="translate(-141.7 -203.5)" style="fill:#146d0a"/><path d="M173.69,427.49c2.81-11.28,4.87-19.56,6.95-27.84a9.18,9.18,0,0,1,.81-2.52,1.89,1.89,0,0,1,3-.47c5.41,4.09,11.1,7.9,16,12.56,1.43,1.37-1.93,3-3.63,4.1C189.81,417.62,182.81,421.9,173.69,427.49Z" transform="translate(-141.7 -203.5)" style="fill:#fcfcfc"/><path d="M626,431.18c-7.25-5.57-13.6-10.69-20.22-15.45-4.17-3-2.93-4.87.7-6.9,19.67-11,14.5-12.34,18.35,8.18C625.59,421.28,627.27,425.57,626,431.18Z" transform="translate(-141.7 -203.5)" style="fill:#fe0404"/></svg>