<svg id="Layer_1" data-name="Layer 1" xmlns="http://www.w3.org/2000/svg" viewBox="0 0 451.45 448.64"><title>mustahattu</title><path d="M408.58,614c-54.91-1.09-111.43-5.16-166-23-14.18-4.63-27.93-10.36-40.15-19.14-23.53-16.9-23.72-36.21-.2-52.94,19.1-13.59,41.09-20.7,63.61-25.88,8-1.85,10.73-4.58,10-13.19-6.56-74.6-13.49-149.11-34.35-221.49a227.87,227.87,0,0,0-12.82-33.73c-6.38-13.6-4-22.27,8.64-30.92,13.73-9.38,29.44-14.07,45.52-17,89.41-16.27,178.59-15.43,267.31,5,13.15,3,25.86,7.71,36.81,16,7.77,5.89,12.24,13.43,7.52,23.08-18.5,37.79-26,78.63-32.83,119.52-7.76,46.22-12.38,92.83-16.15,139.55-.72,8.91,2.16,11.36,10,13.09,18.38,4,36.3,9.89,52.75,19.23,13.3,7.54,28,15.28,27.9,33.21s-14.74,25.73-28.17,33c-28.12,15.28-59,21.89-90.21,27.13C482.28,611.55,446.49,613.52,408.58,614Z" transform="translate(-184.63 -165.37)" style="fill:#010101"/></svg>