<svg id="Layer_1" data-name="Layer 1" xmlns="http://www.w3.org/2000/svg" viewBox="0 0 554.24 158.67"><title>naamio</title><path d="M560.64,455.05c-52.55-.65-94.88-21.05-125.16-64.74-7.13-10.29-28.83-10.13-36,.31-35.79,52.1-101.5,76.53-162,60.16-31.56-8.55-52.18-28-59-60.54-1.17-5.56-3.31-6.8-8.57-7-29.42-1.24-29.41-1.39-29.41-31.41,0-18.78,0-19.3,19.41-18.6,13.15.47,23.89-2.37,35.06-10.44,41.05-29.62,86.47-30.9,133.55-17.29a476.21,476.21,0,0,1,60.57,21.91c19.14,8.47,38.11,8.25,57.43-.07,37.07-16,74.77-29.94,116-30a128.09,128.09,0,0,1,81.93,28.52c10.91,8.73,22.11,6.92,33.68,7.14,16.62.32,16.64.11,16.65,16.85V351c0,30.47,0,30.5-29.78,32.33-3.67.22-7-.19-7.81,5-7.77,47.65-50.89,67-91.7,66.78ZM277.36,414.26c6.31-.65,12.61-1.35,18.93-1.94s12.66-.94,19-1.64c16.11-1.81,23.59-8.28,27.62-23.64,4.44-16.94-3.1-36.18-18.92-40.93-27.05-8.14-54.77-12.48-82.14,0-18.34,8.35-24,29.77-13.32,46.84C240.13,411.52,258.16,413.64,277.36,414.26Zm274.81-.57c25.68.3,44.26-2.75,55.69-22.54,9-15.6,3-37.13-13.11-44.63C567.1,333.66,539,337.9,511.46,346c-14.93,4.38-22.24,20.58-20,37.38,2.1,15.94,10.3,25,25.9,27C530.68,412.18,544.17,413,552.17,413.69Z" transform="translate(-140.48 -297.14)" style="fill:#040404"/></svg>