<svg id="Layer_1" data-name="Layer 1" xmlns="http://www.w3.org/2000/svg" viewBox="0 0 655.81 289.8"><title>pyoreetlasit</title><path d="M107.34,385.21c-.4-12.2.55-23.73,4-34.68,2.43-7.63.13-11.14-6.67-14-5-2.09-12.42-2.89-12.73-9.93-.44-10.2-2.21-20.67,1.14-30.65,1.4-4.15,5.94-4.08,9.89-4.2,23.29-.65,43.22-8.51,62-23.16C223.15,223.18,306.9,231,357.47,285.56c5.37,5.79,8.34,6.67,15.63,2.46,30.2-17.43,61.37-17.61,91.57-.15,7.95,4.59,11.08,2.86,16.46-2.89,51.67-55.22,137.2-61.5,195.4-13.89,17,13.87,36,19.92,57,20.52,10.1.28,13.9,4.24,13.07,13.92a56,56,0,0,0,0,12.61c1.36,9.62-2.5,15.29-11.72,17.9-8.63,2.43-9.86,7.2-7.73,16.25,18.69,79.27-35.14,160.65-114.54,174.15C529.38,540.59,452.49,484,443.12,401.31c-.75-6.67-2.34-9.47-9.48-9a254.25,254.25,0,0,1-28.69,0c-6.56-.33-9.1,1.28-9.92,8.54-7.91,69.82-65.71,124.36-134.8,127.78-70.91,3.51-133.6-43.46-149.48-112.19C108.34,406,106.87,395.36,107.34,385.21Zm350.85-1.76c-.07,50.09,28.14,95.93,73.75,116.52C580.7,522,627.5,516.35,668.36,482c40.42-33.94,54.11-78.42,41.82-130.12-4.43-18.66-4.87-18.55,12.63-28.21a16.73,16.73,0,0,1,3.05-1.59c5.74-1.72,4.4-6.43,4.34-10.45-.07-4.84-4.08-3.53-6.81-3.88-22.52-2.91-41.86-11.79-60.08-25.95-54.83-42.61-132.68-32.42-176.74,21.77C476.49,316,476.49,316,464.06,306.77a74.81,74.81,0,0,0-89.8-.14c-12.63,9.35-12.63,9.35-22.54-2.86-43.84-54-121-64.59-175.77-22.71-18.91,14.47-38.72,24.12-62.15,26.76-2.53.28-5.89-.37-5.78,3.67.09,3.25-1.56,7.11,2.14,9.47,2.24,1.43,4.78,2.39,7.12,3.69,15.49,8.66,15.62,9,10.93,26-21.93,79.55,37.51,159.64,120.08,161.78,87.58,2.27,151.47-81.81,125.7-166-2.95-9.64-.73-14.77,7.13-19.91,24.23-15.86,55.94-15.18,78.58,1.92,5.61,4.24,7.74,8.43,5,15.61C460,356.63,458.33,370,458.19,383.45Zm-38.56-7.78c20.85,0,20.85,0,24.79-18.9s2.22-21.23-17.34-24.53a48.29,48.29,0,0,0-19.33.74c-17.13,4-18,5.19-14.59,21.55C397.58,375.67,397.58,375.67,419.63,375.67Z" transform="translate(-91.12 -239.01)" style="fill:#090909"/><path d="M458.2,383.45c.13-13.48,1.75-26.82,6.52-39.43,2.72-7.18.59-11.37-5-15.61-22.64-17.1-54.35-17.78-78.58-1.92-7.86,5.14-10.08,10.27-7.13,19.91,25.77,84.21-38.12,168.29-125.7,166-82.57-2.14-142-82.23-120.08-161.78,4.69-17,4.56-17.33-10.93-26-2.34-1.3-4.88-2.26-7.12-3.69-3.7-2.36-2-6.22-2.14-9.47-.11-4,3.25-3.39,5.78-3.67,23.43-2.64,43.24-12.29,62.15-26.76,54.74-41.88,131.93-31.26,175.77,22.71,9.91,12.21,9.91,12.21,22.54,2.86a74.81,74.81,0,0,1,89.8.14c12.43,9.22,12.43,9.22,22.51-3.17,44.06-54.19,121.91-64.38,176.74-21.77,18.22,14.16,37.56,23,60.08,25.95,2.73.35,6.74-1,6.81,3.88.06,4,1.4,8.73-4.34,10.45a16.73,16.73,0,0,0-3.05,1.59c-17.5,9.66-17.06,9.55-12.63,28.21,12.29,51.7-1.4,96.18-41.82,130.12C627.5,516.35,580.7,522,531.94,500,486.33,479.38,458.12,433.54,458.2,383.45Zm-106.26,1c.17-55.82-44.85-101.16-100.27-101-55,.18-100,45.11-100.21,100.08-.17,55.57,45.07,101,100.47,101C307,484.49,351.77,439.69,351.94,384.46Zm134.26-.61a100.32,100.32,0,0,0,99.4,100.69c55.22.56,101.06-44.94,101.11-100.36s-45.43-100.95-100.77-100.7C530.83,283.73,486.28,328.55,486.2,383.85Z" transform="translate(-91.12 -239.01)" style="fill:#f8f8f8"/><path d="M419.63,375.67c-22.05,0-22.05,0-26.47-21.14-3.41-16.36-2.54-17.54,14.59-21.55a48.29,48.29,0,0,1,19.33-.74c19.56,3.3,21.26,5.74,17.34,24.53S440.48,375.67,419.63,375.67Z" transform="translate(-91.12 -239.01)" style="fill:#f8f8f8"/><path d="M351.94,384.46c-.17,55.23-44.94,100-100,100.08-55.4.06-100.64-45.4-100.47-101,.16-55,45.16-99.9,100.21-100.08C307.09,283.3,352.11,328.64,351.94,384.46Zm-16.42.58c.38-46.58-36.62-84.63-82.67-85a84.43,84.43,0,0,0-85,84.13c-.13,45.89,38,83.91,84.12,83.82A83.83,83.83,0,0,0,335.52,385Z" transform="translate(-91.12 -239.01)" style="fill:#090909"/><path d="M486.2,383.85c.08-55.3,44.63-100.12,99.74-100.37,55.34-.25,100.83,45.21,100.77,100.7S640.82,485.1,585.6,484.54A100.32,100.32,0,0,1,486.2,383.85Zm16.45-.36A83.73,83.73,0,0,0,585.81,468c46,.39,84.28-37.42,84.54-83.45s-37.22-84-83.49-84.51C540.77,299.57,502.85,337.15,502.65,383.49Z" transform="translate(-91.12 -239.01)" style="fill:#090909"/><path d="M335.52,385A83.83,83.83,0,0,1,252,468c-46.1.09-84.25-37.93-84.12-83.82a84.43,84.43,0,0,1,85-84.13C298.9,300.41,335.9,338.46,335.52,385Z" transform="translate(-91.12 -239.01)" style="fill:#fdfdfd"/><path d="M502.65,383.49c.2-46.34,38.12-83.92,84.21-83.46,46.27.47,83.75,38.4,83.49,84.51S631.79,468.38,585.81,468A83.73,83.73,0,0,1,502.65,383.49Z" transform="translate(-91.12 -239.01)" style="fill:#fdfdfd"/></svg>