<svg id="Layer_1" data-name="Layer 1" xmlns="http://www.w3.org/2000/svg" viewBox="0 0 563.96 270.44"><title>rusetti</title><path d="M682,375.89c-.72,31.15-6.92,64.77-28.06,94.18-6.88,9.57-15.65,17.14-24.64,24.63-16,13.32-33.74,10.81-51.89,6.73-52.09-11.7-92.91-42-129.41-79.05-4.89-5-7.82-5.35-14.58-3.25-24.85,7.7-50,9.16-73.38-5.15-5.86-3.58-7.35.83-9.82,3.2-27.53,26.39-58.09,48.15-93.72,62.3a191.37,191.37,0,0,1-62.36,13.32c-8.69.39-15.85-2.08-22.83-6.85-26.16-17.85-40.83-43.35-47.85-73.37A196.43,196.43,0,0,1,131,296.52c4.79-12.76,12-24.12,20.63-34.73C171.74,237,195.85,228.64,227.57,238c50,14.67,90.42,43.2,125.32,80.67,4.68,5,7.37,6,14.38,3.09,23.32-9.69,47.34-8.08,70.33,1.52,6.54,2.73,9.51,1.9,14.12-2.52,35.34-33.86,75.27-59.82,123.85-70.48,2.45-.53,5-.75,7.38-1.4,34-9.25,56.95,6.62,74.93,33.15C676.24,309.07,681.72,339.77,682,375.89Zm-433.7-107.7c0-.43,0-.85,0-1.27l-1.1.45,1.29.64c-.31,2.27,1.59,3.24,2.79,4.54q36.93,40.4,73.95,80.73c3.68,4,7.45,8,11.3,12.09,1.93-6.17,2.85-11.95,5.48-16.8,3.13-5.76,2-9.44-2.22-14C323.13,316.46,305,300,284.24,286.7,272.86,279.42,262,271,248.28,268.19Zm378.09,10.44c-.36-.51-.72-1-1.06-1.53-7.3-10.73-22.38-12.06-32-2.76q-59.73,57.89-119.44,115.8c-14.89,14.42-14.8,14.22.58,28.07,3.53,3.17,5.2,2.71,8.28-.26Q552.87,350.39,623.16,283C624.46,281.77,626.39,280.9,626.37,278.63Zm-324.15,150c-2.16-2.5-3.92-4.65-5.8-6.69Q236.27,356.53,176.1,291.19c-12-13-11.47-12.75-20.35,2.57-4.51,7.76-3.22,12.32,2.65,18.59,36.35,38.84,72.25,78.12,108.32,117.24,14.56,15.8,15.18,15.83,31.88,2.34C299.76,431,300.8,429.91,302.22,428.59Zm350.33-111c-1.89-4.16-4.36-9.25-6.52-14.47-2.82-6.8-5.33-8.31-11.6-2.22-41.74,40.64-83.89,80.85-125.9,121.22-15.57,15-15.47,14.85,2.91,26.4,3.86,2.43,6.11,2.44,9.51-.83q64-61.59,128.21-122.9C650.89,323.13,653.43,321.83,652.55,317.59ZM200.1,254.85c-4.65-1.08-7.8,1-11.08,2.93-10,5.85-10,5.77-2.43,14q61,66.3,122,132.62c11.29,12.26,11.06,12,23.41,1.22,5.1-4.45,5.81-7,.85-12.46q-60.09-65.85-119.46-132.35C209.5,256.44,205.35,254.08,200.1,254.85ZM403.18,400.34c5.33,0,10.69.38,16-.07,15.09-1.29,27.22-14.44,27.64-29.57.43-15.51-11.12-30.67-25.85-32.43a199.87,199.87,0,0,0-31.89-1.18c-15.19.66-27.83,13.21-30.36,28.81-2.08,12.82,6.89,26.88,20.4,32.8C387,402.16,395.11,400.63,403.18,400.34Zm254.66-55C620.65,381,584.07,416,547.45,451.1c-13,12.4-12.74,11.86,3.8,19.67,8.17,3.85,13.06,2.43,19.29-3.78,23.65-23.57,46.75-47.94,72.41-69.18,17.68-14.64,20.46-30.74,16-50.72A12.79,12.79,0,0,0,657.84,345.34ZM144,328.46c-2.8,11.69-3.44,21.64-4.26,31.57a8.25,8.25,0,0,0,2.59,6.71q43.14,46.81,86.11,93.78c2.35,2.57,4.54,3.91,8.14,2.47,5.82-2.35,11.78-4.36,17.71-6.43,4.33-1.52,4.27-3.47,1.26-6.61-7.17-7.5-14.11-15.22-21.13-22.86ZM556,281c-4.59-3.11-7.2-.59-9.9.59-27.64,12-52.06,28.9-74.65,48.79-8.16,7.18-14.16,13.49-6.87,24.68,1.81,2.77,1.6,6.87,2.53,11.4ZM207.63,468.78l-64.39-69.14c2.75,22.75,14.35,44.63,29.83,59.66C182.51,468.47,192.76,473.33,207.63,468.78ZM653,418.86l-67.13,63.72c9.89.21,16.9,3.42,23.77-.69,22.13-13.23,35.71-33.08,43.82-57.08C653.82,423.82,653.34,422.54,653,418.86Z" transform="translate(-118.02 -234.25)" style="fill:#070707"/><path d="M626.37,278.63c0,2.27-1.91,3.14-3.21,4.39Q552.95,350.48,482.76,418c-3.08,3-4.75,3.43-8.28.26-15.38-13.85-15.47-13.65-.58-28.07q59.76-57.86,119.44-115.8c9.59-9.3,24.67-8,32,2.76C625.65,277.62,626,278.12,626.37,278.63Z" transform="translate(-118.02 -234.25)" style="fill:#f8f8f8"/><path d="M302.22,428.59c-1.42,1.32-2.46,2.4-3.62,3.34-16.7,13.49-17.32,13.46-31.88-2.34-36.07-39.12-72-78.4-108.32-117.24-5.87-6.27-7.16-10.83-2.65-18.59,8.88-15.32,8.35-15.61,20.35-2.57q60.17,65.35,120.32,130.71C298.3,423.94,300.06,426.09,302.22,428.59Z" transform="translate(-118.02 -234.25)" style="fill:#f8f8f8"/><path d="M652.55,317.59c.88,4.24-1.66,5.54-3.39,7.2Q585,386.23,521,447.69c-3.4,3.27-5.65,3.26-9.51.83-18.38-11.55-18.48-11.44-2.91-26.4,42-40.37,84.16-80.58,125.9-121.22,6.27-6.09,8.78-4.58,11.6,2.22C648.19,308.34,650.66,313.43,652.55,317.59Z" transform="translate(-118.02 -234.25)" style="fill:#f8f8f8"/><path d="M200.1,254.85c5.25-.77,9.4,1.59,13.34,6q59.49,66.39,119.46,132.35c5,5.44,4.25,8-.85,12.46-12.35,10.78-12.12,11-23.41-1.22q-61-66.32-122-132.62c-7.6-8.25-7.61-8.17,2.43-14C192.3,255.87,195.45,253.77,200.1,254.85Z" transform="translate(-118.02 -234.25)" style="fill:#f8f8f8"/><path d="M403.18,400.34c-8.07.29-16.19,1.82-24.09-1.64-13.51-5.92-22.48-20-20.4-32.8,2.53-15.6,15.17-28.15,30.36-28.81a199.87,199.87,0,0,1,31.89,1.18c14.73,1.76,26.28,16.92,25.85,32.43-.42,15.13-12.55,28.28-27.64,29.57C413.87,400.72,408.51,400.34,403.18,400.34Z" transform="translate(-118.02 -234.25)" style="fill:#f8f8f8"/><path d="M657.84,345.34a12.79,12.79,0,0,1,1.07,1.75c4.5,20,1.72,36.08-16,50.72-25.66,21.24-48.76,45.61-72.41,69.18-6.23,6.21-11.12,7.63-19.29,3.78-16.54-7.81-16.75-7.27-3.8-19.67C584.07,416,620.65,381,657.84,345.34Z" transform="translate(-118.02 -234.25)" style="fill:#f8f8f8"/><path d="M144,328.46l90.42,98.63c7,7.64,14,15.36,21.13,22.86,3,3.14,3.07,5.09-1.26,6.61-5.93,2.07-11.89,4.08-17.71,6.43-3.6,1.44-5.79.1-8.14-2.47q-43-47-86.11-93.78a8.25,8.25,0,0,1-2.59-6.71C140.6,350.1,141.24,340.15,144,328.46Z" transform="translate(-118.02 -234.25)" style="fill:#f8f8f8"/><path d="M248.28,268.19c13.73,2.76,24.58,11.23,36,18.51,20.78,13.3,38.89,29.76,55.57,47.9,4.17,4.53,5.35,8.21,2.22,14-2.63,4.85-3.55,10.63-5.48,16.8-3.85-4.12-7.62-8.07-11.3-12.09q-37-40.33-73.95-80.73c-1.2-1.3-3.1-2.27-2.79-4.54Z" transform="translate(-118.02 -234.25)" style="fill:#f8f8f8"/><path d="M556,281l-88.89,85.46c-.93-4.53-.72-8.63-2.53-11.4-7.29-11.19-1.29-17.5,6.87-24.68,22.59-19.89,47-36.76,74.65-48.79C548.77,280.38,551.38,277.86,556,281Z" transform="translate(-118.02 -234.25)" style="fill:#f8f8f8"/><path d="M207.63,468.78c-14.87,4.55-25.12-.31-34.56-9.48-15.48-15-27.08-36.91-29.83-59.66Z" transform="translate(-118.02 -234.25)" style="fill:#f8f8f8"/><path d="M653,418.86c.32,3.68.8,5,.46,5.95-8.11,24-21.69,43.85-43.82,57.08-6.87,4.11-13.88.9-23.77.69Z" transform="translate(-118.02 -234.25)" style="fill:#f8f8f8"/><path d="M248.51,268l-1.29-.64,1.1-.45c0,.42,0,.84,0,1.27Z" transform="translate(-118.02 -234.25)" style="fill:#f8f8f8"/></svg>